<svg width="20" height="15" viewBox="0 0 20 15" fill="none" xmlns="http://www.w3.org/2000/svg">
<path d="M0 7.14579C0 3.21913 2.46 0.041626 5.5 0.041626H16C18.21 0.041626 20 2.35371 20 5.20829C20 8.06288 18.21 10.375 16 10.375H7.5C6.12 10.375 5 8.92829 5 7.14579C5 5.36329 6.12 3.91663 7.5 3.91663H15V6.49996H7.41C6.86 6.49996 6.86 7.79163 7.41 7.79163H16C17.1 7.79163 18 6.62913 18 5.20829C18 3.78746 17.1 2.62496 16 2.62496H5.5C3.57 2.62496 2 4.65288 2 7.14579C2 9.63871 3.57 11.6666 5.5 11.6666H15V14.25H5.5C2.46 14.25 0 11.0725 0 7.14579Z" fill="#FEAF66"/>
</svg>
