<svg width="115" height="87" viewBox="0 0 115 87" fill="none" xmlns="http://www.w3.org/2000/svg">
<path d="M21.4062 11.5625V67.0625C21.4062 67.3692 21.5412 67.6633 21.7815 67.8801C22.0218 68.0969 22.3477 68.2188 22.6875 68.2188H85.4688C85.8086 68.2188 86.1345 68.0969 86.3747 67.8801C86.615 67.6633 86.75 67.3692 86.75 67.0625V11.5625C86.75 11.2558 86.615 10.9617 86.3747 10.7449C86.1345 10.5281 85.8086 10.4062 85.4688 10.4062H22.6875C22.3477 10.4062 22.0218 10.5281 21.7815 10.7449C21.5412 10.9617 21.4062 11.2558 21.4062 11.5625Z" fill="#C2C2C2"/>
<path d="M85.4688 68.7969H22.6875C22.1778 68.7969 21.689 68.6141 21.3285 68.2889C20.9681 67.9636 20.7656 67.5225 20.7656 67.0625V11.5625C20.7656 11.1025 20.9681 10.6614 21.3285 10.3361C21.689 10.0109 22.1778 9.82813 22.6875 9.82812H85.4688C85.9785 9.82813 86.4673 10.0109 86.8277 10.3361C87.1881 10.6614 87.3906 11.1025 87.3906 11.5625V67.0625C87.3906 67.5225 87.1881 67.9636 86.8277 68.2889C86.4673 68.6141 85.9785 68.7969 85.4688 68.7969ZM22.6875 10.9844C22.5176 10.9844 22.3547 11.0453 22.2345 11.1537C22.1144 11.2621 22.0469 11.4092 22.0469 11.5625V67.0625C22.0469 67.2158 22.1144 67.3629 22.2345 67.4713C22.3547 67.5797 22.5176 67.6406 22.6875 67.6406H85.4688C85.6387 67.6406 85.8016 67.5797 85.9217 67.4713C86.0419 67.3629 86.1094 67.2158 86.1094 67.0625V11.5625C86.1094 11.4092 86.0419 11.2621 85.9217 11.1537C85.8016 11.0453 85.6387 10.9844 85.4688 10.9844H22.6875Z" fill="#212A41"/>
<path d="M25.25 19.6562H90.5938V67.0625C90.5938 67.3692 90.4588 67.6633 90.2185 67.8801C89.9782 68.0969 89.6523 68.2188 89.3125 68.2188H26.5312C26.1914 68.2188 25.8656 68.0969 25.6253 67.8801C25.385 67.6633 25.25 67.3692 25.25 67.0625V19.6562Z" fill="#E0E0E0"/>
<path d="M89.3125 68.7969H26.5312C26.0215 68.7969 25.5327 68.6141 25.1723 68.2889C24.8119 67.9636 24.6094 67.5225 24.6094 67.0625V19.6562C24.6094 19.5029 24.6769 19.3559 24.797 19.2475C24.9172 19.139 25.0801 19.0781 25.25 19.0781H90.5938C90.7637 19.0781 90.9266 19.139 91.0467 19.2475C91.1669 19.3559 91.2344 19.5029 91.2344 19.6562V67.0625C91.2344 67.5225 91.0319 67.9636 90.6715 68.2889C90.3111 68.6141 89.8222 68.7969 89.3125 68.7969ZM25.8906 20.2344V67.0625C25.8906 67.2158 25.9581 67.3629 26.0783 67.4713C26.1984 67.5797 26.3613 67.6406 26.5312 67.6406H89.3125C89.4824 67.6406 89.6454 67.5797 89.7655 67.4713C89.8856 67.3629 89.9531 67.2158 89.9531 67.0625V20.2344H25.8906Z" fill="#212A41"/>
<path d="M27.8125 66.4844C27.6426 66.4844 27.4796 66.4235 27.3595 66.315C27.2394 66.2066 27.1719 66.0596 27.1719 65.9062V21.9688C27.1719 21.8154 27.2394 21.6684 27.3595 21.56C27.4796 21.4515 27.6426 21.3906 27.8125 21.3906C27.9824 21.3906 28.1454 21.4515 28.2655 21.56C28.3856 21.6684 28.4531 21.8154 28.4531 21.9688V65.9062C28.4531 66.0596 28.3856 66.2066 28.2655 66.315C28.1454 66.4235 27.9824 66.4844 27.8125 66.4844Z" fill="#FEFEFE"/>
<path d="M88.0312 66.4844C87.8613 66.4844 87.6984 66.4235 87.5783 66.315C87.4581 66.2066 87.3906 66.0596 87.3906 65.9062V21.9688C87.3906 21.8154 87.4581 21.6684 87.5783 21.56C87.6984 21.4515 87.8613 21.3906 88.0312 21.3906C88.2012 21.3906 88.3641 21.4515 88.4842 21.56C88.6044 21.6684 88.6719 21.8154 88.6719 21.9688V65.9062C88.6719 66.0596 88.6044 66.2066 88.4842 66.315C88.3641 66.4235 88.2012 66.4844 88.0312 66.4844Z" fill="#C2C2C2"/>
<path d="M86.75 19.6562H21.4062V11.5625C21.4062 11.2558 21.5412 10.9617 21.7815 10.7449C22.0218 10.5281 22.3477 10.4062 22.6875 10.4062H85.4688C85.8086 10.4062 86.1345 10.5281 86.3747 10.7449C86.615 10.9617 86.75 11.2558 86.75 11.5625V19.6562Z" fill="#B51040"/>
<path d="M86.75 20.2344H21.4062C21.2363 20.2344 21.0734 20.1735 20.9533 20.065C20.8331 19.9566 20.7656 19.8096 20.7656 19.6562V11.5625C20.7656 11.1025 20.9681 10.6614 21.3285 10.3361C21.689 10.0109 22.1778 9.82813 22.6875 9.82812H85.4688C85.9785 9.82813 86.4673 10.0109 86.8277 10.3361C87.1881 10.6614 87.3906 11.1025 87.3906 11.5625V19.6562C87.3906 19.8096 87.3231 19.9566 87.203 20.065C87.0829 20.1735 86.9199 20.2344 86.75 20.2344ZM22.0469 19.0781H86.1094V11.5625C86.1094 11.4092 86.0419 11.2621 85.9217 11.1537C85.8016 11.0453 85.6387 10.9844 85.4688 10.9844H22.6875C22.5176 10.9844 22.3547 11.0453 22.2345 11.1537C22.1144 11.2621 22.0469 11.4092 22.0469 11.5625V19.0781Z" fill="#212A41"/>
<path d="M90.5938 19.6563H25.25V11.5625C25.25 11.2558 25.385 10.9617 25.6253 10.7449C25.8656 10.5281 26.1914 10.4062 26.5313 10.4062H89.3125C89.6523 10.4062 89.9782 10.5281 90.2185 10.7449C90.4588 10.9617 90.5938 11.2558 90.5938 11.5625V19.6563Z" fill="#D32E5E"/>
<path d="M90.5938 20.2344H25.25C25.0801 20.2344 24.9172 20.1735 24.797 20.065C24.6769 19.9566 24.6094 19.8096 24.6094 19.6562V11.5625C24.6094 11.1025 24.8119 10.6614 25.1723 10.3361C25.5327 10.0109 26.0215 9.82813 26.5312 9.82812H89.3125C89.8222 9.82813 90.3111 10.0109 90.6715 10.3361C91.0319 10.6614 91.2344 11.1025 91.2344 11.5625V19.6562C91.2344 19.8096 91.1669 19.9566 91.0467 20.065C90.9266 20.1735 90.7637 20.2344 90.5938 20.2344ZM25.8906 19.0781H89.9531V11.5625C89.9531 11.4092 89.8856 11.2621 89.7655 11.1537C89.6454 11.0453 89.4824 10.9844 89.3125 10.9844H26.5312C26.3613 10.9844 26.1984 11.0453 26.0783 11.1537C25.9581 11.2621 25.8906 11.4092 25.8906 11.5625V19.0781Z" fill="#212A41"/>
<path d="M88.0312 17.9219C87.8613 17.9219 87.6984 17.861 87.5783 17.7525C87.4581 17.6441 87.3906 17.4971 87.3906 17.3438V12.7188C87.3906 12.5654 87.4581 12.4184 87.5783 12.31C87.6984 12.2015 87.8613 12.1406 88.0312 12.1406C88.2012 12.1406 88.3641 12.2015 88.4842 12.31C88.6044 12.4184 88.6719 12.5654 88.6719 12.7188V17.3438C88.6719 17.4971 88.6044 17.6441 88.4842 17.7525C88.3641 17.861 88.2012 17.9219 88.0312 17.9219Z" fill="#B51040"/>
<path d="M27.8125 17.9219C27.6426 17.9219 27.4796 17.861 27.3595 17.7525C27.2394 17.6441 27.1719 17.4971 27.1719 17.3438V12.7188C27.1719 12.5654 27.2394 12.4184 27.3595 12.31C27.4796 12.2015 27.6426 12.1406 27.8125 12.1406C27.9824 12.1406 28.1454 12.2015 28.2655 12.31C28.3856 12.4184 28.4531 12.5654 28.4531 12.7188V17.3438C28.4531 17.4971 28.3856 17.6441 28.2655 17.7525C28.1454 17.861 27.9824 17.9219 27.8125 17.9219Z" fill="#F14C7C"/>
<path d="M39.3438 5.78125H38.0625C37.3549 5.78125 36.7812 6.29892 36.7812 6.9375V13.875C36.7812 14.5136 37.3549 15.0312 38.0625 15.0312H39.3438C40.0514 15.0312 40.625 14.5136 40.625 13.875V6.9375C40.625 6.29892 40.0514 5.78125 39.3438 5.78125Z" fill="#E0E0E0"/>
<path d="M39.3438 15.6094H38.0625C37.5528 15.6094 37.064 15.4266 36.7035 15.1014C36.3431 14.7761 36.1406 14.335 36.1406 13.875V6.9375C36.1406 6.47752 36.3431 6.03637 36.7035 5.71111C37.064 5.38585 37.5528 5.20313 38.0625 5.20312H39.3438C39.8535 5.20312 40.3423 5.38585 40.7027 5.71111C41.0631 6.03637 41.2656 6.47752 41.2656 6.9375V13.875C41.2656 14.335 41.0631 14.7761 40.7027 15.1014C40.3423 15.4266 39.8535 15.6094 39.3438 15.6094ZM38.0625 6.35938C37.8926 6.35938 37.7296 6.42028 37.6095 6.5287C37.4894 6.63712 37.4219 6.78417 37.4219 6.9375V13.875C37.4219 14.0283 37.4894 14.1754 37.6095 14.2838C37.7296 14.3922 37.8926 14.4531 38.0625 14.4531H39.3438C39.5137 14.4531 39.6766 14.3922 39.7967 14.2838C39.9169 14.1754 39.9844 14.0283 39.9844 13.875V6.9375C39.9844 6.78417 39.9169 6.63712 39.7967 6.5287C39.6766 6.42028 39.5137 6.35938 39.3438 6.35938H38.0625Z" fill="#212A41"/>
<path d="M77.7812 5.78125H76.5C75.7924 5.78125 75.2188 6.29892 75.2188 6.9375V13.875C75.2188 14.5136 75.7924 15.0312 76.5 15.0312H77.7812C78.4889 15.0312 79.0625 14.5136 79.0625 13.875V6.9375C79.0625 6.29892 78.4889 5.78125 77.7812 5.78125Z" fill="#E0E0E0"/>
<path d="M77.7812 15.6094H76.5C75.9903 15.6094 75.5014 15.4266 75.141 15.1014C74.7806 14.7761 74.5781 14.335 74.5781 13.875V6.9375C74.5781 6.47752 74.7806 6.03637 75.141 5.71111C75.5014 5.38585 75.9903 5.20313 76.5 5.20312H77.7812C78.291 5.20312 78.7798 5.38585 79.1402 5.71111C79.5006 6.03637 79.7031 6.47752 79.7031 6.9375V13.875C79.7031 14.335 79.5006 14.7761 79.1402 15.1014C78.7798 15.4266 78.291 15.6094 77.7812 15.6094ZM76.5 6.35938C76.3301 6.35938 76.1671 6.42028 76.047 6.5287C75.9269 6.63712 75.8594 6.78417 75.8594 6.9375V13.875C75.8594 14.0283 75.9269 14.1754 76.047 14.2838C76.1671 14.3922 76.3301 14.4531 76.5 14.4531H77.7812C77.9512 14.4531 78.1141 14.3922 78.2342 14.2838C78.3544 14.1754 78.4219 14.0283 78.4219 13.875V6.9375C78.4219 6.78417 78.3544 6.63712 78.2342 6.5287C78.1141 6.42028 77.9512 6.35938 77.7812 6.35938H76.5Z" fill="#212A41"/>
<path d="M41.9062 34.6875C44.7367 34.6875 47.0312 32.6168 47.0312 30.0625C47.0312 27.5082 44.7367 25.4375 41.9062 25.4375C39.0758 25.4375 36.7812 27.5082 36.7812 30.0625C36.7812 32.6168 39.0758 34.6875 41.9062 34.6875Z" fill="#E0C8A4"/>
<path d="M41.9063 35.2656C40.7659 35.2656 39.6512 34.9605 38.703 34.3887C37.7549 33.817 37.0159 33.0044 36.5795 32.0537C36.1431 31.1029 36.0289 30.0567 36.2514 29.0474C36.4739 28.0381 37.023 27.111 37.8293 26.3833C38.6357 25.6557 39.663 25.1601 40.7814 24.9594C41.8999 24.7586 43.0591 24.8616 44.1127 25.2554C45.1662 25.6493 46.0667 26.3162 46.7002 27.1718C47.3337 28.0274 47.6719 29.0334 47.6719 30.0625C47.6702 31.442 47.0622 32.7645 45.9813 33.74C44.9004 34.7154 43.4349 35.2641 41.9063 35.2656V35.2656ZM41.9063 26.0156C41.0193 26.0156 40.1523 26.253 39.4149 26.6976C38.6774 27.1423 38.1026 27.7744 37.7632 28.5138C37.4238 29.2533 37.335 30.067 37.508 30.852C37.6811 31.637 38.1082 32.3581 38.7353 32.9241C39.3625 33.49 40.1615 33.8755 41.0314 34.0316C41.9013 34.1878 42.8029 34.1076 43.6223 33.8013C44.4418 33.495 45.1421 32.9763 45.6349 32.3108C46.1276 31.6453 46.3906 30.8629 46.3906 30.0625C46.3906 28.9892 45.9182 27.9599 45.0772 27.2009C44.2362 26.442 43.0956 26.0156 41.9063 26.0156V26.0156Z" fill="#212A41"/>
<path d="M38.0625 34.6875H45.75C47.1092 34.6875 48.4128 35.1748 49.3739 36.0421C50.335 36.9095 50.875 38.0859 50.875 39.3125V43.9375H32.9375V39.3125C32.9375 38.0859 33.4775 36.9095 34.4386 36.0421C35.3997 35.1748 36.7033 34.6875 38.0625 34.6875V34.6875Z" fill="#0079A8"/>
<path d="M50.875 44.5156H32.9375C32.7676 44.5156 32.6046 44.4547 32.4845 44.3463C32.3644 44.2379 32.2969 44.0908 32.2969 43.9375V39.3125C32.2986 37.933 32.9066 36.6105 33.9875 35.635C35.0684 34.6596 36.5339 34.1109 38.0625 34.1094H45.75C47.2786 34.1109 48.7441 34.6596 49.825 35.635C50.9059 36.6105 51.5139 37.933 51.5156 39.3125V43.9375C51.5156 44.0908 51.4481 44.2379 51.328 44.3463C51.2079 44.4547 51.0449 44.5156 50.875 44.5156ZM33.5781 43.3594H50.2344V39.3125C50.2344 38.2392 49.7619 37.2099 48.9209 36.4509C48.0799 35.692 46.9393 35.2656 45.75 35.2656H38.0625C36.8732 35.2656 35.7326 35.692 34.8916 36.4509C34.0506 37.2099 33.5781 38.2392 33.5781 39.3125V43.3594Z" fill="#212A41"/>
<path d="M35.5 42.2031C35.3301 42.2031 35.1671 42.1422 35.047 42.0338C34.9269 41.9254 34.8594 41.7783 34.8594 41.625V39.3125C34.8594 38.5459 35.1968 37.8106 35.7975 37.2685C36.3983 36.7264 37.213 36.4219 38.0625 36.4219C38.2324 36.4219 38.3954 36.4828 38.5155 36.5912C38.6356 36.6996 38.7031 36.8467 38.7031 37C38.7031 37.1533 38.6356 37.3004 38.5155 37.4088C38.3954 37.5172 38.2324 37.5781 38.0625 37.5781C37.5528 37.5781 37.064 37.7609 36.7035 38.0861C36.3431 38.4114 36.1406 38.8525 36.1406 39.3125V41.625C36.1406 41.7783 36.0731 41.9254 35.953 42.0338C35.8329 42.1422 35.6699 42.2031 35.5 42.2031Z" fill="#1E97C6"/>
<path d="M48.3125 42.2031C48.1426 42.2031 47.9796 42.1422 47.8595 42.0338C47.7394 41.9254 47.6719 41.7783 47.6719 41.625V39.3125C47.6719 38.8525 47.4694 38.4114 47.109 38.0861C46.7485 37.7609 46.2597 37.5781 45.75 37.5781C45.5801 37.5781 45.4171 37.5172 45.297 37.4088C45.1769 37.3004 45.1094 37.1533 45.1094 37C45.1094 36.8467 45.1769 36.6996 45.297 36.5912C45.4171 36.4828 45.5801 36.4219 45.75 36.4219C46.5995 36.4219 47.4142 36.7264 48.015 37.2685C48.6157 37.8106 48.9531 38.5459 48.9531 39.3125V41.625C48.9531 41.7783 48.8856 41.9254 48.7655 42.0338C48.6454 42.1422 48.4824 42.2031 48.3125 42.2031Z" fill="#005B8A"/>
<path d="M41.9062 41.625L39.3438 34.6875H44.4688L41.9062 41.625Z" fill="#E0E0E0"/>
<path d="M41.9063 42.2031C41.7717 42.2033 41.6404 42.1652 41.5312 42.0942C41.4219 42.0232 41.3403 41.923 41.2977 41.8077L38.7352 34.8702C38.7031 34.7832 38.6944 34.6906 38.7098 34.6C38.7251 34.5094 38.7641 34.4234 38.8236 34.3491C38.883 34.2748 38.9612 34.2143 39.0517 34.1726C39.1421 34.1309 39.2423 34.1093 39.3438 34.1094H44.4688C44.5704 34.1093 44.6705 34.1309 44.761 34.1726C44.8514 34.2143 44.9296 34.2748 44.989 34.3491C45.0485 34.4234 45.0875 34.5094 45.1029 34.6C45.1182 34.6906 45.1095 34.7832 45.0774 34.8702L42.5149 41.8077C42.4724 41.923 42.3907 42.0232 42.2814 42.0942C42.1722 42.1652 42.0409 42.2033 41.9063 42.2031ZM40.2317 35.2656L41.9063 39.797L43.5809 35.2656H40.2317Z" fill="#212A41"/>
<path d="M41.9062 58.9688C44.7367 58.9688 47.0312 56.8981 47.0312 54.3438C47.0312 51.7894 44.7367 49.7188 41.9062 49.7188C39.0758 49.7188 36.7812 51.7894 36.7812 54.3438C36.7812 56.8981 39.0758 58.9688 41.9062 58.9688Z" fill="#E0C8A4"/>
<path d="M41.9063 59.5469C40.7659 59.5469 39.6512 59.2417 38.703 58.67C37.7549 58.0983 37.0159 57.2857 36.5795 56.3349C36.1431 55.3842 36.0289 54.338 36.2514 53.3287C36.4739 52.3194 37.023 51.3923 37.8293 50.6646C38.6357 49.9369 39.663 49.4414 40.7814 49.2406C41.8999 49.0398 43.0591 49.1429 44.1127 49.5367C45.1662 49.9305 46.0667 50.5974 46.7002 51.4531C47.3337 52.3087 47.6719 53.3147 47.6719 54.3438C47.6702 55.7232 47.0622 57.0458 45.9813 58.0212C44.9004 58.9967 43.4349 59.5454 41.9063 59.5469ZM41.9063 50.2969C41.0193 50.2969 40.1523 50.5342 39.4149 50.9789C38.6774 51.4236 38.1026 52.0556 37.7632 52.7951C37.4238 53.5345 37.335 54.3482 37.508 55.1333C37.6811 55.9183 38.1082 56.6394 38.7353 57.2053C39.3625 57.7713 40.1615 58.1567 41.0314 58.3129C41.9013 58.469 42.8029 58.3889 43.6223 58.0826C44.4418 57.7763 45.1421 57.2576 45.6349 56.5921C46.1276 55.9266 46.3906 55.1442 46.3906 54.3438C46.3906 53.2705 45.9182 52.2411 45.0772 51.4822C44.2362 50.7232 43.0956 50.2969 41.9063 50.2969V50.2969Z" fill="#212A41"/>
<path d="M38.0625 58.9688H45.75C47.1092 58.9688 48.4128 59.456 49.3739 60.3234C50.335 61.1907 50.875 62.3671 50.875 63.5938V68.2188H32.9375V63.5938C32.9375 62.3671 33.4775 61.1907 34.4386 60.3234C35.3997 59.456 36.7033 58.9688 38.0625 58.9688Z" fill="#0079A8"/>
<path d="M50.875 68.7969H32.9375C32.7676 68.7969 32.6046 68.736 32.4845 68.6275C32.3644 68.5191 32.2969 68.3721 32.2969 68.2188V63.5938C32.2986 62.2143 32.9066 60.8917 33.9875 59.9163C35.0684 58.9408 36.5339 58.3922 38.0625 58.3906H45.75C47.2786 58.3922 48.7441 58.9408 49.825 59.9163C50.9059 60.8917 51.5139 62.2143 51.5156 63.5938V68.2188C51.5156 68.3721 51.4481 68.5191 51.328 68.6275C51.2079 68.736 51.0449 68.7969 50.875 68.7969ZM33.5781 67.6406H50.2344V63.5938C50.2344 62.5205 49.7619 61.4911 48.9209 60.7322C48.0799 59.9732 46.9393 59.5469 45.75 59.5469H38.0625C36.8732 59.5469 35.7326 59.9732 34.8916 60.7322C34.0506 61.4911 33.5781 62.5205 33.5781 63.5938V67.6406Z" fill="#212A41"/>
<path d="M35.5 66.4844C35.3301 66.4844 35.1671 66.4235 35.047 66.315C34.9269 66.2066 34.8594 66.0596 34.8594 65.9062V63.5938C34.8594 62.8271 35.1968 62.0919 35.7975 61.5498C36.3983 61.0077 37.213 60.7031 38.0625 60.7031C38.2324 60.7031 38.3954 60.764 38.5155 60.8725C38.6356 60.9809 38.7031 61.1279 38.7031 61.2812C38.7031 61.4346 38.6356 61.5816 38.5155 61.69C38.3954 61.7985 38.2324 61.8594 38.0625 61.8594C37.5528 61.8594 37.064 62.0421 36.7035 62.3674C36.3431 62.6926 36.1406 63.1338 36.1406 63.5938V65.9062C36.1406 66.0596 36.0731 66.2066 35.953 66.315C35.8329 66.4235 35.6699 66.4844 35.5 66.4844Z" fill="#1E97C6"/>
<path d="M48.3125 66.4844C48.1426 66.4844 47.9796 66.4235 47.8595 66.315C47.7394 66.2066 47.6719 66.0596 47.6719 65.9062V63.5938C47.6719 63.1338 47.4694 62.6926 47.109 62.3674C46.7485 62.0421 46.2597 61.8594 45.75 61.8594C45.5801 61.8594 45.4171 61.7985 45.297 61.69C45.1769 61.5816 45.1094 61.4346 45.1094 61.2812C45.1094 61.1279 45.1769 60.9809 45.297 60.8725C45.4171 60.764 45.5801 60.7031 45.75 60.7031C46.5995 60.7031 47.4142 61.0077 48.015 61.5498C48.6157 62.0919 48.9531 62.8271 48.9531 63.5938V65.9062C48.9531 66.0596 48.8856 66.2066 48.7655 66.315C48.6454 66.4235 48.4824 66.4844 48.3125 66.4844Z" fill="#005B8A"/>
<path d="M41.9062 65.9062L39.3438 58.9688H44.4688L41.9062 65.9062Z" fill="#E0E0E0"/>
<path d="M41.9063 66.4844C41.7717 66.4845 41.6404 66.4464 41.5312 66.3754C41.4219 66.3044 41.3403 66.2042 41.2977 66.0889L38.7352 59.1514C38.7031 59.0645 38.6944 58.9719 38.7098 58.8813C38.7251 58.7907 38.7641 58.7047 38.8236 58.6304C38.883 58.5561 38.9612 58.4956 39.0517 58.4539C39.1421 58.4122 39.2423 58.3905 39.3438 58.3906H44.4688C44.5704 58.3905 44.6705 58.4122 44.761 58.4539C44.8514 58.4956 44.9296 58.5561 44.989 58.6304C45.0485 58.7047 45.0875 58.7907 45.1029 58.8813C45.1182 58.9719 45.1095 59.0645 45.0774 59.1514L42.5149 66.0889C42.4724 66.2042 42.3907 66.3044 42.2814 66.3754C42.1722 66.4464 42.0409 66.4845 41.9063 66.4844ZM40.2317 59.5469L41.9063 64.0782L43.5809 59.5469H40.2317Z" fill="#212A41"/>
<path d="M56 68.7969C55.8301 68.7969 55.6671 68.736 55.547 68.6275C55.4269 68.5191 55.3594 68.3721 55.3594 68.2188V19.6562C55.3594 19.5029 55.4269 19.3559 55.547 19.2475C55.6671 19.139 55.8301 19.0781 56 19.0781C56.1699 19.0781 56.3329 19.139 56.453 19.2475C56.5731 19.3559 56.6406 19.5029 56.6406 19.6562V68.2188C56.6406 68.3721 56.5731 68.5191 56.453 68.6275C56.3329 68.736 56.1699 68.7969 56 68.7969Z" fill="#212A41"/>
<path d="M73.9375 68.7969C73.7676 68.7969 73.6046 68.736 73.4845 68.6275C73.3644 68.5191 73.2969 68.3721 73.2969 68.2188V19.6562C73.2969 19.5029 73.3644 19.3559 73.4845 19.2475C73.6046 19.139 73.7676 19.0781 73.9375 19.0781C74.1074 19.0781 74.2704 19.139 74.3905 19.2475C74.5106 19.3559 74.5781 19.5029 74.5781 19.6562V68.2188C74.5781 68.3721 74.5106 68.5191 74.3905 68.6275C74.2704 68.736 74.1074 68.7969 73.9375 68.7969Z" fill="#212A41"/>
<path d="M90.5938 44.5156H25.25C25.0801 44.5156 24.9172 44.4547 24.797 44.3463C24.6769 44.2379 24.6094 44.0908 24.6094 43.9375C24.6094 43.7842 24.6769 43.6371 24.797 43.5287C24.9172 43.4203 25.0801 43.3594 25.25 43.3594H90.5938C90.7637 43.3594 90.9266 43.4203 91.0467 43.5287C91.1669 43.6371 91.2344 43.7842 91.2344 43.9375C91.2344 44.0908 91.1669 44.2379 91.0467 44.3463C90.9266 44.4547 90.7637 44.5156 90.5938 44.5156Z" fill="#212A41"/>
<path d="M63.6876 35.2656C63.6034 35.2658 63.52 35.2509 63.4422 35.222C63.3644 35.193 63.2936 35.1505 63.234 35.0968L60.6715 32.7843C60.5512 32.6758 60.4836 32.5285 60.4836 32.375C60.4836 32.2215 60.5512 32.0742 60.6715 31.9657C60.7918 31.8571 60.955 31.7961 61.1251 31.7961C61.2952 31.7961 61.4583 31.8571 61.5786 31.9657L63.6876 33.87L68.359 29.6532C68.4186 29.5994 68.4893 29.5568 68.5671 29.5277C68.6449 29.4986 68.7283 29.4836 68.8126 29.4836C68.8968 29.4836 68.9802 29.4986 69.058 29.5277C69.1359 29.5568 69.2066 29.5994 69.2661 29.6532C69.3257 29.7069 69.373 29.7707 69.4052 29.841C69.4374 29.9112 69.454 29.9865 69.454 30.0625C69.454 30.1385 69.4374 30.2138 69.4052 30.284C69.373 30.3542 69.3257 30.4181 69.2661 30.4718L64.1411 35.0968C64.0815 35.1505 64.0108 35.193 63.933 35.222C63.8552 35.2509 63.7718 35.2658 63.6876 35.2656Z" fill="#212A41"/>
<path d="M81.6251 35.2656C81.5409 35.2658 81.4575 35.2509 81.3797 35.222C81.3019 35.193 81.2311 35.1505 81.1715 35.0968L78.609 32.7843C78.4887 32.6758 78.4211 32.5285 78.4211 32.375C78.4211 32.2215 78.4887 32.0742 78.609 31.9657C78.7293 31.8571 78.8925 31.7961 79.0626 31.7961C79.2327 31.7961 79.3958 31.8571 79.5161 31.9657L81.6251 33.87L86.2965 29.6532C86.4168 29.5446 86.58 29.4836 86.7501 29.4836C86.9202 29.4836 87.0834 29.5446 87.2036 29.6532C87.3239 29.7617 87.3915 29.909 87.3915 30.0625C87.3915 30.216 87.3239 30.3633 87.2036 30.4718L82.0786 35.0968C82.019 35.1505 81.9483 35.193 81.8705 35.222C81.7927 35.2509 81.7093 35.2658 81.6251 35.2656Z" fill="#212A41"/>
</svg>
