<svg width="79" height="110" viewBox="0 0 79 110" fill="none" xmlns="http://www.w3.org/2000/svg">
<path d="M78.0039 22.631C77.7078 22.3448 77.3527 22.1609 76.9764 22.0989C76.6001 22.037 76.217 22.0994 75.8679 22.2795L41.8752 39.9938C40.3972 40.7688 38.5463 41.1372 36.646 41.1372C33.9963 41.1499 31.2551 40.4088 29.3443 39.4009C28.762 39.1058 28.2076 38.7367 27.6904 38.2999C27.8311 38.2152 28.0071 38.122 28.2006 38.0289L59.1179 21.9195L63.7276 24.291V17.3586C63.7346 16.8642 63.6486 16.3743 63.4762 15.9256C63.3038 15.4768 63.0493 15.0807 62.7318 14.7669C62.437 14.481 62.083 14.2972 61.7079 14.2353C61.3328 14.1733 60.9508 14.2356 60.6028 14.4154L26.6101 32.1297C25.5614 32.6379 24.6606 33.2646 23.9005 34.1751C23.0203 35.2201 22.5205 36.6426 22.5105 38.1305C22.5105 38.1728 22.5211 38.2448 22.5211 38.2448V100.624L22.5141 100.709C22.5141 100.726 22.5246 100.734 22.5246 100.751V100.819H22.5316C22.602 103 23.5169 104.389 24.3896 105.371C27.1344 108.285 31.7442 109.915 36.6496 110C38.972 110 41.3297 109.577 43.5115 108.45L77.5148 90.7315C78.4121 90.2656 78.9998 89.1095 78.9998 87.801V25.2227C79.0052 24.7286 78.9185 24.2393 78.7462 23.7908C78.5739 23.3423 78.3202 22.946 78.0039 22.631ZM56.4435 10.7734C56.3837 9.84174 56.0634 8.95242 55.4934 8.41883C55.1973 8.13263 54.8421 7.94873 54.4659 7.88681C54.0896 7.82489 53.7064 7.8873 53.3574 8.06734L19.3646 25.7732C17.8867 26.544 16.0322 26.9166 14.1355 26.9166C11.4858 26.9251 8.74452 26.184 6.83374 25.1719C6.25087 24.8816 5.69625 24.5152 5.17985 24.0793C5.32061 23.9946 5.49655 23.9014 5.69009 23.8082L36.6108 7.6989L41.2206 10.0704V3.14645C41.2269 2.65178 41.1403 2.1618 40.9672 1.71304C40.7942 1.26428 40.5392 0.868332 40.2213 0.554725C39.9257 0.268894 39.5711 0.0851847 39.1955 0.0232683C38.8199 -0.0386481 38.4373 0.023561 38.0888 0.203233L4.09602 17.9218C3.04739 18.43 2.15006 19.0525 1.38645 19.9672C0.507574 21.0129 0.00900248 22.4353 0 23.9226C0 23.9734 0.010556 24.0412 0.010556 24.0412V86.6194H0.017595C0.0879734 88.8004 1.00289 90.1894 1.87558 91.1719C4.62034 94.0855 9.23013 95.7116 14.139 95.7963C15.4721 95.7869 16.8009 95.6138 18.1048 95.2797V38.2406C18.0697 35.2762 19.055 32.4304 20.7863 30.3807C21.9857 28.9805 23.4109 27.8909 24.9738 27.1792L56.4435 10.7734Z" fill="white"/>
</svg>
