<svg width="21" height="22" viewBox="0 0 21 22" fill="none" xmlns="http://www.w3.org/2000/svg">
<g clip-path="url(#clip0)">
<path d="M13.6661 4.94296C12.4806 2.40696 10.0006 0.730316 7.2189 0.730316C3.23855 0.730316 0.000316077 4.1035 0.000316077 8.24967C0.000316077 9.37646 0.231229 10.4565 0.686984 11.4634L0.0122513 14.9981C-0.0736334 15.4481 0.30526 15.8458 0.734848 15.7568L4.15051 15.0493C4.61041 15.2779 5.08618 15.4517 5.57503 15.5714C4.47924 10.1342 8.4132 5.03053 13.6661 4.94296Z" fill="#53B86F"/>
<path d="M20.3132 16.9633C20.4311 16.7028 20.5336 16.4375 20.6213 16.1677H20.5988C22.1347 11.4449 18.9047 6.48105 14.1362 6.23935C14.1361 6.2391 14.1361 6.23884 14.136 6.23858C10.0331 6.0405 6.62427 9.48205 6.62427 13.7495C6.62427 17.8922 9.83822 21.2627 13.7913 21.2688C14.8635 21.2672 15.8913 21.0254 16.8497 20.5492C20.5905 21.324 20.2988 21.2689 20.3847 21.2689C20.7735 21.2689 21.0639 20.8957 20.988 20.498L20.3132 16.9633Z" fill="#53B86F"/>
</g>
<defs>
<clipPath id="clip0">
<rect width="21" height="22" fill="white"/>
</clipPath>
</defs>
</svg>
