<svg width="81" height="92" viewBox="0 0 81 92" fill="none" xmlns="http://www.w3.org/2000/svg">
<path d="M19.4729 30.9436C22.7641 30.9436 25.5068 34.0586 25.5068 37.7969C25.5068 41.639 22.8556 44.6503 19.4729 44.6503C16.0902 44.6503 13.439 41.5351 13.439 37.7967C13.439 34.0586 16.1815 30.9436 19.4729 30.9436Z" fill="#D4E1F4"/>
<path d="M40.5 30.9436C43.8827 30.9436 46.5339 34.0586 46.5339 37.7969C46.5339 41.639 43.8827 44.6503 40.5 44.6503C37.1173 44.6503 34.4661 41.5353 34.4661 37.7969C34.4661 34.0586 37.1173 30.9436 40.5 30.9436Z" fill="#D4E1F4"/>
<path d="M61.5268 30.9436C64.9095 30.9436 67.5608 34.0586 67.5608 37.7969C67.5608 41.639 64.9095 44.6503 61.5268 44.6503C58.1442 44.6503 55.4929 41.5353 55.4929 37.7969C55.4929 34.0586 58.1443 30.9436 61.5268 30.9436Z" fill="#D4E1F4"/>
<path d="M78.2573 8.61845V83.3814L64.0868 67.1827H2.74268V8.61845H78.2573ZM67.561 37.7967C67.561 34.0586 64.9098 30.9434 61.5271 30.9434C58.1444 30.9434 55.4932 34.0584 55.4932 37.7967C55.4932 41.6388 58.1444 44.6501 61.5271 44.6501C64.9098 44.6501 67.561 41.6388 67.561 37.7967ZM46.534 37.7967C46.534 34.0586 43.8828 30.9434 40.5001 30.9434C37.1174 30.9434 34.4662 34.0584 34.4662 37.7967C34.4662 41.6388 37.1174 44.6501 40.5001 44.6501C43.8828 44.6501 46.534 41.6388 46.534 37.7967ZM25.5068 37.7967C25.5068 34.0586 22.8556 30.9434 19.4729 30.9434C16.0902 30.9434 13.4391 34.0586 13.4391 37.7967C13.4391 41.6388 16.1817 44.6501 19.4731 44.6501C22.7644 44.6501 25.5068 41.6388 25.5068 37.7967Z" fill="#57B7EB"/>
<path d="M75.571 83.4755C74.8647 83.4755 74.1585 83.1757 73.7171 82.5759L60.8276 67.8811H2.64844C1.14772 67.8811 0 66.5815 0 64.8821V8.50226C0 6.80299 1.14772 5.50342 2.64844 5.50342H75.571C77.0719 5.50342 78.2194 6.80299 78.2194 8.50226V80.4765C78.2194 81.676 77.6015 82.7756 76.542 83.2756C76.2773 83.3757 75.9242 83.4755 75.571 83.4755ZM5.29705 61.8832H61.8871C62.5934 61.8832 63.2996 62.1831 63.741 62.7829L72.9226 73.1793V11.5013H5.29705V61.8832Z" fill="#6919A9"/>
<path d="M39.1098 46.1889C34.4307 46.1889 30.6345 41.8905 30.6345 36.5924C30.6345 31.2942 34.4307 26.9958 39.1098 26.9958C43.7889 26.9958 47.585 31.2942 47.585 36.5924C47.585 41.9904 43.8771 46.1889 39.1098 46.1889ZM39.1098 32.9935C37.3441 32.9935 35.9316 34.5929 35.9316 36.5922C35.9316 38.5915 37.3441 40.1909 39.1098 40.1909C40.9637 40.1909 42.288 38.6914 42.288 36.5922C42.288 34.5929 40.8755 32.9935 39.1098 32.9935Z" fill="#6919A9"/>
<path d="M18.8046 46.1889C14.1255 46.1889 10.3293 41.8905 10.3293 36.5924C10.3293 31.2942 14.1255 26.9958 18.8046 26.9958C23.4837 26.9958 27.2798 31.2942 27.2798 36.5924C27.2798 41.9904 23.5719 46.1889 18.8046 46.1889ZM18.8046 32.9935C17.0389 32.9935 15.6264 34.5929 15.6264 36.5922C15.6264 38.5915 17.0389 40.1909 18.8046 40.1909C20.6585 40.1909 21.9828 38.6914 21.9828 36.5922C21.9828 34.5929 20.5703 32.9935 18.8046 32.9935Z" fill="#6919A9"/>
<path d="M59.4152 46.1889C54.7361 46.1889 50.9399 41.8905 50.9399 36.5924C50.9399 31.2942 54.7361 26.9958 59.4152 26.9958C64.0943 26.9958 67.8904 31.2942 67.8904 36.5924C67.8904 41.9904 64.1825 46.1889 59.4152 46.1889ZM59.4152 32.9935C57.6495 32.9935 56.237 34.5929 56.237 36.5922C56.237 38.5915 57.6495 40.1909 59.4152 40.1909C61.2691 40.1909 62.5934 38.6914 62.5934 36.5922C62.5934 34.5929 61.1809 32.9935 59.4152 32.9935Z" fill="#6919A9"/>
</svg>
