<svg width="20" height="20" viewBox="0 0 20 20" fill="none" xmlns="http://www.w3.org/2000/svg">
<path d="M16.794 0.963867H3.20604C1.65407 0.963867 0 1.8052 0 4.16991V15.8301C0 18.1948 1.65816 19.0362 3.20604 19.0362H16.794C18.3459 19.0362 20 18.1948 20 15.8301V4.174C20 2.62203 19.1587 0.963867 16.794 0.963867ZM18.1703 4.10457L8.4174 16.1283C8.38278 16.1703 8.33275 16.1968 8.27854 16.2018H8.25812C8.21064 16.2024 8.16444 16.1866 8.12742 16.1568L1.86645 11.0843C1.78298 11.0085 1.77685 10.8793 1.85266 10.7959C1.85706 10.7911 1.8616 10.7865 1.86645 10.7821H1.82969L4.34143 8.27038C4.42031 8.19518 4.54436 8.19518 4.62324 8.27038L8.3643 11.6357L17.8803 3.81868C17.9654 3.7447 18.0944 3.75369 18.1684 3.83884C18.2345 3.91481 18.2353 4.02763 18.1703 4.10457Z" fill="#5DDA80"/>
</svg>
