<svg width="67" height="63" viewBox="0 0 67 63" fill="none" xmlns="http://www.w3.org/2000/svg">
<path d="M67 31.5C67 48.897 50.4733 51.1304 33.5 63C14.9985 63 0 48.897 0 31.5C0 14.103 14.9985 0 33.5 0C52.0015 0 67 14.103 67 31.5Z" fill="#D32E5E"/>
<path d="M47.3201 19.6667C47.3201 18.1084 46.1334 16.8334 44.6667 16.8334H23.3334C21.8667 16.8334 20.6667 18.1084 20.6667 19.6667V36.6667C20.6667 38.225 21.8667 39.5 23.3334 39.5H42.0001L47.3334 45.1667L47.3201 19.6667ZM42.0001 33.8334H26.0001V31H42.0001V33.8334ZM42.0001 29.5834H26.0001V26.75H42.0001V29.5834ZM42.0001 25.3334H26.0001V22.5H42.0001V25.3334Z" fill="white"/>
</svg>
