<svg width="42" height="42" viewBox="0 0 42 42" fill="none" xmlns="http://www.w3.org/2000/svg">
<path d="M20.8828 0L0 11.0333L20.8828 22.0667L41.7655 11.0333L20.8828 0ZM20.8828 12.4125C19.6896 12.4125 18.7225 11.7953 18.7225 11.0333C18.7225 10.2713 19.6896 9.65417 20.8828 9.65417C22.076 9.65417 23.043 10.2713 23.043 11.0333C23.043 11.7953 22.076 12.4125 20.8828 12.4125Z" fill="#FFE600"/>
<path d="M23.7631 38.6167L25.9234 36.5479L23.7631 34.4792H30.9641V31.7208H0V41.375H30.9641V38.6167H23.7631Z" fill="#FFE600"/>
<path d="M34.5647 31.7208H41.7656V41.375H34.5647V31.7208Z" fill="#FFE600"/>
<path d="M41.0455 20.1889V12.989L39.6053 13.7496V20.1889C39.1769 20.4275 38.8853 20.8675 38.8853 21.3771V26.8938H41.7656V21.3771C41.7656 20.8682 41.474 20.4282 41.0455 20.1889Z" fill="#FFE600"/>
<path d="M20.8827 23.6417L5.76074 15.6522V26.2042H10.8014V27.5833H5.76074V30.3417H36.0047V15.6522L20.8827 23.6417ZM13.6818 27.5833H12.2416V26.2042H13.6818V27.5833ZM16.5622 27.5833H15.122V26.2042H16.5622V27.5833ZM19.4426 27.5833H18.0024V26.2042H19.4426V27.5833Z" fill="#FFE600"/>
</svg>
