<svg width="20" height="21" viewBox="0 0 20 21" fill="none" xmlns="http://www.w3.org/2000/svg">
<path d="M18.8333 4.84616H17.1667C16.5233 4.84616 16 5.39566 16 6.07116V14.1212C16 14.7967 16.5233 15.3462 17.1667 15.3462H18.8333C19.4767 15.3462 20 14.7967 20 14.1212V6.07116C20 5.39566 19.4767 4.84616 18.8333 4.84616Z" fill="#DE415A"/>
<path d="M7.47466 4.84616C6.15102 4.84616 5.02422 5.80103 4.80022 7.11057L4.03997 11.5439C3.75488 13.2149 5.03101 14.7359 6.71441 14.7359H9.91831C9.91831 14.7359 9.40922 15.759 9.40922 17.4641C9.40922 19.5103 10.9365 20.1923 11.6153 20.1923C12.2941 20.1923 12.6335 19.8513 12.6335 18.1462C12.6335 16.5256 14.1954 15.2215 15.2 14.5497V6.10045C14.1133 5.59505 11.9377 4.84616 8.56073 4.84616H7.47466Z" fill="#DE415A"/>
</svg>
