<svg width="35" height="31" viewBox="0 0 35 31" fill="none" xmlns="http://www.w3.org/2000/svg">
<path d="M32.9583 7.15381H30.0417C28.9158 7.15381 28 7.96498 28 8.96214V20.8455C28 21.8426 28.9158 22.6538 30.0417 22.6538H32.9583C34.0842 22.6538 35 21.8426 35 20.8455V8.96214C35 7.96498 34.0842 7.15381 32.9583 7.15381Z" fill="#F2EBEC"/>
<path d="M13.0807 7.15381C10.7643 7.15381 8.79239 8.56338 8.40038 10.4965L7.06995 17.041C6.57104 19.5077 8.80426 21.753 11.7502 21.753H17.3571C17.3571 21.753 16.4661 23.2632 16.4661 25.7803C16.4661 28.8008 19.1389 29.8077 20.3268 29.8077C21.5147 29.8077 22.1086 29.3042 22.1086 26.7871C22.1086 24.3949 24.8419 22.4698 26.6 21.4781V9.00538C24.6982 8.25932 20.891 7.15381 14.9813 7.15381H13.0807Z" fill="#F2EBEC"/>
</svg>
