<svg width="16" height="14" viewBox="0 0 16 14" fill="none" xmlns="http://www.w3.org/2000/svg">
<path d="M13.6122 13.92H2.38776C1.94463 13.9207 1.51038 13.7745 1.13526 13.4983C0.760154 13.222 0.459523 12.827 0.268171 12.359C0.0441716 11.8037 -0.0421037 11.1858 0.0191762 10.5759C0.0804561 9.96596 0.286827 9.38844 0.614771 8.90916L6.22701 0.948012C6.44726 0.650437 6.71956 0.411781 7.02546 0.248216C7.33136 0.0846509 7.66372 0 8 0C8.33628 0 8.66864 0.0846509 8.97454 0.248216C9.28044 0.411781 9.55274 0.650437 9.77299 0.948012L15.3852 8.90916C15.7132 9.38844 15.9195 9.96596 15.9808 10.5759C16.0421 11.1858 15.9558 11.8037 15.7318 12.359C15.5405 12.827 15.2398 13.222 14.8647 13.4983C14.4896 13.7745 14.0554 13.9207 13.6122 13.92Z" fill="#FF912C"/>
</svg>
