<svg width="31" height="30" viewBox="0 0 31 30" fill="none" xmlns="http://www.w3.org/2000/svg">
<path fill-rule="evenodd" clip-rule="evenodd" d="M2.11631 7.77522C1.56463 8.12003 1.1097 8.59949 0.794322 9.16851C0.478944 9.73753 0.313475 10.3774 0.313477 11.028V26.1642C0.313477 27.1815 0.717607 28.1571 1.43696 28.8765C2.15632 29.5958 3.13198 30 4.1493 30H27.1642C28.1816 30 29.1572 29.5958 29.8766 28.8765C30.5959 28.1571 31.0001 27.1815 31.0001 26.1642V11.028C31.0001 10.3774 30.8346 9.73753 30.5192 9.16851C30.2038 8.59949 29.7489 8.12003 29.1972 7.77522L17.6898 0.583054C17.0801 0.202031 16.3757 0 15.6568 0C14.9379 0 14.2334 0.202031 13.6238 0.583054L2.11631 7.77522ZM7.13165 12.4223C6.9221 12.2825 6.68707 12.1854 6.43998 12.1364C6.19288 12.0875 5.93857 12.0877 5.69155 12.137C5.44453 12.1864 5.20965 12.2839 5.00032 12.424C4.79098 12.5641 4.61129 12.744 4.47151 12.9536C4.33172 13.1631 4.23458 13.3982 4.18563 13.6453C4.13668 13.8923 4.13687 14.1467 4.1862 14.3937C4.28584 14.8926 4.57956 15.3314 5.00277 15.6137L14.5923 22.0061C14.9075 22.2164 15.2779 22.3286 15.6568 22.3286C16.0356 22.3286 16.406 22.2164 16.7212 22.0061L26.3108 15.6137C26.734 15.3314 27.0277 14.8926 27.1273 14.3937C27.227 13.8948 27.1243 13.3768 26.842 12.9536C26.5597 12.5304 26.1209 12.2366 25.622 12.137C25.1231 12.0374 24.6051 12.14 24.1819 12.4223L15.6568 18.1051L7.13165 12.4223Z" fill="white"/>
</svg>
