<svg width="89" height="93" viewBox="0 0 89 93" fill="none" xmlns="http://www.w3.org/2000/svg">
<g clip-path="url(#clip0)">
<path d="M10.5031 33.6765C18.5787 39.6111 31.0033 43.4127 44.9388 43.4127C59.0527 43.4127 71.617 39.5132 79.6827 33.4473L79.6836 19.6909C72.6375 27.2753 59.7192 32.3566 44.9499 32.3566C30.3502 32.3566 17.5593 27.3913 10.4614 19.9513L10.5031 33.6765Z" fill="#F03049"/>
<path d="M45.0911 32.3551V43.4114C59.143 43.3834 71.6461 39.4912 79.6826 33.4473L79.6834 19.6909C72.6602 27.2511 59.8015 32.3228 45.0911 32.3551Z" fill="#BD002F"/>
<path d="M3.70776 18.5697H14.9247V86.4826H3.70776V18.5697Z" fill="#FFD06B"/>
<path d="M9.31635 22.7159C13.5971 22.7159 17.0673 19.0897 17.0673 14.6166C17.0673 10.1435 13.5971 6.51736 9.31635 6.51736C5.03563 6.51736 1.56543 10.1435 1.56543 14.6166C1.56543 19.0897 5.03563 22.7159 9.31635 22.7159Z" fill="#FFE89C"/>
<path d="M0 81.101H18.6326V86.4823H0V81.101Z" fill="#FFAF37"/>
<path d="M74.075 18.5697H85.2919V86.4826H74.075V18.5697Z" fill="#FFAF37"/>
<path d="M79.6835 22.7159C83.9642 22.7159 87.4344 19.0897 87.4344 14.6166C87.4344 10.1435 83.9642 6.51736 79.6835 6.51736C75.4028 6.51736 71.9326 10.1435 71.9326 14.6166C71.9326 19.0897 75.4028 22.7159 79.6835 22.7159Z" fill="#FFD06B"/>
<path d="M70.3672 81.101H88.9998V86.4823H70.3672V81.101Z" fill="#FF9B32"/>
</g>
<defs>
<clipPath id="clip0">
<rect width="89" height="93" fill="white"/>
</clipPath>
</defs>
</svg>
