<svg width="23" height="19" viewBox="0 0 23 19" fill="none" xmlns="http://www.w3.org/2000/svg">
<path d="M15.6072 15.1965V9.85719H8.16298C7.94512 9.85719 7.73619 9.77064 7.58214 9.61659C7.42809 9.46255 7.34155 9.25361 7.34155 9.03575C7.34155 8.8179 7.42809 8.60896 7.58214 8.45491C7.73619 8.30087 7.94512 8.21432 8.16298 8.21432H15.6072V2.87501C15.6064 2.11276 15.3032 1.38197 14.7642 0.842972C14.2252 0.30398 13.4944 0.000815387 12.7322 0H2.87501C2.11276 0.000815387 1.38196 0.30398 0.842972 0.842972C0.303979 1.38197 0.000815387 2.11276 0 2.87501V15.1965C0.000815387 15.9587 0.303979 16.6895 0.842972 17.2285C1.38196 17.7675 2.11276 18.0707 2.87501 18.0715H12.7322C13.4944 18.0707 14.2252 17.7675 14.7642 17.2285C15.3032 16.6895 15.6064 15.9587 15.6072 15.1965Z" fill="#FF912C" fill-opacity="0.53"/>
<path d="M20.1956 9.85716L17.4911 12.5622C17.3435 12.7175 17.2625 12.9243 17.2652 13.1385C17.268 13.3527 17.3543 13.5574 17.5057 13.7089C17.6572 13.8603 17.8619 13.9466 18.0761 13.9494C18.2903 13.9521 18.4971 13.8711 18.6524 13.7235L22.7595 9.61638C22.9135 9.46235 22.9999 9.2535 22.9999 9.03573C22.9999 8.81797 22.9135 8.60911 22.7595 8.45508L18.6524 4.34792C18.4971 4.20038 18.2903 4.11933 18.0761 4.12208C17.8619 4.12482 17.6572 4.21113 17.5057 4.3626C17.3543 4.51407 17.268 4.71873 17.2652 4.93293C17.2625 5.14712 17.3435 5.35392 17.4911 5.50922L20.1956 8.2143H15.6074V9.85716H20.1956Z" fill="#FF912C" fill-opacity="0.53"/>
</svg>
