<svg width="22" height="27" viewBox="0 0 22 27" fill="none" xmlns="http://www.w3.org/2000/svg">
<path d="M21.2196 6.7027C21.3986 6.88168 21.5 7.1233 21.5 7.37685V25.7727C21.5 26.3007 21.0734 26.7273 20.5455 26.7273H1.45455C0.926562 26.7273 0.5 26.3007 0.5 25.7727V0.954546C0.5 0.426563 0.926562 0 1.45455 0H14.1232C14.3767 0 14.6213 0.101421 14.8003 0.280398L21.2196 6.7027ZM19.2986 7.81534L13.6847 2.20142V7.81534H19.2986ZM5.27273 12.4688C5.20944 12.4688 5.14874 12.4939 5.10399 12.5386C5.05923 12.5834 5.03409 12.6441 5.03409 12.7074V14.1392C5.03409 14.2025 5.05923 14.2632 5.10399 14.3079C5.14874 14.3527 5.20944 14.3778 5.27273 14.3778H16.7273C16.7906 14.3778 16.8513 14.3527 16.896 14.3079C16.9408 14.2632 16.9659 14.2025 16.9659 14.1392V12.7074C16.9659 12.6441 16.9408 12.5834 16.896 12.5386C16.8513 12.4939 16.7906 12.4688 16.7273 12.4688H5.27273ZM5.27273 16.5256C5.20944 16.5256 5.14874 16.5507 5.10399 16.5955C5.05923 16.6402 5.03409 16.7009 5.03409 16.7642V18.196C5.03409 18.2593 5.05923 18.32 5.10399 18.3648C5.14874 18.4095 5.20944 18.4347 5.27273 18.4347H10.7614C10.8247 18.4347 10.8854 18.4095 10.9301 18.3648C10.9749 18.32 11 18.2593 11 18.196V16.7642C11 16.7009 10.9749 16.6402 10.9301 16.5955C10.8854 16.5507 10.8247 16.5256 10.7614 16.5256H5.27273Z" fill="#FCB26E"/>
</svg>
