<svg width="40" height="40" viewBox="0 0 40 40" fill="none" xmlns="http://www.w3.org/2000/svg">
<path d="M39.3103 20.6897V19.1821L35.8628 10.2179C36.6641 9.9331 37.2414 9.17517 37.2414 8.27586C37.2414 7.1331 36.3152 6.2069 35.1724 6.2069C34.1 6.2069 33.2283 7.02621 33.1241 8.07103L23.2228 7.08069C22.9221 6.26966 22.3276 5.61103 21.5655 5.22L20 0L18.4338 5.22C17.6717 5.61172 17.0779 6.27035 16.7766 7.08069L6.87586 8.07103C6.77172 7.02621 5.9 6.2069 4.82759 6.2069C3.68483 6.2069 2.75862 7.1331 2.75862 8.27586C2.75862 9.17517 3.33586 9.9331 4.13724 10.2179L0.689655 19.1821V20.6897H0V22.7586C0 23.5207 0.617241 24.1379 1.37931 24.1379H8.27586C9.03793 24.1379 9.65517 23.5207 9.65517 22.7586V20.6897H8.96552V19.1821L5.51793 10.2179C6.25655 9.95517 6.79517 9.28828 6.87586 8.48069L16.7772 9.47103C17.1034 10.349 17.7676 11.06 18.6207 11.4331V35.1724H13.7931L11.7241 37.2414V40H28.2759V37.2414L26.2069 35.1724H21.3793V11.4331C22.2331 11.0593 22.8972 10.349 23.2228 9.47103L33.1241 8.48069C33.2048 9.28897 33.7435 9.95517 34.4821 10.2179L31.0345 19.1821V20.6897H30.3448V22.7586C30.3448 23.5207 30.9621 24.1379 31.7241 24.1379H38.6207C39.3828 24.1379 40 23.5207 40 22.7586V20.6897H39.3103ZM7.58621 20.6897H2.06897V19.4386L4.82759 12.2669L7.58621 19.4386V20.6897ZM32.4138 20.6897V19.4386L35.1724 12.2669L37.931 19.4386V20.6897H32.4138Z" fill="#EC11FF"/>
</svg>
