<svg width="25" height="25" viewBox="0 0 25 25" fill="none" xmlns="http://www.w3.org/2000/svg">
<path d="M12.5 0C10.0277 0 7.61099 0.733112 5.55538 2.10663C3.49976 3.48015 1.89761 5.43238 0.951511 7.71645C0.00541605 10.0005 -0.242126 12.5139 0.24019 14.9386C0.722505 17.3634 1.91301 19.5907 3.66117 21.3388C5.40933 23.087 7.63661 24.2775 10.0614 24.7598C12.4861 25.2421 14.9995 24.9946 17.2835 24.0485C19.5676 23.1024 21.5199 21.5002 22.8934 19.4446C24.2669 17.389 25 14.9723 25 12.5C25 10.8585 24.6767 9.23302 24.0485 7.71645C23.4203 6.19988 22.4996 4.8219 21.3388 3.66116C20.1781 2.50043 18.8001 1.57969 17.2835 0.951506C15.767 0.323322 14.1415 0 12.5 0ZM12.5 22.5C10.5222 22.5 8.58879 21.9135 6.9443 20.8147C5.29981 19.7159 4.01809 18.1541 3.26121 16.3268C2.50433 14.4996 2.3063 12.4889 2.69215 10.5491C3.078 8.60928 4.03041 6.82746 5.42894 5.42893C6.82746 4.03041 8.60929 3.078 10.5491 2.69215C12.4889 2.30629 14.4996 2.50433 16.3268 3.2612C18.1541 4.01808 19.7159 5.2998 20.8147 6.9443C21.9135 8.58879 22.5 10.5222 22.5 12.5C22.5 15.1522 21.4464 17.6957 19.5711 19.5711C17.6957 21.4464 15.1522 22.5 12.5 22.5Z" fill="#FCB26E"/>
<path d="M12.4998 5.00001C11.3394 5.00001 10.2266 5.46094 9.40616 6.28142C8.58569 7.10189 8.12476 8.21468 8.12476 9.37501C8.12476 9.70653 8.25645 10.0245 8.49087 10.2589C8.72529 10.4933 9.04323 10.625 9.37476 10.625C9.70628 10.625 10.0242 10.4933 10.2586 10.2589C10.4931 10.0245 10.6248 9.70653 10.6248 9.37501C10.6248 9.00417 10.7347 8.64166 10.9407 8.33331C11.1468 8.02497 11.4396 7.78465 11.7822 7.64273C12.1248 7.50082 12.5018 7.46369 12.8655 7.53603C13.2293 7.60838 13.5634 7.78696 13.8256 8.04918C14.0878 8.31141 14.2664 8.6455 14.3387 9.00921C14.4111 9.37293 14.3739 9.74993 14.232 10.0925C14.0901 10.4351 13.8498 10.728 13.5414 10.934C13.2331 11.14 12.8706 11.25 12.4998 11.25C12.1682 11.25 11.8503 11.3817 11.6159 11.6161C11.3815 11.8505 11.2498 12.1685 11.2498 12.5V15C11.2498 15.3315 11.3815 15.6495 11.6159 15.8839C11.8503 16.1183 12.1682 16.25 12.4998 16.25C12.8313 16.25 13.1492 16.1183 13.3836 15.8839C13.6181 15.6495 13.7498 15.3315 13.7498 15V13.55C14.7599 13.255 15.6293 12.6048 16.1979 11.7193C16.7664 10.8338 16.9957 9.77259 16.8434 8.73134C16.6912 7.69009 16.1677 6.73895 15.3695 6.05324C14.5713 5.36754 13.5521 4.99348 12.4998 5.00001Z" fill="#FCB26E"/>
<path d="M12.4998 20C13.1901 20 13.7498 19.4403 13.7498 18.75C13.7498 18.0596 13.1901 17.5 12.4998 17.5C11.8094 17.5 11.2498 18.0596 11.2498 18.75C11.2498 19.4403 11.8094 20 12.4998 20Z" fill="#FCB26E"/>
</svg>
