<svg width="43" height="39" viewBox="0 0 43 39" fill="none" xmlns="http://www.w3.org/2000/svg">
<path d="M41.6136 15.5233H1.21034C0.541881 15.5233 0 16.0652 0 16.7336V37.2305C0 37.8989 0.541881 38.4408 1.21034 38.4408H41.6136C42.2821 38.4408 42.8239 37.8989 42.8239 37.2305V16.7336C42.8239 16.0652 42.2821 15.5233 41.6136 15.5233Z" fill="#8FB5FF"/>
<path d="M36.8922 24.6147H35.4119C35.2514 24.6147 35.0975 24.551 34.984 24.4375C34.8705 24.324 34.8067 24.1701 34.8067 24.0096V20.0736C34.8067 19.9131 34.8705 19.7592 34.984 19.6457C35.0975 19.5322 35.2514 19.4684 35.4119 19.4684H36.8922C37.0527 19.4684 37.2066 19.5322 37.3201 19.6457C37.4336 19.7592 37.4973 19.9131 37.4973 20.0736V24.0096C37.4973 24.1701 37.4336 24.324 37.3201 24.4375C37.2066 24.551 37.0527 24.6147 36.8922 24.6147ZM41.3759 24.0096V20.0736C41.3759 19.9131 41.3121 19.7592 41.1986 19.6457C41.0851 19.5322 40.9312 19.4684 40.7707 19.4684H39.2905C39.13 19.4684 38.9761 19.5322 38.8626 19.6457C38.7491 19.7592 38.6853 19.9131 38.6853 20.0736V24.0096C38.6853 24.1701 38.7491 24.324 38.8626 24.4375C38.9761 24.551 39.13 24.6147 39.2905 24.6147H40.7707C40.9312 24.6147 41.0851 24.551 41.1986 24.4375C41.3121 24.324 41.3759 24.1701 41.3759 24.0096ZM4.381 24.0096V20.0736C4.381 19.9131 4.31725 19.7592 4.20375 19.6457C4.09026 19.5322 3.93633 19.4684 3.77583 19.4684H2.2956C2.1351 19.4684 1.98117 19.5322 1.86768 19.6457C1.75419 19.7592 1.69043 19.9131 1.69043 20.0736V24.0096C1.69043 24.1701 1.75419 24.324 1.86768 24.4375C1.98117 24.551 2.1351 24.6147 2.2956 24.6147H3.77583C3.85531 24.6147 3.934 24.5991 4.00742 24.5687C4.08085 24.5383 4.14756 24.4937 4.20375 24.4375C4.25995 24.3813 4.30453 24.3146 4.33494 24.2412C4.36535 24.1677 4.381 24.089 4.381 24.0096ZM8.25956 24.0096V20.0736C8.25956 19.9131 8.19581 19.7592 8.08231 19.6457C7.96882 19.5322 7.81489 19.4684 7.65439 19.4684H6.17424C6.01374 19.4684 5.85982 19.5322 5.74632 19.6457C5.63283 19.7592 5.56907 19.9131 5.56907 20.0736V24.0096C5.56907 24.1701 5.63283 24.324 5.74632 24.4375C5.85982 24.551 6.01374 24.6147 6.17424 24.6147H7.65448C7.81496 24.6147 7.96887 24.5509 8.08234 24.4375C8.19582 24.324 8.25956 24.1701 8.25956 24.0096ZM4.381 28.6912V27.3764C4.381 27.2969 4.36535 27.2183 4.33494 27.1448C4.30453 27.0714 4.25995 27.0047 4.20375 26.9485C4.14756 26.8923 4.08085 26.8477 4.00742 26.8173C3.934 26.7869 3.85531 26.7712 3.77583 26.7712H2.2956C2.1351 26.7712 1.98117 26.835 1.86768 26.9485C1.75419 27.062 1.69043 27.2159 1.69043 27.3764V28.6912C1.69043 28.8517 1.75419 29.0056 1.86768 29.1191C1.98117 29.2326 2.1351 29.2963 2.2956 29.2963H3.77583C3.85531 29.2963 3.934 29.2807 4.00742 29.2503C4.08085 29.2199 4.14756 29.1753 4.20375 29.1191C4.25995 29.0629 4.30453 28.9962 4.33494 28.9227C4.36535 28.8493 4.381 28.7706 4.381 28.6912ZM8.25956 28.6912V27.3764C8.25956 27.2159 8.19581 27.062 8.08231 26.9485C7.96882 26.835 7.81489 26.7712 7.65439 26.7712H6.17424C6.01374 26.7712 5.85982 26.835 5.74632 26.9485C5.63283 27.062 5.56907 27.2159 5.56907 27.3764V28.6912C5.56907 28.8517 5.63283 29.0056 5.74632 29.1191C5.85982 29.2326 6.01374 29.2963 6.17424 29.2963H7.65448C7.81496 29.2963 7.96887 29.2325 8.08234 29.119C8.19582 29.0056 8.25956 28.8516 8.25956 28.6912ZM4.381 33.2329V31.9181C4.381 31.8387 4.36535 31.76 4.33494 31.6866C4.30453 31.6131 4.25995 31.5464 4.20375 31.4902C4.14756 31.434 4.08085 31.3895 4.00742 31.359C3.934 31.3286 3.85531 31.313 3.77583 31.313H2.2956C2.1351 31.313 1.98117 31.3767 1.86768 31.4902C1.75419 31.6037 1.69043 31.7576 1.69043 31.9181V33.2329C1.69043 33.3934 1.75419 33.5473 1.86768 33.6608C1.98117 33.7743 2.1351 33.8381 2.2956 33.8381H3.77583C3.85531 33.8381 3.934 33.8224 4.00742 33.792C4.08085 33.7616 4.14756 33.717 4.20375 33.6608C4.25995 33.6046 4.30453 33.5379 4.33494 33.4645C4.36535 33.391 4.381 33.3124 4.381 33.2329ZM8.25956 33.2329V31.9181C8.25956 31.7576 8.19581 31.6037 8.08231 31.4902C7.96882 31.3767 7.81489 31.313 7.65439 31.313H6.17424C6.01374 31.313 5.85982 31.3767 5.74632 31.4902C5.63283 31.6037 5.56907 31.7576 5.56907 31.9181V33.2329C5.56907 33.3934 5.63283 33.5473 5.74632 33.6608C5.85982 33.7743 6.01374 33.8381 6.17424 33.8381H7.65448C7.81496 33.838 7.96887 33.7743 8.08234 33.6608C8.19582 33.5473 8.25956 33.3934 8.25956 33.2329ZM37.4973 28.6912V27.3764C37.4973 27.2159 37.4336 27.062 37.3201 26.9485C37.2066 26.835 37.0527 26.7712 36.8922 26.7712H35.4119C35.2514 26.7712 35.0975 26.835 34.984 26.9485C34.8705 27.062 34.8067 27.2159 34.8067 27.3764V28.6912C34.8067 28.8517 34.8705 29.0056 34.984 29.1191C35.0975 29.2326 35.2514 29.2963 35.4119 29.2963H36.8922C37.0527 29.2963 37.2066 29.2326 37.3201 29.1191C37.4336 29.0056 37.4973 28.8517 37.4973 28.6912ZM41.3759 28.6912V27.3764C41.3759 27.2159 41.3121 27.062 41.1986 26.9485C41.0851 26.835 40.9312 26.7712 40.7707 26.7712H39.2905C39.13 26.7712 38.9761 26.835 38.8626 26.9485C38.7491 27.062 38.6853 27.2159 38.6853 27.3764V28.6912C38.6853 28.8517 38.7491 29.0056 38.8626 29.1191C38.9761 29.2326 39.13 29.2963 39.2905 29.2963H40.7707C40.9312 29.2963 41.0851 29.2326 41.1986 29.1191C41.3121 29.0056 41.3759 28.8517 41.3759 28.6912ZM37.4973 33.2329V31.9181C37.4973 31.7576 37.4336 31.6037 37.3201 31.4902C37.2066 31.3767 37.0527 31.313 36.8922 31.313H35.4119C35.2514 31.313 35.0975 31.3767 34.984 31.4902C34.8705 31.6037 34.8067 31.7576 34.8067 31.9181V33.2329C34.8067 33.3934 34.8705 33.5473 34.984 33.6608C35.0975 33.7743 35.2514 33.8381 35.4119 33.8381H36.8922C37.0527 33.8381 37.2066 33.7743 37.3201 33.6608C37.4336 33.5473 37.4973 33.3934 37.4973 33.2329ZM41.3759 33.2329V31.9181C41.3759 31.7576 41.3121 31.6037 41.1986 31.4902C41.0851 31.3767 40.9312 31.313 40.7707 31.313H39.2905C39.13 31.313 38.9761 31.3767 38.8626 31.4902C38.7491 31.6037 38.6853 31.7576 38.6853 31.9181V33.2329C38.6853 33.3934 38.7491 33.5473 38.8626 33.6608C38.9761 33.7743 39.13 33.8381 39.2905 33.8381H40.7707C40.9312 33.8381 41.0851 33.7743 41.1986 33.6608C41.3121 33.5473 41.3759 33.3934 41.3759 33.2329Z" fill="#636365"/>
<path d="M32.4729 1.4808H10.9298C10.5819 1.4808 10.2998 1.88728 10.2998 2.38865V37.5329C10.2998 38.0342 10.5819 38.4407 10.9298 38.4407H32.4729C32.8208 38.4407 33.1029 38.0342 33.1029 37.5329V2.38873C33.1029 1.88728 32.8209 1.4808 32.4729 1.4808Z" fill="#C8CAFF"/>
<path d="M14.5476 22.0373H12.6992C12.5387 22.0373 12.3847 21.9735 12.2712 21.8601C12.1578 21.7466 12.094 21.5926 12.094 21.4321V16.7918C12.094 16.6313 12.1578 16.4774 12.2712 16.3639C12.3847 16.2504 12.5387 16.1866 12.6992 16.1866H14.5476C14.7081 16.1866 14.8621 16.2504 14.9755 16.3639C15.089 16.4774 15.1528 16.6313 15.1528 16.7918V21.4321C15.1528 21.5926 15.089 21.7466 14.9755 21.8601C14.8621 21.9735 14.7081 22.0373 14.5476 22.0373ZM19.5621 21.4321V16.7918C19.5621 16.6313 19.4984 16.4774 19.3849 16.3639C19.2714 16.2504 19.1175 16.1866 18.957 16.1866H17.1085C16.948 16.1866 16.7941 16.2504 16.6806 16.3639C16.5671 16.4774 16.5033 16.6313 16.5033 16.7918V21.4321C16.5033 21.5926 16.5671 21.7466 16.6806 21.8601C16.7941 21.9735 16.948 22.0373 17.1085 22.0373H18.957C19.1175 22.0373 19.2714 21.9735 19.3849 21.8601C19.4984 21.7466 19.5621 21.5926 19.5621 21.4321ZM26.7924 21.4321V16.7918C26.7924 16.6313 26.7287 16.4774 26.6152 16.3639C26.5017 16.2504 26.3478 16.1866 26.1873 16.1866H24.3389C24.1784 16.1866 24.0244 16.2504 23.911 16.3639C23.7975 16.4774 23.7337 16.6313 23.7337 16.7918V21.4321C23.7337 21.5926 23.7975 21.7466 23.911 21.8601C24.0244 21.9735 24.1784 22.0373 24.3389 22.0373H26.1873C26.3478 22.0373 26.5017 21.9735 26.6152 21.8601C26.7287 21.7466 26.7924 21.5926 26.7924 21.4321ZM31.2019 21.4321V16.7918C31.2019 16.6313 31.1381 16.4774 31.0246 16.3639C30.9111 16.2504 30.7572 16.1866 30.5967 16.1866H28.7482C28.5877 16.1866 28.4338 16.2504 28.3203 16.3639C28.2068 16.4774 28.1431 16.6313 28.1431 16.7918V21.4321C28.1431 21.5926 28.2068 21.7466 28.3203 21.8601C28.4338 21.9735 28.5877 22.0373 28.7482 22.0373H30.5967C30.7572 22.0373 30.9111 21.9735 31.0246 21.8601C31.1381 21.7466 31.2019 21.5926 31.2019 21.4321ZM15.1528 26.3734V25.0587C15.1528 24.8982 15.089 24.7443 14.9755 24.6308C14.8621 24.5173 14.7081 24.4535 14.5476 24.4535H12.6992C12.5387 24.4535 12.3847 24.5173 12.2712 24.6308C12.1578 24.7443 12.094 24.8982 12.094 25.0587V26.3734C12.094 26.5339 12.1578 26.6879 12.2712 26.8014C12.3847 26.9149 12.5387 26.9786 12.6992 26.9786H14.5476C14.7081 26.9786 14.8621 26.9149 14.9755 26.8014C15.089 26.6879 15.1528 26.5339 15.1528 26.3734ZM19.5621 26.3734V25.0587C19.5621 24.8982 19.4984 24.7443 19.3849 24.6308C19.2714 24.5173 19.1175 24.4535 18.957 24.4535H17.1085C16.948 24.4535 16.7941 24.5173 16.6806 24.6308C16.5671 24.7443 16.5033 24.8982 16.5033 25.0587V26.3734C16.5033 26.5339 16.5671 26.6879 16.6806 26.8014C16.7941 26.9149 16.948 26.9786 17.1085 26.9786H18.957C19.1175 26.9786 19.2714 26.9149 19.3849 26.8014C19.4984 26.6879 19.5621 26.5339 19.5621 26.3734ZM26.7924 26.3734V25.0587C26.7924 24.8982 26.7287 24.7443 26.6152 24.6308C26.5017 24.5173 26.3478 24.4535 26.1873 24.4535H24.3389C24.1784 24.4535 24.0244 24.5173 23.911 24.6308C23.7975 24.7443 23.7337 24.8982 23.7337 25.0587V26.3734C23.7337 26.5339 23.7975 26.6879 23.911 26.8014C24.0244 26.9149 24.1784 26.9786 24.3389 26.9786H26.1873C26.3478 26.9786 26.5017 26.9149 26.6152 26.8014C26.7287 26.6879 26.7924 26.5339 26.7924 26.3734ZM31.2019 26.3734V25.0587C31.2019 24.8982 31.1381 24.7443 31.0246 24.6308C30.9111 24.5173 30.7572 24.4535 30.5967 24.4535H28.7482C28.5877 24.4535 28.4338 24.5173 28.3203 24.6308C28.2068 24.7443 28.1431 24.8982 28.1431 25.0587V26.3734C28.1431 26.5339 28.2068 26.6879 28.3203 26.8014C28.4338 26.9149 28.5877 26.9786 28.7482 26.9786H30.5967C30.7572 26.9786 30.9111 26.9149 31.0246 26.8014C31.1381 26.6879 31.2019 26.5339 31.2019 26.3734ZM15.1528 31.2448V29.9301C15.1528 29.7696 15.089 29.6157 14.9755 29.5022C14.8621 29.3887 14.7081 29.3249 14.5476 29.3249H12.6992C12.5387 29.3249 12.3847 29.3887 12.2712 29.5022C12.1578 29.6157 12.094 29.7696 12.094 29.9301V31.2448C12.094 31.4053 12.1578 31.5592 12.2712 31.6727C12.3847 31.7862 12.5387 31.85 12.6992 31.85H14.5476C14.7081 31.85 14.8621 31.7862 14.9755 31.6727C15.089 31.5592 15.1528 31.4053 15.1528 31.2448ZM31.2019 31.2448V29.9301C31.2019 29.7696 31.1381 29.6157 31.0246 29.5022C30.9111 29.3887 30.7572 29.3249 30.5967 29.3249H28.7482C28.5877 29.3249 28.4338 29.3887 28.3203 29.5022C28.2068 29.6157 28.1431 29.7696 28.1431 29.9301V31.2448C28.1431 31.4053 28.2068 31.5592 28.3203 31.6727C28.4338 31.7862 28.5877 31.85 28.7482 31.85H30.5967C30.7572 31.85 30.9111 31.7862 31.0246 31.6727C31.1381 31.5592 31.2019 31.4053 31.2019 31.2448ZM15.1528 35.6603V34.3456C15.1528 34.1851 15.089 34.0311 14.9755 33.9176C14.8621 33.8042 14.7081 33.7404 14.5476 33.7404H12.6992C12.5387 33.7404 12.3847 33.8042 12.2712 33.9176C12.1578 34.0311 12.094 34.1851 12.094 34.3456V35.6603C12.094 35.8208 12.1578 35.9747 12.2712 36.0882C12.3847 36.2017 12.5387 36.2655 12.6992 36.2655H14.5476C14.7081 36.2655 14.8621 36.2017 14.9755 36.0882C15.089 35.9747 15.1528 35.8208 15.1528 35.6603ZM31.2019 35.6603V34.3456C31.2019 34.1851 31.1381 34.0311 31.0246 33.9176C30.9111 33.8042 30.7572 33.7404 30.5967 33.7404H28.7482C28.5877 33.7404 28.4338 33.8042 28.3203 33.9176C28.2068 34.0311 28.1431 34.1851 28.1431 34.3456V35.6603C28.1431 35.8208 28.2068 35.9747 28.3203 36.0882C28.4338 36.2017 28.5877 36.2655 28.7482 36.2655H30.5967C30.7572 36.2655 30.9111 36.2017 31.0246 36.0882C31.1381 35.9747 31.2019 35.8208 31.2019 35.6603Z" fill="#636365"/>
<path d="M17.3152 29.4901H26.0873V38.4408H17.3152V29.4901Z" fill="#636365"/>
<path d="M21.7014 14.2286C24.3647 14.2286 26.5237 12.0696 26.5237 9.40627C26.5237 6.743 24.3647 4.58398 21.7014 4.58398C19.0382 4.58398 16.8792 6.743 16.8792 9.40627C16.8792 12.0696 19.0382 14.2286 21.7014 14.2286Z" fill="#FF473E"/>
<path d="M21.7014 13.1225C23.7538 13.1225 25.4176 11.4587 25.4176 9.40629C25.4176 7.35386 23.7538 5.69003 21.7014 5.69003C19.6489 5.69003 17.9851 7.35386 17.9851 9.40629C17.9851 11.4587 19.6489 13.1225 21.7014 13.1225Z" fill="#F4F3EF"/>
<path d="M26.7694 29.0019V29.9783C26.7694 30.1388 26.7056 30.2927 26.5922 30.4062C26.4787 30.5197 26.3247 30.5835 26.1642 30.5835H21.9686V38.4252H21.4338V30.5835H17.2383C17.0778 30.5835 16.9239 30.5197 16.8104 30.4062C16.6969 30.2927 16.6331 30.1388 16.6331 29.9783V29.0019C16.6331 28.8414 16.6969 28.6875 16.8104 28.574C16.9239 28.4605 17.0778 28.3967 17.2383 28.3967H26.1642C26.3247 28.3967 26.4787 28.4605 26.5922 28.574C26.7056 28.6875 26.7694 28.8414 26.7694 29.0019ZM33.6747 2.53489V1.46163C33.6747 1.30113 33.611 1.1472 33.4975 1.03371C33.384 0.920219 33.2301 0.856461 33.0696 0.856461H10.333C10.1725 0.856461 10.0185 0.920219 9.90503 1.03371C9.79154 1.1472 9.72778 1.30113 9.72778 1.46163V2.53489C9.72778 2.69539 9.79154 2.84932 9.90503 2.96281C10.0185 3.0763 10.1725 3.14006 10.333 3.14006H33.0696C33.2301 3.14006 33.384 3.0763 33.4975 2.96281C33.611 2.84932 33.6747 2.69539 33.6747 2.53489ZM24.6299 9.76156C24.6299 9.65404 24.5872 9.55093 24.5111 9.47491C24.4351 9.39889 24.332 9.35618 24.2245 9.35618H22.0418V7.00483C22.0418 6.89732 21.999 6.79421 21.923 6.71819C21.847 6.64216 21.7439 6.59945 21.6364 6.59945C21.5289 6.59945 21.4258 6.64216 21.3497 6.71819C21.2737 6.79421 21.231 6.89732 21.231 7.00483V9.76156C21.231 9.86907 21.2737 9.97218 21.3497 10.0482C21.4258 10.1242 21.5289 10.1669 21.6364 10.1669H24.2245C24.332 10.1669 24.4351 10.1242 24.5111 10.0482C24.5872 9.97218 24.6299 9.86907 24.6299 9.76156Z" fill="#636365"/>
</svg>
