<svg width="26" height="26" viewBox="0 0 26 26" fill="none" xmlns="http://www.w3.org/2000/svg">
<path d="M13.7071 0.707107C13.3166 0.316583 12.6834 0.316583 12.2929 0.707107L0.707107 12.2929C0.316583 12.6834 0.316582 13.3166 0.707107 13.7071L1.46125 14.4613C1.85178 14.8518 2.48494 14.8518 2.87547 14.4613L3.71125 13.6255C4.34122 12.9955 5.41836 13.4417 5.41836 14.3326V25C5.41836 25.5523 5.86607 26 6.41836 26H19.5867C20.139 26 20.5867 25.5523 20.5867 25V14.3326C20.5867 13.4417 21.6639 12.9955 22.2938 13.6255L23.1288 14.4604C23.5196 14.8513 24.1534 14.8509 24.5438 14.4596L25.2945 13.7071C25.6843 13.3164 25.6839 12.6839 25.2937 12.2937L13.7071 0.707107ZM11.9184 21.75C11.9184 22.3023 11.4706 22.75 10.9184 22.75H9.66836C9.11607 22.75 8.66836 22.3023 8.66836 21.75V20.5C8.66836 19.9477 9.11607 19.5 9.66836 19.5H10.9184C11.4706 19.5 11.9184 19.9477 11.9184 20.5V21.75ZM11.9184 16.3316C11.9184 16.8839 11.4706 17.3316 10.9184 17.3316H9.66836C9.11607 17.3316 8.66836 16.8839 8.66836 16.3316V15.0816C8.66836 14.5294 9.11607 14.0816 9.66836 14.0816H10.9184C11.4706 14.0816 11.9184 14.5294 11.9184 15.0816V16.3316ZM17.3316 21.75C17.3316 22.3023 16.8839 22.75 16.3316 22.75H15.0816C14.5294 22.75 14.0816 22.3023 14.0816 21.75V20.5C14.0816 19.9477 14.5294 19.5 15.0816 19.5H16.3316C16.8839 19.5 17.3316 19.9477 17.3316 20.5V21.75ZM17.3316 16.3316C17.3316 16.8839 16.8839 17.3316 16.3316 17.3316H15.0816C14.5294 17.3316 14.0816 16.8839 14.0816 16.3316V15.0816C14.0816 14.5294 14.5294 14.0816 15.0816 14.0816H16.3316C16.8839 14.0816 17.3316 14.5294 17.3316 15.0816V16.3316ZM21.6684 0.999999C21.6684 0.447714 21.2206 0 20.6684 0H19.4184C18.8661 0 18.4184 0.447715 18.4184 1V1.75415C18.4184 2.01936 18.5237 2.27372 18.7113 2.46125L19.9613 3.71125C20.5912 4.34122 21.6684 3.89505 21.6684 3.00415V0.999999Z" fill="#FCB26E"/>
</svg>
