<svg width="17" height="18" viewBox="0 0 17 18" fill="none" xmlns="http://www.w3.org/2000/svg">
<path d="M1.77082 7.875C0.79475 7.875 0 8.7165 0 9.74999V15.75C0 16.7835 0.79475 17.625 1.77082 17.625H3.89582C4.29462 17.625 4.66152 17.4825 4.95832 17.2455V7.875H1.77082Z" fill="#2C7EF8"/>
<path d="M17.0001 10.6875C17.0001 10.2368 16.8315 9.81674 16.5389 9.50698C16.8697 9.12374 17.0383 8.60996 16.9923 8.07524C16.9094 7.12198 16.0983 6.37498 15.1449 6.37498H10.7696C10.9863 5.67821 11.3334 4.40099 11.3334 3.37499C11.3334 1.74824 10.0279 0.375 9.20839 0.375C8.47245 0.375 7.94684 0.81375 7.9242 0.83175C7.84062 0.903012 7.79175 1.01101 7.79175 1.12499V3.66823L5.75175 8.34749L5.66675 8.39323V16.4317C6.24332 16.7197 6.97289 16.875 7.43757 16.875H13.9394C14.7107 16.875 15.3858 16.3245 15.5444 15.5647C15.6259 15.174 15.5784 14.7802 15.4162 14.4382C15.9397 14.1592 16.2917 13.5885 16.2917 12.9375C16.2917 12.672 16.2344 12.4177 16.1253 12.1875C16.6487 11.9085 17.0001 11.3377 17.0001 10.6875Z" fill="#2C7EF8"/>
</svg>
