<svg width="30" height="30" viewBox="0 0 30 30" fill="none" xmlns="http://www.w3.org/2000/svg">
<rect width="30" height="30" rx="2" fill="#FFFCFC" fill-opacity="0.02"/>
<path d="M7 12C7.55228 12 8 11.5523 8 11C8 10.4477 7.55228 10 7 10C6.44772 10 6 10.4477 6 11C6 11.5523 6.44772 12 7 12Z" fill="#FF912C"/>
<path d="M7 17C7.55228 17 8 16.5523 8 16C8 15.4477 7.55228 15 7 15C6.44772 15 6 15.4477 6 16C6 16.5523 6.44772 17 7 17Z" fill="#FF912C"/>
<path d="M7 22C7.55228 22 8 21.5523 8 21C8 20.4477 7.55228 20 7 20C6.44772 20 6 20.4477 6 21C6 21.5523 6.44772 22 7 22Z" fill="#FF912C"/>
<path d="M23.06 15H10.94C10.4209 15 10 15.4209 10 15.94V16.06C10 16.5791 10.4209 17 10.94 17H23.06C23.5791 17 24 16.5791 24 16.06V15.94C24 15.4209 23.5791 15 23.06 15Z" fill="#FF912C"/>
<path d="M23.06 20H10.94C10.4209 20 10 20.4209 10 20.94V21.06C10 21.5791 10.4209 22 10.94 22H23.06C23.5791 22 24 21.5791 24 21.06V20.94C24 20.4209 23.5791 20 23.06 20Z" fill="#FF912C"/>
<path d="M23.06 10H10.94C10.4209 10 10 10.4209 10 10.94V11.06C10 11.5791 10.4209 12 10.94 12H23.06C23.5791 12 24 11.5791 24 11.06V10.94C24 10.4209 23.5791 10 23.06 10Z" fill="#FF912C"/>
</svg>
