<svg width="190" height="190" viewBox="0 0 190 190" fill="none" xmlns="http://www.w3.org/2000/svg">
<circle cx="95" cy="95" r="95" fill="#FF912C"/>
<path d="M52.7474 119.564C51.3607 119.564 49.7141 119.499 47.8074 119.369C47.1141 119.326 46.2474 119.283 45.2074 119.239C44.2107 119.196 43.0841 119.174 41.8274 119.174L37.0174 119.239C36.1507 119.283 34.9807 119.304 33.5074 119.304C33.4207 119.304 33.3774 119.174 33.3774 118.914C33.3774 118.654 33.4207 118.524 33.5074 118.524C34.8941 118.524 35.9124 118.416 36.5624 118.199C37.2124 117.983 37.6457 117.571 37.8624 116.964C38.1224 116.314 38.2524 115.339 38.2524 114.039V83.9443C38.2524 82.6444 38.1224 81.691 37.8624 81.0844C37.6457 80.4777 37.2124 80.066 36.5624 79.8493C35.9557 79.5893 34.9807 79.4593 33.6374 79.4593C33.5074 79.4593 33.4424 79.3293 33.4424 79.0694C33.4424 78.8094 33.5074 78.6794 33.6374 78.6794L37.0824 78.7444C39.0757 78.831 40.6574 78.8743 41.8274 78.8743C43.6041 78.8743 45.4241 78.8094 47.2874 78.6794C49.5407 78.5927 51.0574 78.5493 51.8374 78.5493C56.2141 78.5493 60.0924 79.416 63.4724 81.1494C66.8957 82.8827 69.5391 85.2443 71.4024 88.2344C73.2657 91.2244 74.1974 94.5827 74.1974 98.3094C74.1974 102.513 73.2224 106.239 71.2724 109.489C69.3657 112.696 66.7657 115.188 63.4724 116.964C60.2224 118.698 56.6474 119.564 52.7474 119.564ZM52.0974 118.069C54.8707 118.069 57.3191 117.376 59.4424 115.989C61.5657 114.559 63.2124 112.458 64.3824 109.684C65.5957 106.911 66.2024 103.596 66.2024 99.7393C66.2024 96.056 65.6391 92.7194 64.5124 89.7294C63.3857 86.696 61.7824 84.3127 59.7024 82.5794C57.6224 80.846 55.2174 79.9794 52.4874 79.9794C49.8007 79.9794 47.9591 80.2393 46.9624 80.7593C45.9657 81.2793 45.4674 82.3843 45.4674 84.0743V113.324C45.4674 115.058 45.9224 116.293 46.8324 117.029C47.7424 117.723 49.4974 118.069 52.0974 118.069ZM124.512 118.524C124.686 118.568 124.751 118.719 124.707 118.979C124.707 119.196 124.642 119.304 124.512 119.304H113.852C112.639 119.304 110.559 118.243 107.612 116.119C104.362 118.763 100.224 120.084 95.1975 120.084C92.2075 120.084 89.6942 119.651 87.6575 118.784C85.6208 117.918 84.1042 116.769 83.1075 115.339C82.1108 113.909 81.6125 112.393 81.6125 110.789C81.6125 108.709 82.3275 106.846 83.7575 105.199C85.1875 103.553 87.3542 101.646 90.2575 99.4794C89.5642 98.5694 88.8925 97.5294 88.2425 96.3594C87.6358 95.146 87.1592 93.9977 86.8125 92.9144C86.5092 91.831 86.3575 90.6394 86.3575 89.3394C86.3575 85.8293 87.4625 82.9477 89.6725 80.6943C91.9258 78.441 94.9808 77.3144 98.8375 77.3144C101.524 77.3144 103.647 77.8994 105.207 79.0694C106.767 80.196 107.547 81.7777 107.547 83.8144C107.547 85.5044 107.049 87.0643 106.052 88.4943C105.099 89.881 103.994 91.051 102.737 92.0044C101.481 92.9577 99.5308 94.3227 96.8875 96.0994C100.007 100.736 104.362 105.286 109.952 109.749C110.342 108.233 110.537 106.521 110.537 104.614C110.537 102.101 110.126 100.281 109.302 99.1544C108.479 97.9844 107.136 97.3994 105.272 97.3994C105.186 97.3994 105.121 97.2694 105.077 97.0094C105.077 96.7494 105.142 96.6194 105.272 96.6194L120.742 96.5544C120.872 96.5544 120.937 96.6844 120.937 96.9444C120.937 97.2044 120.872 97.3343 120.742 97.3343C119.442 97.3343 118.467 97.486 117.817 97.7893C117.211 98.0494 116.734 98.5044 116.387 99.1544C116.084 99.8044 115.737 100.844 115.347 102.274C114.871 104.008 114.372 105.589 113.852 107.019C113.332 108.449 112.661 109.836 111.837 111.179C114.654 113.303 117.146 114.971 119.312 116.184C121.522 117.398 123.256 118.178 124.512 118.524ZM92.4675 83.7493C92.4675 87.1294 93.6592 90.791 96.0425 94.7344C99.1192 91.7444 100.657 88.5593 100.657 85.1793C100.657 83.2727 100.202 81.7777 99.2925 80.6943C98.4258 79.611 97.2775 79.0694 95.8475 79.0694C94.6342 79.0694 93.7675 79.4594 93.2475 80.2394C92.7275 81.0194 92.4675 82.1894 92.4675 83.7493ZM100.202 116.899C102.716 116.899 104.796 116.336 106.442 115.209C105.749 114.733 104.817 114.018 103.647 113.064C101.437 111.288 99.2058 109.316 96.9525 107.149C94.7425 104.939 92.7925 102.773 91.1025 100.649C89.1525 102.686 88.1775 104.831 88.1775 107.084C88.1775 108.774 88.6542 110.378 89.6075 111.894C90.6042 113.368 92.0125 114.581 93.8325 115.534C95.6525 116.444 97.7758 116.899 100.202 116.899ZM147.316 96.4894C150.956 96.9227 153.837 98.136 155.961 100.129C158.127 102.123 159.211 104.593 159.211 107.539C159.211 109.793 158.561 111.829 157.261 113.649C155.961 115.469 154.162 116.921 151.866 118.004C149.569 119.044 147.012 119.564 144.196 119.564C142.982 119.564 141.596 119.499 140.036 119.369C139.429 119.326 138.671 119.283 137.761 119.239C136.894 119.196 135.919 119.174 134.836 119.174L130.091 119.239C129.224 119.283 128.054 119.304 126.581 119.304C126.451 119.304 126.386 119.174 126.386 118.914C126.386 118.654 126.451 118.524 126.581 118.524C127.837 118.524 128.791 118.416 129.441 118.199C130.091 117.939 130.546 117.506 130.806 116.899C131.109 116.249 131.261 115.296 131.261 114.039V83.9443C131.261 82.1244 130.957 80.9327 130.351 80.3693C129.744 79.7627 128.509 79.4593 126.646 79.4593C126.559 79.4593 126.516 79.3293 126.516 79.0694C126.516 78.8094 126.559 78.6794 126.646 78.6794L130.091 78.7444C132.084 78.831 133.666 78.8743 134.836 78.8743C136.049 78.8743 137.306 78.8094 138.606 78.6794C139.039 78.636 139.689 78.5927 140.556 78.5493C141.422 78.506 142.181 78.4844 142.831 78.4844C146.774 78.4844 149.829 79.1994 151.996 80.6293C154.162 82.0593 155.246 84.1393 155.246 86.8694C155.246 88.9494 154.552 90.8343 153.166 92.5243C151.822 94.2144 149.872 95.536 147.316 96.4894ZM141.856 79.9144C140.599 79.9144 139.732 80.2177 139.256 80.8244C138.779 81.3877 138.541 82.471 138.541 84.0743V96.4243L141.141 96.4894C143.394 96.4894 145.127 95.6444 146.341 93.9544C147.554 92.2644 148.161 90.0977 148.161 87.4544C148.161 84.9843 147.619 83.121 146.536 81.8643C145.452 80.5644 143.892 79.9144 141.856 79.9144ZM143.091 117.939C148.767 117.939 151.606 114.993 151.606 109.099C151.606 105.763 150.804 103.119 149.201 101.169C147.597 99.2194 145.171 98.2444 141.921 98.2444C140.664 98.2444 139.537 98.2877 138.541 98.3744V114.039C138.541 115.469 138.822 116.488 139.386 117.094C139.949 117.658 141.184 117.939 143.091 117.939Z" fill="black"/>
</svg>
