<svg width="80" height="78" viewBox="0 0 80 78">
<path d="M23.9251 20.6455V63.698L33.6424 55.3756V12.3231H32.378L31.7051 12.8238H25.3172L25.3152 12.3147L24.2644 12.3231L14.5466 20.645H23.9246L23.9251 20.6455Z" fill="#DDB95D"/>
<path d="M15.8855 20.6455H22.8218L31.705 12.8238H24.7688L15.8855 20.6455Z" fill="white"/>
<path d="M26.3803 18.5428L25.2295 18.5256L22.8222 20.6455H15.8859L18.4064 18.4257L17.1597 18.4077L14.5469 20.6455V63.698H23.9248L26.3798 61.5956V18.5428H26.3803Z" fill="#6919A9"/>
<path d="M39.0133 20.6455V63.698L48.7303 55.3756V12.3231V12.3226H47.4659L46.7934 12.8242H40.4061L40.4041 12.315L39.3528 12.3226L29.635 20.645H39.013H39.0134V20.6455H39.0133Z" fill="#B47878"/>
<path d="M30.9739 20.6455H37.91L46.7933 12.8238H39.8572L30.9739 20.6455Z" fill="white"/>
<path d="M41.4683 18.5428L40.3175 18.5256L37.9102 20.6455H30.9741L33.4945 18.4257L32.2478 18.4077L29.635 20.6455V63.698H39.013L41.468 61.5956V18.5428H41.4683Z" fill="#6919A9"/>
<path d="M59.5221 10.7935L52.3272 21.2725L63.6857 62.8761L70.8805 52.3971L59.5221 10.7935L58.3004 11.1109L57.7824 11.7634L51.6097 13.3654L51.4736 12.8743L50.46 13.1456L43.2649 23.6246L52.3269 21.2725L59.5221 10.7935Z" fill="#E29C5B"/>
<path d="M44.5583 23.289L51.2613 21.5495L57.7819 11.7634L51.0794 13.5028L44.5585 23.2894V23.289H44.5583Z" fill="white"/>
<path d="M54.1451 18.6248L53.0282 18.8973L51.2613 21.5495L44.5588 23.2889L46.4093 20.5122L45.1999 20.8071L43.2654 23.625L54.6238 65.2286L63.6863 62.8765L65.504 60.2296L54.1455 18.6252L54.1451 18.6248Z" fill="#6919A9"/>
<path d="M61.6265 22.3578L61.056 20.2411L57.0354 26.6507L57.6056 28.7674L61.6265 22.3575V22.3578Z" fill="white"/>
<path d="M59.4549 21.1558L59.1521 19.7805L56.4385 24.1069L56.7418 25.4819L59.4553 21.156H59.4549V21.1558Z" fill="white"/>
</svg>
