<svg width="131" height="87" viewBox="0 0 131 87" fill="none" xmlns="http://www.w3.org/2000/svg">
<rect width="131" height="87" fill="#C4C4C4" fill-opacity="0.01"/>
<path d="M99 38.5042C99 38.8735 98.9881 39.2319 98.9643 39.5903C98.8218 44.1256 97.5828 48.576 95.3359 52.623C94.9433 53.3615 94.5031 54.0892 94.0391 54.7951C87.7997 64.2463 76.5876 70.0176 64.5 69.9999C61.1849 70.0056 57.8867 69.5702 54.7091 68.7075C46.4582 66.4771 39.4161 61.5159 34.9609 54.7951C34.4969 54.0892 34.0567 53.3615 33.6641 52.623C31.4172 48.576 30.1782 44.1256 30.0357 39.5903C30.0119 39.2319 30 38.8735 30 38.5042C30 38.135 30.0119 37.7766 30.0357 37.4182C30.1988 32.4702 31.6549 27.6295 34.2828 23.2994C34.7229 22.5609 35.1988 21.8332 35.7222 21.1273C40.2022 14.9466 46.9249 10.4051 54.7091 8.30091L54.721 8.29005C69.2668 4.37305 84.9094 9.58116 93.2778 21.1273C93.8012 21.8332 94.2771 22.5609 94.7172 23.2994C97.3451 27.6295 98.8012 32.4702 98.9643 37.4182C98.9881 37.7766 99 38.135 99 38.5042Z" fill="#57B7EB"/>
<path d="M88.1146 52.623C89.4423 49.112 90.2583 45.4568 90.5415 41.7515L88.1741 41.5995C87.8882 45.3668 87.019 49.0782 85.5925 52.623H76.3489C76.8746 49.7651 77.2241 46.8825 77.3958 43.9888L75.0284 43.8585C74.8415 46.7967 74.4721 49.7229 73.922 52.623H65.6896V46.1066H63.3103V52.623H55.0779C54.5911 50.0741 54.2496 47.504 54.0547 44.9228L51.6754 45.0857C51.8777 47.6271 52.2108 50.1685 52.6629 52.623H43.4549C42.6777 50.7555 42.0651 48.8343 41.6229 46.8777V41.7624H39.2435V46.9863C39.2456 47.0592 39.2535 47.1318 39.2673 47.2035C39.6749 49.0429 40.2235 50.8538 40.9091 52.623H33.6641C34.0566 53.3615 34.4968 54.0892 34.9608 54.7951H41.8251C44.7635 61.1051 49.3199 65.9924 54.7091 68.7075C57.8866 69.5702 61.1849 70.0056 64.4999 69.9999C67.8679 70.0009 71.2182 69.5546 74.4454 68.6749C79.8346 65.9381 84.3196 61.0508 87.1985 54.7951H94.0391C94.503 54.0892 94.9432 53.3615 95.3358 52.623H88.1146ZM44.4423 54.7951H53.103C54.3165 60.2471 56.1961 65.0366 58.7063 67.9907C52.8175 66.0793 47.702 61.3223 44.4423 54.7951V54.7951ZM63.3103 68.6641C60.4432 67.578 57.3977 62.6799 55.5418 54.7951H63.3103V68.6641ZM65.6896 68.6641V54.7951H73.4699C71.626 62.7016 68.5923 67.5889 65.6896 68.6641ZM70.1627 68.0559C72.5896 65.2539 74.6001 60.649 75.9087 54.7951H84.617C81.3692 61.3766 76.2061 66.1879 70.1627 68.0559Z" fill="#3B97D3"/>
<path d="M94.717 23.2996C94.2768 22.5611 93.8009 21.8335 93.2775 21.1275H86.6154C84.0796 15.7665 79.7537 11.2736 74.2549 8.2903C67.878 6.58157 61.0976 6.58157 54.7207 8.2903L54.7088 8.30116C49.2215 11.2859 44.9046 15.7741 42.3721 21.1275H35.722C35.1985 21.8335 34.7226 22.5611 34.2825 23.2996H41.3609C40.4629 25.4103 39.7625 27.5865 39.2671 29.8051C39.2533 29.8769 39.2454 29.9495 39.2433 30.0224V37.4184H41.6226V30.131C42.1469 27.7946 42.9075 25.5077 43.8949 23.2996H52.8768C52.2971 26.1509 51.896 29.03 51.6752 31.923L54.0545 32.0859C54.277 29.1369 54.6942 26.2028 55.3037 23.2996H63.3101V30.9021H65.6894V23.2996H73.6957C74.3052 26.2028 74.7224 29.1369 74.9449 32.0859L77.3242 31.923C77.1034 29.03 76.7023 26.1509 76.1226 23.2996H85.0807C86.9493 27.4637 88.0159 31.8911 88.2333 36.3867L90.6126 36.2781C90.3886 31.8345 89.3845 27.4526 87.6385 23.2996H94.717ZM53.3526 21.1275H44.9894C48.2609 15.1542 53.1385 10.8208 58.7061 9.01796C56.3625 11.7766 54.578 16.1317 53.3526 21.1275ZM63.3101 21.1275H55.8152C57.683 13.8835 60.5738 9.38722 63.3101 8.34461V21.1275ZM65.6894 21.1275V8.34461C68.4256 9.38722 71.3164 13.8835 73.1842 21.1275H65.6894ZM75.6468 21.1275C74.4214 16.1317 72.6369 11.7657 70.2933 9.01796C75.8966 10.8317 80.7504 15.1976 83.9982 21.1275H75.6468Z" fill="#3B97D3"/>
<path d="M99.0002 38.5042C99.0002 38.8735 98.9883 39.2319 98.9645 39.5903H91.8623V37.4182H98.9645C98.9883 37.7766 99.0002 38.135 99.0002 38.5042Z" fill="#3B97D3"/>
<path d="M37.1379 37.4182V39.5903H30.0357C30.0119 39.2319 30 38.8735 30 38.5042C30 38.135 30.0119 37.7766 30.0357 37.4182H37.1379Z" fill="#3B97D3"/>
<path d="M87.1032 29.8158H41.8963C39.2682 29.8158 37.1377 31.7607 37.1377 34.16V42.8485C37.1377 45.2477 39.2682 47.1927 41.8963 47.1927H87.1032C89.7313 47.1927 91.8618 45.2477 91.8618 42.8485V34.16C91.8618 31.7607 89.7313 29.8158 87.1032 29.8158Z" fill="#D32E5E"/>
<path d="M82.345 37.4182C81.7678 37.4176 81.2743 37.039 81.1745 36.52C81.0746 36.001 81.3972 35.4915 81.9397 35.3114C82.4821 35.1314 83.0879 35.3327 83.3765 35.7891C83.7148 36.2883 84.4264 36.4518 84.9833 36.1581C85.5401 35.8644 85.7405 35.22 85.4358 34.703C84.5697 33.3337 82.7518 32.7296 81.1243 33.2704C79.4967 33.8112 78.5294 35.3408 78.8302 36.8979C79.131 38.4551 80.613 39.5903 82.345 39.5903C82.9222 39.5908 83.4157 39.9695 83.5156 40.4884C83.6154 41.0074 83.2928 41.517 82.7504 41.697C82.208 41.8771 81.6022 41.6757 81.3136 41.2194C80.9753 40.7201 80.2636 40.5567 79.7068 40.8504C79.15 41.144 78.9496 41.7885 79.2543 42.3054C80.1203 43.6748 81.9383 44.2788 83.5658 43.738C85.1934 43.1972 86.1606 41.6677 85.8599 40.1105C85.5591 38.5534 84.077 37.4181 82.345 37.4182V37.4182Z" fill="#ECF0F1"/>
<path d="M60.9309 35.246C61.588 35.246 62.1206 34.7598 62.1206 34.16C62.1206 33.5602 61.588 33.0739 60.9309 33.0739H57.362C56.0479 33.0739 54.9827 34.0464 54.9827 35.246V41.7624C54.9827 42.962 56.0479 43.9345 57.362 43.9345H60.9309C61.588 43.9345 62.1206 43.4483 62.1206 42.8485C62.1206 42.2486 61.588 41.7624 60.9309 41.7624H57.362V39.5903H59.7413C60.3983 39.5903 60.9309 39.104 60.9309 38.5042C60.9309 37.9044 60.3983 37.4182 59.7413 37.4182H57.362V35.246H60.9309Z" fill="#ECF0F1"/>
<path d="M75.4021 33.0891C74.7548 32.991 74.1426 33.39 74.034 33.9808L72.9467 39.9606L71.4418 37.8971C71.2084 37.6123 70.8416 37.4446 70.452 37.4446C70.0624 37.4446 69.6956 37.6123 69.4622 37.8971L67.9573 39.9606L66.8664 33.9808C66.7445 33.4017 66.1388 33.0173 65.5017 33.1146C64.8647 33.2119 64.4291 33.7555 64.5204 34.3392L66.1062 43.0277C66.1868 43.4669 66.553 43.8167 67.03 43.9102C67.507 44.0036 67.9981 43.8217 68.269 43.4512L70.4484 40.4591L72.6314 43.448C72.9023 43.8184 73.3934 44.0003 73.8704 43.9069C74.3475 43.8135 74.7137 43.4637 74.7942 43.0244L76.38 34.3359C76.486 33.7453 76.0487 33.1878 75.4021 33.0891Z" fill="#ECF0F1"/>
<path d="M51.4141 33.0739C50.757 33.0739 50.2244 33.5602 50.2244 34.16V39.0364L46.5234 33.5876C46.2439 33.176 45.6997 32.983 45.1891 33.1145C44.6785 33.246 44.3251 33.6702 44.3225 34.1546L44.2761 42.843C44.2746 43.132 44.3992 43.4096 44.6225 43.6145C44.8457 43.8194 45.1492 43.9345 45.4658 43.9345C46.1205 43.9345 46.6522 43.4516 46.6554 42.8539L46.6816 37.9427L50.4029 43.4208C50.6829 43.8333 51.2287 44.0262 51.74 43.8932C52.2513 43.7602 52.6038 43.3338 52.6037 42.8485V34.16C52.6037 33.5602 52.0711 33.0739 51.4141 33.0739V33.0739Z" fill="#ECF0F1"/>
</svg>
