<svg width="28" height="28" viewBox="0 0 28 28" fill="none" xmlns="http://www.w3.org/2000/svg">
<g clip-path="url(#clip0)">
<path d="M27.4531 5.79688V9.07812C27.4531 9.9843 26.7187 10.7188 25.8125 10.7188H24.1719V12.3594L20.8906 10.7188H15.6406L14 12.3594L12.3594 10.7188H7.4375L4.15625 12.3594V10.7188H2.1875C1.28133 10.7188 0.546875 9.9843 0.546875 9.07812V5.79688C0.546875 4.8907 1.28133 4.15625 2.1875 4.15625H25.8125C26.7187 4.15625 27.4531 4.8907 27.4531 5.79688Z" fill="#FF912C" fill-opacity="0.99"/>
<path d="M27.4531 23.3516V23.8438H20.8906V23.3516C20.8906 21.5392 22.3595 20.0703 24.1719 20.0703C25.9841 20.0703 27.4531 21.5392 27.4531 23.3516Z" fill="#FF7B79"/>
<path d="M24.1719 18.9766C25.078 18.9766 25.8125 18.242 25.8125 17.3359C25.8125 16.4298 25.078 15.6953 24.1719 15.6953C23.2658 15.6953 22.5312 16.4298 22.5312 17.3359C22.5312 18.242 23.2658 18.9766 24.1719 18.9766Z" fill="#FEAF66"/>
<path d="M17.2812 23.3516V23.8438H10.7188V23.3516C10.7188 21.5392 12.1877 20.0703 14 20.0703C15.8122 20.0703 17.2812 21.5392 17.2812 23.3516Z" fill="#FF7B79"/>
<path d="M14 18.9766C14.9061 18.9766 15.6406 18.242 15.6406 17.3359C15.6406 16.4298 14.9061 15.6953 14 15.6953C13.0939 15.6953 12.3594 16.4298 12.3594 17.3359C12.3594 18.242 13.0939 18.9766 14 18.9766Z" fill="#FEAF66"/>
<path d="M7.10938 23.3516V23.8438H0.546875V23.3516C0.546875 21.5392 2.01578 20.0703 3.82812 20.0703C5.64036 20.0703 7.10938 21.5392 7.10938 23.3516Z" fill="#FF7B79"/>
<path d="M3.82812 18.9766C4.73422 18.9766 5.46875 18.242 5.46875 17.3359C5.46875 16.4298 4.73422 15.6953 3.82812 15.6953C2.92203 15.6953 2.1875 16.4298 2.1875 17.3359C2.1875 18.242 2.92203 18.9766 3.82812 18.9766Z" fill="#FEAF66"/>
<path d="M17.2812 7.98438C17.5833 7.98438 17.8281 7.73953 17.8281 7.4375C17.8281 7.13547 17.5833 6.89062 17.2812 6.89062C16.9792 6.89062 16.7344 7.13547 16.7344 7.4375C16.7344 7.73953 16.9792 7.98438 17.2812 7.98438Z" fill="black"/>
<path d="M14 7.98438C14.302 7.98438 14.5469 7.73953 14.5469 7.4375C14.5469 7.13547 14.302 6.89062 14 6.89062C13.698 6.89062 13.4531 7.13547 13.4531 7.4375C13.4531 7.73953 13.698 7.98438 14 7.98438Z" fill="black"/>
<path d="M10.7188 7.98438C11.0208 7.98438 11.2656 7.73953 11.2656 7.4375C11.2656 7.13547 11.0208 6.89062 10.7188 6.89062C10.4167 6.89062 10.1719 7.13547 10.1719 7.4375C10.1719 7.73953 10.4167 7.98438 10.7188 7.98438Z" fill="black"/>
<path d="M16.1875 17.3359C16.1875 16.1298 15.2062 15.1484 14 15.1484C12.7938 15.1484 11.8125 16.1298 11.8125 17.3359C11.8125 18.5421 12.7938 19.5234 14 19.5234C15.2062 19.5234 16.1875 18.5421 16.1875 17.3359ZM14 18.4297C13.3969 18.4297 12.9062 17.939 12.9062 17.3359C12.9062 16.7328 13.3969 16.2422 14 16.2422C14.6031 16.2422 15.0938 16.7328 15.0938 17.3359C15.0938 17.939 14.6031 18.4297 14 18.4297Z" fill="#2F476C"/>
<path d="M10.1719 23.3516V23.8438C10.1719 24.1457 10.4168 24.3906 10.7188 24.3906H17.2812C17.5832 24.3906 17.8281 24.1457 17.8281 23.8438V23.3516C17.8281 21.2407 16.1108 19.5234 14 19.5234C11.8892 19.5234 10.1719 21.2407 10.1719 23.3516ZM14 20.6172C15.4894 20.6172 16.7045 21.8144 16.7338 23.2969H11.2662C11.2955 21.8144 12.5106 20.6172 14 20.6172Z" fill="#2F476C"/>
<path d="M6.01562 17.3359C6.01562 16.1298 5.03431 15.1484 3.82812 15.1484C2.62194 15.1484 1.64062 16.1298 1.64062 17.3359C1.64062 18.5421 2.62194 19.5234 3.82812 19.5234C5.03431 19.5234 6.01562 18.5421 6.01562 17.3359ZM3.82812 18.4297C3.22503 18.4297 2.73438 17.939 2.73438 17.3359C2.73438 16.7328 3.22503 16.2422 3.82812 16.2422C4.43122 16.2422 4.92188 16.7328 4.92188 17.3359C4.92188 17.939 4.43122 18.4297 3.82812 18.4297Z" fill="#2F476C"/>
<path d="M0.546875 24.3906H7.10938C7.41136 24.3906 7.65625 24.1457 7.65625 23.8438V23.3516C7.65625 21.2407 5.93895 19.5234 3.82812 19.5234C1.7173 19.5234 0 21.2407 0 23.3516V23.8438C0 24.1457 0.244891 24.3906 0.546875 24.3906ZM3.82812 20.6172C5.31754 20.6172 6.53264 21.8144 6.56195 23.2969H1.0943C1.12361 21.8144 2.33871 20.6172 3.82812 20.6172Z" fill="#2F476C"/>
<path d="M26.3594 17.3359C26.3594 16.1298 25.3781 15.1484 24.1719 15.1484C22.9657 15.1484 21.9844 16.1298 21.9844 17.3359C21.9844 18.5421 22.9657 19.5234 24.1719 19.5234C25.3781 19.5234 26.3594 18.5421 26.3594 17.3359ZM24.1719 18.4297C23.5688 18.4297 23.0781 17.939 23.0781 17.3359C23.0781 16.7328 23.5688 16.2422 24.1719 16.2422C24.775 16.2422 25.2656 16.7328 25.2656 17.3359C25.2656 17.939 24.775 18.4297 24.1719 18.4297Z" fill="#2F476C"/>
<path d="M24.1719 19.5234C22.061 19.5234 20.3438 21.2407 20.3438 23.3516V23.8438C20.3438 24.1457 20.5886 24.3906 20.8906 24.3906H27.4531C27.7551 24.3906 28 24.1457 28 23.8438V23.3516C28 21.2407 26.2827 19.5234 24.1719 19.5234ZM21.438 23.2969C21.4674 21.8144 22.6825 20.6172 24.1719 20.6172C25.6613 20.6172 26.8764 21.8144 26.9057 23.2969H21.438Z" fill="#2F476C"/>
<path d="M25.8125 3.60938H16.4609C16.159 3.60938 15.9141 3.85427 15.9141 4.15625C15.9141 4.45823 16.159 4.70313 16.4609 4.70313H25.8125C26.4156 4.70313 26.9062 5.19378 26.9062 5.79688V9.07813C26.9062 9.68122 26.4156 10.1719 25.8125 10.1719H24.1719C23.8699 10.1719 23.625 10.4168 23.625 10.7188V11.4745L21.1352 10.2296C21.0593 10.1916 20.9756 10.1719 20.8906 10.1719H15.6406C15.4956 10.1719 15.3565 10.2295 15.2539 10.3321L14 11.5859L12.7461 10.332C12.6435 10.2295 12.5044 10.1719 12.3594 10.1719H7.4375C7.35257 10.1719 7.26884 10.1916 7.19294 10.2296L4.70312 11.4745V10.7188C4.70312 10.4168 4.45823 10.1719 4.15625 10.1719H2.1875C1.58441 10.1719 1.09375 9.68122 1.09375 9.07813V5.79688C1.09375 5.19378 1.58441 4.70313 2.1875 4.70313H11.5391C11.841 4.70313 12.0859 4.45823 12.0859 4.15625C12.0859 3.85427 11.841 3.60938 11.5391 3.60938H2.1875C0.981313 3.60938 0 4.59069 0 5.79688V9.07813C0 10.2843 0.981313 11.2656 2.1875 11.2656H3.60938V12.3594C3.60938 12.5489 3.70754 12.725 3.86876 12.8246C4.02998 12.9242 4.23128 12.9332 4.40081 12.8486L7.56656 11.2656H12.1328L13.6132 12.7461C13.8269 12.9596 14.173 12.9596 14.3867 12.7461L15.8672 11.2656H20.7616L23.9274 12.8485C24.0965 12.9331 24.2979 12.9244 24.4594 12.8245C24.6206 12.7249 24.7188 12.5489 24.7188 12.3593V11.2656H25.8126C27.0187 11.2656 28.0001 10.2843 28.0001 9.07807V5.79682C28 4.59069 27.0187 3.60938 25.8125 3.60938Z" fill="#2F476C"/>
<path d="M14 4.70312C14.302 4.70312 14.5469 4.45828 14.5469 4.15625C14.5469 3.85422 14.302 3.60938 14 3.60938C13.698 3.60938 13.4531 3.85422 13.4531 4.15625C13.4531 4.45828 13.698 4.70312 14 4.70312Z" fill="black"/>
</g>
<defs>
<clipPath id="clip0">
<rect width="28" height="28" fill="white"/>
</clipPath>
</defs>
</svg>
