<svg width="25" height="25" viewBox="0 0 25 25" fill="none" xmlns="http://www.w3.org/2000/svg">
<path d="M12.5 2.96875C12.9309 2.96875 13.3576 3.05362 13.7557 3.21852C14.1538 3.38342 14.5155 3.62511 14.8202 3.92981C15.1249 4.2345 15.3666 4.59622 15.5315 4.99432C15.6964 5.39242 15.7813 5.8191 15.7813 6.25C15.7813 6.6809 15.6964 7.10758 15.5315 7.50568C15.3666 7.90378 15.1249 8.2655 14.8202 8.57019C14.5155 8.87489 14.1538 9.11658 13.7557 9.28148C13.3576 9.44638 12.9309 9.53125 12.5 9.53125C11.6298 9.53125 10.7952 9.18555 10.1798 8.57019C9.56445 7.95484 9.21875 7.12024 9.21875 6.25C9.21875 5.37976 9.56445 4.54516 10.1798 3.92981C10.7952 3.31445 11.6298 2.96875 12.5 2.96875ZM12.5 17.0312C17.1406 17.0312 22.0312 19.3125 22.0312 20.3125V22.0312H2.96875V20.3125C2.96875 19.3125 7.85938 17.0312 12.5 17.0312ZM12.5 0C9.04688 0 6.25 2.79688 6.25 6.25C6.25 9.70312 9.04688 12.5 12.5 12.5C15.9531 12.5 18.75 9.70312 18.75 6.25C18.75 2.79688 15.9531 0 12.5 0ZM12.5 14.0625C8.32812 14.0625 0 16.1562 0 20.3125V23.4375C0 24.2969 0.703125 25 1.5625 25H23.4375C24.2969 25 25 24.2969 25 23.4375V20.3125C25 16.1562 16.6719 14.0625 12.5 14.0625Z" fill="#FCB26E"/>
</svg>
