<svg width="29" height="29" viewBox="0 0 29 29" fill="none" xmlns="http://www.w3.org/2000/svg">
<path d="M27.405 19.9456C25.4233 19.9456 23.5061 19.6233 21.7178 19.0433C21.4376 18.9484 21.1364 18.9343 20.8486 19.0027C20.5608 19.071 20.298 19.2192 20.0906 19.43L17.5611 22.6039C13.0017 20.4289 8.73222 16.3206 6.46056 11.6L9.60222 8.92556C10.0372 8.47444 10.1661 7.84611 9.98889 7.28222C9.39278 5.49389 9.08667 3.57667 9.08667 1.595C9.08667 0.725 8.36167 0 7.49167 0H1.91722C1.04722 0 0 0.386667 0 1.595C0 16.5622 12.4539 29 27.405 29C28.5489 29 29 27.985 29 27.0989V21.5406C29 20.6706 28.275 19.9456 27.405 19.9456Z" fill="white"/>
</svg>
