<svg width="47" height="41" viewBox="0 0 47 41" fill="none" xmlns="http://www.w3.org/2000/svg">
<rect width="47" height="41" rx="5" fill="#FAF9FE" fill-opacity="0.09"/>
<path d="M35.9844 21.0625H25.0156V10.9375C25.0156 10.4197 24.5609 10 24 10C23.4391 10 22.9844 10.4197 22.9844 10.9375V21.0625H12.0156C11.4547 21.0625 11 21.4822 11 22C11 22.5178 11.4547 22.9375 12.0156 22.9375H22.9844V33.0625C22.9844 33.5803 23.4391 34 24 34C24.5609 34 25.0156 33.5803 25.0156 33.0625V22.9375H35.9844C36.5453 22.9375 37 22.5178 37 22C37 21.4822 36.5453 21.0625 35.9844 21.0625Z" fill="#FF912C" fill-opacity="0.35"/>
</svg>
