<svg width="65" height="69" viewBox="0 0 75 69" fill="none">
<path d="M75 34.5C75 53.5538 59.5 56.5 37.5 69C16.7893 69 0 53.5538 0 34.5C0 15.4462 16.7893 0 37.5 0C58.2107 0 75 15.4462 75 34.5Z" fill="#D32E5E"/>
<path d="M50.2917 30.3333H28.7084C26.1492 30.3333 24.0834 32.2317 24.0834 34.5833V43.0833H30.25V48.75H48.75V43.0833H54.9167V34.5833C54.9167 32.2317 52.8509 30.3333 50.2917 30.3333ZM45.6667 45.9167H33.3334V38.8333H45.6667V45.9167ZM50.2917 36C49.4438 36 48.75 35.3625 48.75 34.5833C48.75 33.8042 49.4438 33.1667 50.2917 33.1667C51.1396 33.1667 51.8334 33.8042 51.8334 34.5833C51.8334 35.3625 51.1396 36 50.2917 36ZM48.75 23.25H30.25V28.9167H48.75V23.25Z" fill="white"/>
</svg>
