<svg width="30" height="30" viewBox="0 0 30 30" fill="none" xmlns="http://www.w3.org/2000/svg">
<path d="M19.3078 10.6922C20.4076 11.8433 21.0132 13.3792 20.9951 14.9712C20.9769 16.5632 20.3365 18.0849 19.2107 19.2107C18.0849 20.3365 16.5632 20.977 14.9712 20.9951C13.3792 21.0133 11.8433 20.4076 10.6921 19.3078L6.71246 23.2875C4.51448 21.0895 3.27966 18.1084 3.27966 15C3.27966 11.8916 4.51448 8.91047 6.71246 6.71249C8.91044 4.51451 11.8915 3.27969 15 3.27969C18.1084 3.27969 21.0895 4.51451 23.2875 6.71249L19.3078 10.6922Z" fill="#FFCD00"/>
<path d="M3.28128 15C3.28085 12.6819 3.9679 10.4158 5.25555 8.48826C6.54319 6.56072 8.37357 5.05837 10.5152 4.17122C12.6568 3.28408 15.0133 3.052 17.2868 3.50435C19.5603 3.95671 21.6486 5.07316 23.2875 6.7125L24.6122 5.38781C22.0602 2.85142 18.6067 1.43025 15.0087 1.43578C11.4106 1.4413 7.96152 2.87307 5.41731 5.41728C2.8731 7.96149 1.44133 11.4106 1.43581 15.0086C1.43028 18.6067 2.85145 22.0602 5.38784 24.6122L6.71253 23.2875C5.62318 22.2 4.75931 20.9081 4.17049 19.4859C3.58167 18.0637 3.27948 16.5393 3.28128 15Z" fill="#FF3051"/>
<path d="M28.5938 17.8125V12.1875H24.9206C24.7046 11.4157 24.3974 10.6723 24.0056 9.97313L26.6011 7.37813L24.6122 5.38922L23.2875 6.7125L19.3088 10.6913C20.4342 11.8376 21.0615 13.382 21.0541 14.9884C21.0467 16.5948 20.4053 18.1334 19.2693 19.2693C18.1334 20.4053 16.5949 21.0467 14.9884 21.0541C13.382 21.0615 11.8376 20.4342 10.6913 19.3088L6.7125 23.2875L5.38782 24.6122L7.37672 26.6011L9.97172 24.0056C10.6714 24.3975 11.4152 24.7047 12.1875 24.9206V28.5938H17.8125V24.9206C18.5843 24.7046 19.3277 24.3974 20.0269 24.0056L22.6219 26.6011L26.5997 22.6233L24.0042 20.0283C24.3966 19.3287 24.7043 18.5849 24.9206 17.8125H28.5938Z" fill="#FFB655"/>
<path d="M15 16.4062C15.7767 16.4062 16.4062 15.7767 16.4062 15C16.4062 14.2233 15.7767 13.5938 15 13.5938C14.2233 13.5938 13.5938 14.2233 13.5938 15C13.5938 15.7767 14.2233 16.4062 15 16.4062Z" fill="#FF3051"/>
<path d="M10.6913 19.3087L6.7125 23.2875L5.38782 24.6122L6.32532 25.5497L11.7338 20.1412C11.3568 19.9027 11.0072 19.6236 10.6913 19.3087Z" fill="#FFA733"/>
<path d="M24.6123 5.38782L23.2876 6.71251L19.3088 10.6913C19.6237 11.0072 19.9028 11.3568 20.1413 11.7338L25.5498 6.32532L24.6123 5.38782Z" fill="#FFA733"/>
<path d="M14.5312 26.25H15.4688V27.1875H14.5312V26.25Z" fill="black"/>
<path d="M22.619 23.2866L23.2819 22.6236L23.9448 23.2866L23.2819 23.9495L22.619 23.2866Z" fill="black"/>
<path d="M26.25 14.5312H27.1875V15.4688H26.25V14.5312Z" fill="black"/>
<path d="M28.5938 11.7188H25.2703C25.089 11.1468 24.8592 10.5914 24.5836 10.0584L26.9325 7.70907C27.0204 7.62117 27.0698 7.50196 27.0698 7.37767C27.0698 7.25337 27.0204 7.13416 26.9325 7.04626L24.9436 5.05782C23.6424 3.73162 22.0913 2.67641 20.38 1.95317C18.6686 1.22992 16.8308 0.852967 14.9729 0.844093C13.115 0.83522 11.2738 1.1946 9.55554 1.90147C7.83733 2.60834 6.27623 3.64868 4.96242 4.96239C3.64862 6.2761 2.60817 7.83714 1.90118 9.5553C1.19419 11.2735 0.834676 13.1147 0.843417 14.9726C0.852159 16.8305 1.22898 18.6683 1.95211 20.3797C2.67523 22.0911 3.73033 23.6423 5.05644 24.9436L7.04488 26.9325C7.13278 27.0204 7.25199 27.0698 7.37628 27.0698C7.50058 27.0698 7.61979 27.0204 7.70769 26.9325L10.0571 24.5836C10.5905 24.8591 11.1464 25.0887 11.7188 25.2699V28.5938C11.7188 28.7181 11.7682 28.8373 11.8561 28.9252C11.944 29.0131 12.0632 29.0625 12.1875 29.0625H17.8125C17.9369 29.0625 18.0561 29.0131 18.144 28.9252C18.2319 28.8373 18.2813 28.7181 18.2813 28.5938V25.2703C18.8532 25.0891 19.4086 24.8595 19.9416 24.5841L22.291 26.933C22.3789 27.0209 22.4981 27.0702 22.6224 27.0702C22.7467 27.0702 22.8659 27.0209 22.9538 26.933L26.9311 22.9556C27.019 22.8677 27.0684 22.7485 27.0684 22.6242C27.0684 22.4999 27.019 22.3807 26.9311 22.2928L24.5822 19.9434C24.8582 19.4099 25.0883 18.8538 25.2699 18.2813H28.5938C28.7181 18.2813 28.8373 18.2319 28.9252 18.144C29.0131 18.0561 29.0625 17.9368 29.0625 17.8125V12.1875C29.0625 12.0632 29.0131 11.944 28.9252 11.8561C28.8373 11.7681 28.7181 11.7188 28.5938 11.7188ZM5.71878 5.71876C8.12235 3.31442 11.3654 1.93697 14.7646 1.87664C18.1637 1.8163 21.4536 3.0778 23.941 5.39532L23.2791 6.0572C20.9659 3.92242 17.9164 2.76543 14.7693 2.82853C11.6222 2.89163 8.62153 4.16993 6.39574 6.39572C4.16995 8.62151 2.89166 11.6222 2.82855 14.7693C2.76545 17.9164 3.92244 20.9659 6.05722 23.2791L5.39535 23.9409C3.07782 21.4536 1.81633 18.1637 1.87666 14.7645C1.937 11.3654 3.31445 8.12233 5.71878 5.71876ZM18.9774 11.0227C20.0181 12.0805 20.5986 13.5066 20.5926 14.9905C20.5866 16.4744 19.9944 17.8958 18.9451 18.9451C17.8958 19.9944 16.4744 20.5865 14.9905 20.5926C13.5067 20.5986 12.0805 20.0181 11.0227 18.9774C10.9348 18.8895 10.8156 18.8401 10.6913 18.8401C10.567 18.8401 10.4478 18.8895 10.3599 18.9774L6.7205 22.6167C4.75455 20.4807 3.69039 17.6674 3.75052 14.7651C3.81066 11.8627 4.99042 9.09587 7.04316 7.04314C9.0959 4.9904 11.8627 3.81063 14.7651 3.7505C17.6675 3.69037 20.4808 4.75452 22.6168 6.72048L18.9774 10.3594C18.9338 10.4029 18.8992 10.4546 18.8756 10.5115C18.852 10.5684 18.8399 10.6294 18.8399 10.691C18.8399 10.7526 18.852 10.8136 18.8756 10.8705C18.8992 10.9274 18.9338 10.9791 18.9774 11.0227ZM28.125 17.3438H24.9207C24.8182 17.3437 24.7185 17.3772 24.6369 17.4392C24.5553 17.5012 24.4962 17.5882 24.4688 17.6869C24.2629 18.4222 23.97 19.1303 23.5964 19.7963C23.5461 19.8856 23.5264 19.989 23.5405 20.0906C23.5545 20.1922 23.6015 20.2864 23.6743 20.3588L25.9378 22.6228L22.6238 25.9369L20.3597 23.6733C20.2874 23.6006 20.1932 23.5536 20.0916 23.5395C19.99 23.5255 19.8866 23.5451 19.7972 23.5955C19.1313 23.9691 18.4231 24.2619 17.6878 24.4678C17.5891 24.4953 17.5021 24.5543 17.4402 24.636C17.3782 24.7176 17.3447 24.8172 17.3447 24.9197V28.125H12.6563V24.9206C12.6563 24.8182 12.6228 24.7185 12.5609 24.6369C12.4989 24.5553 12.4119 24.4962 12.3132 24.4688C11.5779 24.2629 10.8697 23.97 10.2038 23.5964C10.1144 23.5461 10.011 23.5264 9.90941 23.5405C9.80781 23.5545 9.71362 23.6015 9.64128 23.6742L7.37722 25.9378L6.0516 24.6122L10.7039 19.9603C11.9582 21.0462 13.5772 21.6167 15.2351 21.5571C16.8931 21.4975 18.4669 20.8122 19.6399 19.639C20.813 18.4658 21.4981 16.8919 21.5576 15.234C21.617 13.5761 21.0463 11.9571 19.9603 10.703L24.6122 6.05063L25.9378 7.37626L23.6743 9.64032C23.6015 9.71265 23.5545 9.80684 23.5405 9.90845C23.5264 10.0101 23.5461 10.1135 23.5964 10.2028C23.9701 10.8687 24.263 11.5769 24.4688 12.3122C24.4962 12.4109 24.5553 12.4979 24.6369 12.5599C24.7185 12.6219 24.8182 12.6554 24.9207 12.6553H28.125V17.3438Z" fill="black"/>
<path d="M15.4688 13.1916V7.96875C15.4688 7.84443 15.4194 7.7252 15.3315 7.63729C15.2435 7.54939 15.1243 7.5 15 7.5C14.8757 7.5 14.7565 7.54939 14.6685 7.63729C14.5806 7.7252 14.5313 7.84443 14.5313 7.96875V13.1916C14.2091 13.2758 13.9152 13.4443 13.6797 13.6797C13.4443 13.9152 13.2758 14.2091 13.1916 14.5313H9.84375C9.71943 14.5313 9.6002 14.5806 9.51229 14.6685C9.42439 14.7565 9.375 14.8757 9.375 15C9.375 15.1243 9.42439 15.2435 9.51229 15.3315C9.6002 15.4194 9.71943 15.4688 9.84375 15.4688H13.1916C13.2735 15.7886 13.4387 16.0811 13.6703 16.3165C13.9018 16.5519 14.1916 16.7218 14.51 16.8091C14.8285 16.8963 15.1644 16.8976 15.4836 16.8131C15.8028 16.7285 16.0939 16.5609 16.3274 16.3274C16.5609 16.0939 16.7285 15.8028 16.8131 15.4836C16.8976 15.1644 16.8963 14.8285 16.8091 14.51C16.7218 14.1916 16.5519 13.9018 16.3165 13.6703C16.0811 13.4387 15.7886 13.2735 15.4688 13.1916ZM15 15.9375C14.8146 15.9375 14.6333 15.8825 14.4792 15.7795C14.325 15.6765 14.2048 15.5301 14.1339 15.3588C14.0629 15.1875 14.0443 14.999 14.0805 14.8171C14.1167 14.6352 14.206 14.4682 14.3371 14.3371C14.4682 14.206 14.6352 14.1167 14.8171 14.0805C14.999 14.0443 15.1875 14.0629 15.3588 14.1339C15.5301 14.2048 15.6765 14.325 15.7795 14.4792C15.8825 14.6333 15.9375 14.8146 15.9375 15C15.9375 15.2486 15.8387 15.4871 15.6629 15.6629C15.4871 15.8387 15.2486 15.9375 15 15.9375Z" fill="black"/>
<path d="M15 6.09375C14.8757 6.09375 14.7565 6.04436 14.6685 5.95646C14.5806 5.86855 14.5312 5.74932 14.5312 5.625V4.6875C14.5312 4.56318 14.5806 4.44395 14.6685 4.35604C14.7565 4.26814 14.8757 4.21875 15 4.21875C15.1243 4.21875 15.2435 4.26814 15.3315 4.35604C15.4194 4.44395 15.4688 4.56318 15.4688 4.6875V5.625C15.4688 5.74932 15.4194 5.86855 15.3315 5.95646C15.2435 6.04436 15.1243 6.09375 15 6.09375Z" fill="black"/>
<path d="M19.6875 7.35C19.6053 7.34991 19.5245 7.32819 19.4533 7.28702C19.3821 7.24584 19.323 7.18666 19.2819 7.11541C19.2408 7.04417 19.2192 6.96337 19.2192 6.88113C19.2193 6.79888 19.2409 6.7181 19.282 6.64687L19.7508 5.83453C19.8134 5.72774 19.9157 5.65006 20.0354 5.61842C20.155 5.58678 20.2824 5.60376 20.3896 5.66565C20.4968 5.72754 20.5751 5.82932 20.6076 5.94878C20.64 6.06824 20.6239 6.19567 20.5627 6.30328L20.0939 7.11562C20.0527 7.18695 19.9935 7.24617 19.9221 7.28731C19.8508 7.32846 19.7699 7.35008 19.6875 7.35Z" fill="black"/>
<path d="M10.3125 7.35C10.2302 7.35008 10.1492 7.32846 10.0779 7.28731C10.0065 7.24617 9.94729 7.18695 9.90611 7.11562L9.43736 6.30328C9.37618 6.19567 9.36004 6.06824 9.39248 5.94878C9.42491 5.82932 9.50327 5.72754 9.61047 5.66565C9.71767 5.60376 9.84499 5.58678 9.96466 5.61842C10.0843 5.65006 10.1866 5.72774 10.2492 5.83453L10.718 6.64687C10.7591 6.7181 10.7808 6.79888 10.7808 6.88113C10.7808 6.96337 10.7592 7.04417 10.7181 7.11541C10.677 7.18666 10.6179 7.24584 10.5467 7.28702C10.4755 7.32819 10.3948 7.34991 10.3125 7.35Z" fill="black"/>
<path d="M6.88082 10.7813C6.79851 10.7815 6.71763 10.7598 6.64644 10.7185L5.8341 10.2497C5.72732 10.1871 5.64963 10.0848 5.61799 9.96515C5.58635 9.84548 5.60333 9.71815 5.66522 9.61096C5.72711 9.50376 5.82889 9.4254 5.94835 9.39296C6.06781 9.36053 6.19524 9.37667 6.30285 9.43785L7.11519 9.90659C7.20455 9.95819 7.27439 10.0378 7.31387 10.1332C7.35336 10.2285 7.36028 10.3342 7.33357 10.4339C7.30687 10.5335 7.24802 10.6216 7.16616 10.6844C7.0843 10.7472 6.984 10.7813 6.88082 10.7813Z" fill="black"/>
<path d="M5.625 15.4688H4.6875C4.56318 15.4688 4.44395 15.4194 4.35604 15.3315C4.26814 15.2435 4.21875 15.1243 4.21875 15C4.21875 14.8757 4.26814 14.7565 4.35604 14.6685C4.44395 14.5806 4.56318 14.5312 4.6875 14.5312H5.625C5.74932 14.5312 5.86855 14.5806 5.95646 14.6685C6.04436 14.7565 6.09375 14.8757 6.09375 15C6.09375 15.1243 6.04436 15.2435 5.95646 15.3315C5.86855 15.4194 5.74932 15.4688 5.625 15.4688Z" fill="black"/>
<path d="M6.06944 20.625C5.96625 20.625 5.86595 20.591 5.78409 20.5281C5.70223 20.4653 5.64339 20.3773 5.61668 20.2776C5.58997 20.1779 5.5969 20.0722 5.63638 19.9769C5.67587 19.8816 5.74571 19.8019 5.83506 19.7503L6.64741 19.2816C6.70074 19.2503 6.75972 19.2299 6.82097 19.2215C6.88222 19.2131 6.94452 19.217 7.00429 19.2328C7.06405 19.2486 7.1201 19.276 7.16921 19.3136C7.21832 19.3511 7.25951 19.398 7.29042 19.4516C7.32133 19.5051 7.34135 19.5642 7.34932 19.6255C7.35728 19.6868 7.35305 19.7491 7.33685 19.8088C7.32065 19.8684 7.29281 19.9243 7.25494 19.9732C7.21706 20.022 7.1699 20.0629 7.11616 20.0935L6.30381 20.5622C6.23262 20.6035 6.15175 20.6252 6.06944 20.625Z" fill="black"/>
<path d="M15 19.6875C14.3842 19.6892 13.7742 19.5685 13.2054 19.3324C12.6367 19.0963 12.1205 18.7495 11.6869 18.3122C11.6422 18.2689 11.6066 18.2171 11.5821 18.1599C11.5576 18.1027 11.5448 18.0411 11.5443 17.9789C11.5439 17.9166 11.5558 17.8549 11.5795 17.7974C11.6031 17.7398 11.638 17.6875 11.6821 17.6436C11.7261 17.5996 11.7785 17.5649 11.8362 17.5414C11.8938 17.5179 11.9555 17.5061 12.0178 17.5068C12.08 17.5074 12.1415 17.5204 12.1987 17.5451C12.2558 17.5697 12.3075 17.6055 12.3507 17.6503C12.6973 18.0044 13.1107 18.2862 13.567 18.4795C14.0232 18.6727 14.5133 18.7736 15.0088 18.7762C15.5042 18.7788 15.9953 18.6832 16.4536 18.4948C16.9119 18.3064 17.3283 18.029 17.6786 17.6786C18.029 17.3282 18.3064 16.9118 18.4948 16.4536C18.6832 15.9953 18.7789 15.5042 18.7763 15.0087C18.7736 14.5132 18.6728 14.0232 18.4795 13.5669C18.2862 13.1106 18.0044 12.6972 17.6504 12.3506C17.6055 12.3074 17.5697 12.2558 17.5451 12.1986C17.5205 12.1414 17.5074 12.08 17.5068 12.0177C17.5062 11.9555 17.518 11.8937 17.5415 11.8361C17.5649 11.7785 17.5997 11.7261 17.6436 11.682C17.6876 11.6379 17.7399 11.6031 17.7974 11.5794C17.855 11.5558 17.9167 11.5438 17.9789 11.5443C18.0412 11.5447 18.1027 11.5576 18.1599 11.582C18.2172 11.6065 18.2689 11.6422 18.3122 11.6869C18.9672 12.3423 19.4131 13.1772 19.5938 14.0861C19.7744 14.9949 19.6817 15.9369 19.3273 16.793C18.9728 17.6491 18.3726 18.381 17.6024 18.8962C16.8322 19.4114 15.9266 19.6867 15 19.6875Z" fill="black"/>
</svg>
