<svg width="32" height="28" viewBox="0 0 32 28" fill="none" xmlns="http://www.w3.org/2000/svg">
<path d="M24.3333 28H7.66667C5.644 28 4 26.5615 4 24.7917V6.70833C4 4.9385 5.644 3.5 7.66667 3.5H24.3333C26.356 3.5 28 4.9385 28 6.70833V24.7917C28 26.5615 26.356 28 24.3333 28Z" fill="#FF912C" fill-opacity="0.99"/>
<path d="M20.3332 7H11.6666C10.3799 7 9.33325 6.08417 9.33325 4.95833V3.20833C9.33325 2.72533 9.78125 2.33333 10.3333 2.33333H12.4719C12.9092 0.988167 14.3239 0 15.9999 0C17.6759 0 19.0906 0.988167 19.5279 2.33333H21.6666C22.2186 2.33333 22.6666 2.72533 22.6666 3.20833V4.95833C22.6666 6.08417 21.6199 7 20.3332 7Z" fill="#FF912C" fill-opacity="0.99"/>
<path d="M9.33333 3.5H7.66667C5.644 3.5 4 4.9385 4 6.70833V24.7917C4 26.5615 5.644 28 7.66667 28H16V7H11.6667C10.38 7 9.33333 6.08417 9.33333 4.95833V3.5Z" fill="#FF912C" fill-opacity="0.99"/>
<path d="M15.9999 0C14.3239 0 12.9092 0.988167 12.4719 2.33333H10.3333C9.78125 2.33333 9.33325 2.72533 9.33325 3.20833V3.5V4.95833C9.33325 6.08417 10.3799 7 11.6666 7H15.9999V0Z" fill="#FF912C"/>
<path d="M23 25.6667H9C8.448 25.6667 8 25.2747 8 24.7917C8 24.3087 8.448 23.9167 9 23.9167H23C23.552 23.9167 24 24.3087 24 24.7917C24 25.2747 23.552 25.6667 23 25.6667Z" fill="white"/>
<path d="M16 23.9167H9C8.448 23.9167 8 24.3087 8 24.7917C8 25.2747 8.448 25.6667 9 25.6667H16V23.9167Z" fill="#DEDEDE"/>
<path d="M23 14.5833H22C21.448 14.5833 21 14.1913 21 13.7083C21 13.2253 21.448 12.8333 22 12.8333H23C23.552 12.8333 24 13.2253 24 13.7083C24 14.1913 23.552 14.5833 23 14.5833Z" fill="white"/>
<path d="M23 11.0833H22C21.448 11.0833 21 10.6913 21 10.2083C21 9.72525 21.448 9.33325 22 9.33325H23C23.552 9.33325 24 9.72525 24 10.2083C24 10.6913 23.552 11.0833 23 11.0833Z" fill="white"/>
<path d="M23 18.0833H22C21.448 18.0833 21 17.6913 21 17.2083C21 16.7253 21.448 16.3333 22 16.3333H23C23.552 16.3333 24 16.7253 24 17.2083C24 17.6913 23.552 18.0833 23 18.0833Z" fill="white"/>
<path d="M23 21.5833H22C21.448 21.5833 21 21.1913 21 20.7083C21 20.2253 21.448 19.8333 22 19.8333H23C23.552 19.8333 24 20.2253 24 20.7083C24 21.1913 23.552 21.5833 23 21.5833Z" fill="white"/>
<path d="M22.5 12.8333H22C21.448 12.8333 21 13.2253 21 13.7083C21 14.1913 21.448 14.5833 22 14.5833H22.5V12.8333Z" fill="#DEDEDE"/>
<path d="M22.5 9.33325H22C21.448 9.33325 21 9.72525 21 10.2083C21 10.6913 21.448 11.0833 22 11.0833H22.5V9.33325Z" fill="#DEDEDE"/>
<path d="M22.5 16.3333H22C21.448 16.3333 21 16.7253 21 17.2083C21 17.6913 21.448 18.0833 22 18.0833H22.5V16.3333Z" fill="#DEDEDE"/>
<path d="M22.5 19.8333H22C21.448 19.8333 21 20.2253 21 20.7083C21 21.1913 21.448 21.5833 22 21.5833H22.5V19.8333Z" fill="#DEDEDE"/>
<path d="M20 15.6672C20 18.5641 17.3093 20.9172 14 20.9172C12.34 20.9172 10.84 20.3316 9.76001 19.3772L14 15.6672V10.4172C17.3093 10.4172 20 12.7716 20 15.6672Z" fill="white"/>
<path d="M14 10.4172V15.6672L9.76 19.3772C8.67067 18.4322 8 17.1197 8 15.6672C8 12.7716 10.6907 10.4172 14 10.4172Z" fill="#CFD8DC"/>
<path d="M14 15.6672L9.76001 19.3772C10.84 20.3304 12.34 20.9172 14 20.9172C16.3133 20.9172 18.324 19.7681 19.3253 18.0857C19.324 18.0846 19.3227 18.0834 19.3227 18.0834L14 15.6672Z" fill="#DEDEDE"/>
<path d="M8.66 13.2744C8.23867 13.9919 8 14.8062 8 15.6672C8 17.1197 8.67067 18.4322 9.76 19.3772L14 15.6672L8.664 13.2756L8.66 13.2744Z" fill="#B4BCC0"/>
</svg>
