<svg width="31" height="44" viewBox="0 0 31 44" fill="none" xmlns="http://www.w3.org/2000/svg">
<path d="M25.7812 3.86719V9.02344H5.15625V3.86719H0V25.2102L0.46432 24.8406C0.545789 24.7727 2.49597 23.1694 5.55981 22.3668C8.3991 21.623 12.7756 21.4376 17.5019 24.7786C21.7297 27.7672 28.9074 23.484 28.9794 23.4403L30.9375 22.3035V3.86719H25.7812ZM25.7812 20.625H18.0469V18.0469H25.7812V20.625Z" fill="#03DBE6"/>
<path d="M21.1829 28.4102C19.4031 28.4102 17.5994 28.0048 16.0138 26.8839C12.902 24.6842 9.6378 23.9949 6.31177 24.8354C3.77309 25.4769 2.12678 26.8114 2.11045 26.8248L0 28.4072V44H30.9375V25.3325L30.3187 25.6433C30.0658 25.7971 25.7012 28.4101 21.1829 28.4102ZM25.7812 38.6719H5.15625V36.0937H25.7812V38.6719ZM25.7812 33.5156H5.15625V30.9375H25.7812V33.5156Z" fill="#03DBE6"/>
<path d="M7.73438 0H23.2031V6.44531H7.73438V0Z" fill="#03DBE6"/>
</svg>
