<svg width="21" height="20" viewBox="0 0 21 20" fill="none" xmlns="http://www.w3.org/2000/svg">
<path d="M20.7575 0.242683C20.6393 0.13075 20.4899 0.0532513 20.327 0.0192998C20.164 -0.0146517 19.9943 -0.00364489 19.8377 0.0510261L0.565339 6.71735C0.399131 6.77732 0.256035 6.88397 0.155058 7.02313C0.0540804 7.16229 0 7.32738 0 7.49648C0 7.66557 0.0540804 7.83066 0.155058 7.96982C0.256035 8.10899 0.399131 8.21563 0.565339 8.2756L8.09032 11.1338L13.6443 5.83406L14.8794 7.009L9.29922 12.3171L12.3127 19.475C12.3776 19.6301 12.49 19.763 12.6353 19.8566C12.7805 19.9502 12.952 20.0002 13.1274 20C13.3044 19.9965 13.4762 19.9421 13.6201 19.844C13.764 19.7458 13.8732 19.6084 13.9333 19.45L20.9415 1.11764C21.0012 0.970209 21.0156 0.809679 20.983 0.654765C20.9504 0.49985 20.8722 0.356935 20.7575 0.242683Z" fill="#FEAF66"/>
</svg>
