<svg width="25" height="25" viewBox="0 0 25 25" fill="none" xmlns="http://www.w3.org/2000/svg">
<path d="M12.5048 9.09624C11.6227 9.09624 10.7967 9.42036 10.1713 10.0127C9.5489 10.6051 9.20375 11.3874 9.20375 12.2229C9.20375 13.0583 9.5489 13.8406 10.1713 14.433C10.7967 15.0226 11.6227 15.3495 12.5048 15.3495C13.3868 15.3495 14.2128 15.0226 14.8382 14.433C15.4607 13.8406 15.8059 13.0583 15.8059 12.2229C15.8059 11.3874 15.4607 10.6051 14.8382 10.0127C14.5328 9.72116 14.1692 9.49001 13.7686 9.33268C13.368 9.17535 12.9385 9.09498 12.5048 9.09624ZM24.6677 15.6764L22.7384 14.1145C22.8298 13.5836 22.877 13.0415 22.877 12.5023C22.877 11.963 22.8298 11.4181 22.7384 10.8901L24.6677 9.32815C24.8134 9.20998 24.9177 9.05258 24.9667 8.8769C25.0157 8.70121 25.0071 8.51556 24.942 8.34462L24.9155 8.27198C24.3845 6.86567 23.5889 5.56212 22.5673 4.42448L22.5142 4.3658C22.3901 4.22764 22.2247 4.12832 22.0399 4.08094C21.8551 4.03355 21.6594 4.04033 21.4787 4.10036L19.0833 4.90786C18.1983 4.22051 17.213 3.67845 16.1451 3.30125L15.682 0.929043C15.647 0.750338 15.5555 0.585933 15.4195 0.45767C15.2836 0.329407 15.1097 0.243358 14.9209 0.210956L14.8412 0.196985C13.3072 -0.0656617 11.6906 -0.0656617 10.1566 0.196985L10.0769 0.210956C9.88814 0.243358 9.7142 0.329407 9.57826 0.45767C9.44231 0.585933 9.35079 0.750338 9.31585 0.929043L8.84975 3.31242C7.79196 3.69263 6.80656 4.23338 5.93219 4.91345L3.51909 4.10036C3.33845 4.03985 3.14264 4.03283 2.95769 4.08024C2.77274 4.12766 2.6074 4.22726 2.48364 4.3658L2.43054 4.42448C1.4107 5.56333 0.615319 6.86656 0.0823378 8.27198L0.0557877 8.34462C-0.0769624 8.69389 0.0321878 9.08506 0.330138 9.32815L2.28304 10.9068C2.19159 11.4321 2.14734 11.9686 2.14734 12.4995C2.14734 13.0359 2.19159 13.5724 2.28304 14.0921L0.336038 15.6708C0.190295 15.789 0.0859852 15.9464 0.0369784 16.122C-0.0120284 16.2977 -0.00341009 16.4834 0.0616877 16.6543L0.0882377 16.727C0.622188 18.1324 1.40984 19.4317 2.43644 20.5745L2.48954 20.6331C2.6136 20.7713 2.77895 20.8706 2.96379 20.918C3.14863 20.9654 3.34429 20.9586 3.52499 20.8986L5.93809 20.0855C6.81719 20.7701 7.79659 21.3121 8.85565 21.6865L9.32175 24.0699C9.35669 24.2486 9.44821 24.413 9.58416 24.5413C9.7201 24.6695 9.89404 24.7556 10.0828 24.788L10.1625 24.802C11.7116 25.066 13.298 25.066 14.8471 24.802L14.9267 24.788C15.1156 24.7556 15.2895 24.6695 15.4254 24.5413C15.5614 24.413 15.6529 24.2486 15.6879 24.0699L16.151 21.6977C17.2189 21.3177 18.2042 20.7784 19.0892 20.0911L21.4846 20.8986C21.6652 20.9591 21.8611 20.9661 22.046 20.9187C22.231 20.8713 22.3963 20.7717 22.5201 20.6331L22.5732 20.5745C23.5998 19.4261 24.3874 18.1324 24.9214 16.727L24.9479 16.6543C25.0748 16.3078 24.9656 15.9195 24.6677 15.6764ZM12.5048 17.1349C9.64035 17.1349 7.31869 14.9359 7.31869 12.2229C7.31869 9.50977 9.64035 7.3108 12.5048 7.3108C15.3693 7.3108 17.6909 9.50977 17.6909 12.2229C17.6909 14.9359 15.3693 17.1349 12.5048 17.1349Z" fill="#FCB26E"/>
</svg>
