<svg width="27" height="26" viewBox="0 0 27 26" fill="none" xmlns="http://www.w3.org/2000/svg">
<path d="M9.09225 25.7492C10.21 25.7492 11.1161 24.8431 11.1161 23.7253C11.1161 22.6075 10.21 21.7014 9.09225 21.7014C7.97449 21.7014 7.06836 22.6075 7.06836 23.7253C7.06836 24.8431 7.97449 25.7492 9.09225 25.7492Z" fill="#FCB26E"/>
<path d="M19.6174 25.7492C20.7352 25.7492 21.6413 24.8431 21.6413 23.7253C21.6413 22.6075 20.7352 21.7014 19.6174 21.7014C18.4996 21.7014 17.5935 22.6075 17.5935 23.7253C17.5935 24.8431 18.4996 25.7492 19.6174 25.7492Z" fill="#FCB26E"/>
<path d="M16.1604 12.3105C15.6357 12.3159 15.1189 12.1825 14.6623 11.924C14.2057 11.6654 13.8254 11.2908 13.5601 10.8381C13.2947 10.3855 13.1536 9.8707 13.151 9.34596C13.1485 8.82122 13.2846 8.30512 13.5456 7.84988L15.3995 4.7007H5.62L5.2557 3.54303C5.21568 3.41873 5.14619 3.30596 5.05315 3.21433C4.96011 3.1227 4.84629 3.05493 4.72139 3.01682L1.4022 1.99678C1.30014 1.96541 1.19291 1.95446 1.08661 1.96454C0.98032 1.97463 0.877053 2.00554 0.782709 2.05554C0.592173 2.1565 0.449548 2.32901 0.386209 2.53513C0.32287 2.74125 0.344006 2.96409 0.444968 3.15463C0.545929 3.34516 0.718445 3.48779 0.924565 3.55113L3.83088 4.44164L7.53865 16.1559L6.21907 17.2407L6.11383 17.346C5.7875 17.7239 5.60261 18.2034 5.59079 18.7025C5.57898 19.2017 5.74097 19.6894 6.04907 20.0823C6.26972 20.3506 6.55011 20.5636 6.8678 20.7042C7.1855 20.8447 7.53168 20.909 7.87867 20.8919H21.3902C21.6049 20.8919 21.8108 20.8066 21.9626 20.6547C22.1144 20.5029 22.1997 20.297 22.1997 20.0823C22.1997 19.8676 22.1144 19.6617 21.9626 19.5098C21.8108 19.358 21.6049 19.2727 21.3902 19.2727H7.74914C7.65591 19.2696 7.56509 19.2424 7.48543 19.1938C7.40577 19.1453 7.33998 19.0771 7.2944 18.9957C7.24883 18.9143 7.22501 18.8225 7.22525 18.7292C7.22549 18.636 7.24979 18.5443 7.29578 18.4632L9.24682 16.8441H21.7383C21.9232 16.8495 22.1044 16.7913 22.2517 16.6794C22.399 16.5674 22.5035 16.4084 22.5479 16.2288L23.5112 12.3105H16.1604Z" fill="#FCB26E"/>
<path d="M19.9009 0.766244L15.2702 8.74848C15.1625 8.90661 15.1006 9.09148 15.0915 9.28261C15.0824 9.47373 15.1264 9.66365 15.2186 9.83131C15.3108 9.99896 15.4476 10.1378 15.6139 10.2325C15.7802 10.3271 15.9695 10.3739 16.1607 10.3676H25.4301C25.6214 10.3739 25.8106 10.3271 25.9769 10.2325C26.1432 10.1378 26.28 9.99896 26.3722 9.83131C26.4645 9.66365 26.5085 9.47373 26.4993 9.28261C26.4902 9.09148 26.4284 8.90661 26.3207 8.74848L21.69 0.766244C21.5987 0.610044 21.468 0.480479 21.3111 0.390438C21.1541 0.300398 20.9764 0.253021 20.7954 0.253021C20.6145 0.253021 20.4367 0.300398 20.2798 0.390438C20.1228 0.480479 19.9922 0.610044 19.9009 0.766244Z" fill="#FCB26E"/>
</svg>
