<svg width="34" height="35" viewBox="0 0 34 35" fill="none" xmlns="http://www.w3.org/2000/svg">
<path d="M28.1276 11.1111C25.9443 7.09748 21.7777 4.375 17 4.375C12.2247 4.375 8.06013 7.09475 5.87589 11.105C2.30383 12.7507 0 16.3752 0 20.4167C0 26.0449 4.44922 30.625 9.91664 30.625C11.0531 30.625 12.1621 30.4215 13.2197 30.0359C14.4147 30.4185 15.6842 30.625 17 30.625C18.3163 30.625 19.5864 30.4184 20.7818 30.0355C21.8408 30.4217 22.9491 30.625 24.0833 30.625C29.5508 30.625 34 26.0449 34 20.4167C34 16.3718 31.6984 12.7564 28.1276 11.1111Z" fill="#14191E"/>
<path d="M17 5.83331C23.2491 5.83331 28.3333 11.0671 28.3333 17.5C28.3333 19.626 27.7691 21.6149 26.7999 23.3333H7.20015C6.23095 21.6149 5.66663 19.626 5.66663 17.5C5.66663 11.0671 10.7509 5.83331 17 5.83331Z" fill="#FF912C" fill-opacity="0.99"/>
<path d="M17 5.83331C23.2491 5.83331 28.3333 11.0671 28.3333 17.5C28.3333 19.626 27.7691 21.6149 26.7999 23.3333H7.20015C6.23095 21.6149 5.66663 19.626 5.66663 17.5C5.66663 11.0671 10.7509 5.83331 17 5.83331Z" fill="url(#paint0_linear)"/>
<path opacity="0.1" d="M7.79163 19.6875C7.79163 13.2546 12.8759 8.02081 19.125 8.02081C21.7085 8.02081 24.0852 8.92534 25.9936 10.4293C23.9206 7.6421 20.6655 5.83331 17 5.83331C10.7509 5.83331 5.66663 11.0671 5.66663 17.5C5.66663 19.626 6.23088 21.6149 7.20008 23.3333H8.38948C8.01648 22.1835 7.79163 20.9652 7.79163 19.6875Z" fill="#575151"/>
<path d="M12.0421 10.1187C12.4333 10.1187 12.7505 9.79222 12.7505 9.3895C12.7505 8.98678 12.4333 8.66031 12.0421 8.66031C11.6509 8.66031 11.3337 8.98678 11.3337 9.3895C11.3337 9.79222 11.6509 10.1187 12.0421 10.1187Z" fill="#303C42"/>
<path d="M17 8.75C17.3912 8.75 17.7083 8.42353 17.7083 8.02081C17.7083 7.61809 17.3912 7.29163 17 7.29163C16.6088 7.29163 16.2916 7.61809 16.2916 8.02081C16.2916 8.42353 16.6088 8.75 17 8.75Z" fill="#303C42"/>
<path d="M8.41258 13.8535C8.80379 13.8535 9.12093 13.5271 9.12093 13.1243C9.12093 12.7216 8.80379 12.3951 8.41258 12.3951C8.02136 12.3951 7.70422 12.7216 7.70422 13.1243C7.70422 13.5271 8.02136 13.8535 8.41258 13.8535Z" fill="#303C42"/>
<path d="M7.08336 18.9584C7.47457 18.9584 7.79171 18.6319 7.79171 18.2292C7.79171 17.8265 7.47457 17.5 7.08336 17.5C6.69214 17.5 6.375 17.8265 6.375 18.2292C6.375 18.6319 6.69214 18.9584 7.08336 18.9584Z" fill="#303C42"/>
<path d="M26.9166 18.9584C27.3078 18.9584 27.625 18.6319 27.625 18.2292C27.625 17.8265 27.3078 17.5 26.9166 17.5C26.5254 17.5 26.2083 17.8265 26.2083 18.2292C26.2083 18.6319 26.5254 18.9584 26.9166 18.9584Z" fill="#303C42"/>
<path d="M25.5858 13.8561C25.977 13.8561 26.2942 13.5296 26.2942 13.1269C26.2942 12.7241 25.977 12.3977 25.5858 12.3977C25.1946 12.3977 24.8774 12.7241 24.8774 13.1269C24.8774 13.5296 25.1946 13.8561 25.5858 13.8561Z" fill="#303C42"/>
<path d="M21.959 10.1173C22.3502 10.1173 22.6673 9.79078 22.6673 9.38806C22.6673 8.98534 22.3502 8.65887 21.959 8.65887C21.5678 8.65887 21.2506 8.98534 21.2506 9.38806C21.2506 9.79078 21.5678 10.1173 21.959 10.1173Z" fill="#303C42"/>
<path d="M17 20.4167C18.5619 20.4167 19.8333 19.1079 19.8333 17.5C19.8333 16.4027 19.2343 15.4563 18.3618 14.9585L17.6945 11.5243C17.6281 11.1825 17.3376 10.9376 17 10.9376C16.6625 10.9376 16.372 11.1825 16.3056 11.5243L15.6383 14.9585C14.7658 15.4563 14.1667 16.4027 14.1667 17.5C14.1666 19.1079 15.438 20.4167 17 20.4167Z" fill="#303C42"/>
<path d="M17 18.9583C17.7824 18.9583 18.4167 18.3054 18.4167 17.5C18.4167 16.6946 17.7824 16.0417 17 16.0417C16.2176 16.0417 15.5834 16.6946 15.5834 17.5C15.5834 18.3054 16.2176 18.9583 17 18.9583Z" fill="#4E4E4E"/>
<path d="M19.125 26.25H14.875C14.4835 26.25 14.1666 26.5761 14.1666 26.9792C14.1666 27.3822 14.4835 27.7084 14.875 27.7084H19.125C19.5165 27.7084 19.8333 27.3822 19.8333 26.9792C19.8333 26.5761 19.5165 26.25 19.125 26.25Z" fill="#303C42"/>
<path d="M9.91663 29.1667C5.22947 29.1667 1.41663 25.2417 1.41663 20.4167C1.41663 17.5827 2.74893 14.999 4.90475 13.3748C4.48559 14.6737 4.24998 16.058 4.24998 17.5C4.24998 22.499 6.98001 26.8514 10.9846 29.0671C10.6307 29.1127 10.2779 29.1667 9.91663 29.1667Z" fill="#4E4E4E"/>
<path opacity="0.2" d="M2.83339 20.4167C2.83339 18.5536 3.4181 16.8053 4.42508 15.3601C4.53625 14.6799 4.69768 14.0168 4.90487 13.3749C2.74899 14.9991 1.41675 17.5828 1.41675 20.4168C1.41675 25.2418 5.2296 29.1668 9.91675 29.1668C10.0943 29.1668 10.2671 29.1364 10.4418 29.1178C6.1723 28.6573 2.83339 24.9316 2.83339 20.4167Z" fill="white"/>
<path d="M8.16699 24.7917H25.833C23.754 27.455 20.5695 29.1667 17 29.1667C13.4306 29.1667 10.246 27.455 8.16699 24.7917Z" fill="#4E4E4E"/>
<path opacity="0.1" d="M24.0409 24.7917C22.1384 27.2288 19.3058 28.8522 16.104 29.1132C16.4011 29.1374 16.6969 29.1667 17 29.1667C20.5695 29.1667 23.7539 27.455 25.8329 24.7917H24.0409Z" fill="#010101"/>
<path d="M24.0833 29.1667C23.7227 29.1667 23.37 29.1125 23.0162 29.0666C27.0204 26.8508 29.75 22.4987 29.75 17.5C29.75 16.0567 29.5139 14.6714 29.094 13.3714C31.2511 14.9954 32.5833 17.5785 32.5833 20.4166C32.5833 25.2417 28.7705 29.1667 24.0833 29.1667Z" fill="#1B232F"/>
<path opacity="0.1" d="M29.094 13.3714C29.3013 14.0131 29.4629 14.6759 29.5743 15.356C30.5819 16.8014 31.1666 18.5505 31.1666 20.4166C31.1666 24.9312 27.8283 28.6567 23.5593 29.1175C23.7336 29.1361 23.9062 29.1666 24.0833 29.1666C28.7705 29.1666 32.5833 25.2416 32.5833 20.4166C32.5833 17.5785 31.2511 14.9954 29.094 13.3714Z" fill="#A9A3A3"/>
<path d="M28.1276 11.1111C25.9443 7.09748 21.7777 4.375 17 4.375C12.2247 4.375 8.06013 7.09475 5.87589 11.105C2.30383 12.7507 0 16.3752 0 20.4167C0 26.0449 4.44922 30.625 9.91664 30.625C11.0531 30.625 12.1621 30.4215 13.2197 30.0359C14.4147 30.4185 15.6842 30.625 17 30.625C18.3163 30.625 19.5864 30.4184 20.7818 30.0355C21.8408 30.4217 22.9491 30.625 24.0833 30.625C29.5508 30.625 34 26.0449 34 20.4167C34 16.3718 31.6984 12.7564 28.1276 11.1111Z" fill="url(#paint1_linear)"/>
<defs>
<linearGradient id="paint0_linear" x1="7.16349" y1="11.6125" x2="27.9051" y2="21.0079" gradientUnits="userSpaceOnUse">
<stop stop-color="white" stop-opacity="0"/>
<stop offset="1" stop-color="white" stop-opacity="0.2"/>
</linearGradient>
<linearGradient id="paint1_linear" x1="2.7013" y1="12.1902" x2="32.6157" y2="25.7357" gradientUnits="userSpaceOnUse">
<stop stop-color="white" stop-opacity="0.2"/>
<stop offset="1" stop-color="white" stop-opacity="0"/>
</linearGradient>
</defs>
</svg>
