<svg width="39" height="39" viewBox="0 0 39 39" fill="none" xmlns="http://www.w3.org/2000/svg">
<path fill-rule="evenodd" clip-rule="evenodd" d="M19.4938 29.5183C15.9748 29.5183 12.3996 27.4293 10.3131 24.6644C0.302607 24.6644 0 38.965 0 38.965H38.9851C38.9851 38.965 39.7709 24.6009 28.5134 24.6009C26.4294 27.4 23.0128 29.5183 19.4938 29.5183Z" fill="#ACFFC3"/>
<path fill-rule="evenodd" clip-rule="evenodd" d="M27.8792 12.3746C27.8792 16.4891 24.1234 24.3568 19.4867 24.3568C14.8573 24.3568 11.0991 16.4866 11.0991 12.3746C11.0991 8.26252 14.8549 4.92407 19.4867 4.92407C24.1234 4.92651 27.8792 8.26496 27.8792 12.3746Z" fill="#ACFFC3"/>
<path fill-rule="evenodd" clip-rule="evenodd" d="M31.6226 8.82381C31.6226 8.05265 30.5489 7.43035 29.2164 7.42547V5.83678C29.2164 5.60006 29.3067 0.0579529 19.5159 0.0579529C9.72996 0.0579529 9.82026 5.60006 9.82026 5.83678V7.4816C9.79586 7.4816 9.77633 7.47428 9.75437 7.47428C8.42924 7.47428 7.36279 8.08681 7.36279 8.84577V15.5666C7.36279 16.3207 8.43168 16.9356 9.75437 16.9356C11.0771 16.9356 12.1508 16.3207 12.1508 15.5666V8.84577C12.1508 8.74084 12.0849 8.64566 12.0459 8.54805V6.71532C12.0459 6.54693 11.3431 2.36412 19.5159 2.36412C27.6912 2.36412 26.8419 6.54693 26.8419 6.71532V8.64566C26.8273 8.70667 26.7809 8.76036 26.7809 8.82381V15.6984C26.7809 16.472 27.862 17.0992 29.2018 17.0992C29.2311 17.0992 29.253 17.0894 29.2823 17.0894V19.6005H26.881V21.9677H31.6471L31.6226 8.82381Z" fill="#ACFFC3"/>
</svg>
