<svg width="104" height="78" viewBox="0 0 104 78" fill="none" xmlns="http://www.w3.org/2000/svg">
<path d="M19.1667 27.4324H84.5001V54.8493C84.5001 55.8574 84.2889 56.8556 83.8785 57.787C83.468 58.7184 82.8665 59.5647 82.1082 60.2775C81.3498 60.9904 80.4495 61.5559 79.4587 61.9416C78.4679 62.3274 77.4059 62.526 76.3334 62.526H19.1667V27.4324Z" fill="#AAE1F9"/>
<path d="M84.5001 31.8191V27.4324H19.1667V62.526H78.6668V58.1393H44.8334C39.2639 58.1393 33.9224 56.0595 29.9842 52.3575C26.0459 48.6555 23.8334 43.6346 23.8334 38.3991V31.8191H84.5001Z" fill="#57B7EB"/>
<path d="M68.1668 38.3991C65.1928 38.3971 62.284 39.2175 59.8025 40.7583C57.3211 42.2991 55.3768 44.4922 54.2118 47.0642C53.0467 49.6363 52.7125 52.4738 53.2508 55.2231C53.789 57.9725 55.1758 60.5122 57.2386 62.526H79.0949C81.1577 60.5122 82.5446 57.9725 83.0828 55.2231C83.621 52.4738 83.2868 49.6363 82.1218 47.0642C80.9568 44.4922 79.0124 42.2991 76.531 40.7583C74.0496 39.2175 71.1407 38.3971 68.1668 38.3991Z" fill="#57B7EB"/>
<path d="M19.1667 9.88559V27.4324H84.5001V9.88559H19.1667ZM34.3334 23.0457C33.4104 23.0457 32.5082 22.7884 31.7408 22.3064C30.9733 21.8244 30.3752 21.1393 30.022 20.3377C29.6688 19.5361 29.5764 18.6541 29.7564 17.8032C29.9365 16.9523 30.3809 16.1706 31.0336 15.5571C31.6862 14.9436 32.5178 14.5258 33.423 14.3566C34.3282 14.1873 35.2666 14.2742 36.1193 14.6062C36.972 14.9382 37.7008 15.5005 38.2136 16.2219C38.7264 16.9433 39.0001 17.7914 39.0001 18.659C39.0001 19.8224 38.5084 20.9382 37.6333 21.7609C36.7581 22.5835 35.5711 23.0457 34.3334 23.0457ZM69.3334 23.0457C68.4105 23.0457 67.5082 22.7884 66.7408 22.3064C65.9733 21.8244 65.3752 21.1393 65.022 20.3377C64.6688 19.5361 64.5764 18.6541 64.7564 17.8032C64.9365 16.9523 65.381 16.1706 66.0336 15.5571C66.6863 14.9436 67.5178 14.5258 68.423 14.3566C69.3283 14.1873 70.2666 14.2742 71.1193 14.6062C71.972 14.9382 72.7009 15.5005 73.2136 16.2219C73.7264 16.9433 74.0001 17.7914 74.0001 18.659C74.0001 19.8224 73.5084 20.9382 72.6333 21.7609C71.7581 22.5835 70.5711 23.0457 69.3334 23.0457Z" fill="#6919A9"/>
<path d="M29.6666 18.659C29.6675 17.9805 29.8367 17.3115 30.1607 16.7051C30.4847 16.0988 30.9547 15.5718 31.5333 15.1661C31.3181 14.8903 31.0372 14.6657 30.713 14.5105C30.3888 14.3553 30.0304 14.2737 29.6666 14.2723C28.4289 14.2723 27.2419 13.8101 26.3668 12.9875C25.4916 12.1648 24.9999 11.049 24.9999 9.88559H20.3333C20.336 12.2116 21.3203 14.4417 23.07 16.0864C24.8197 17.7312 27.1921 18.6564 29.6666 18.659Z" fill="#6919A9"/>
<path d="M64.6663 18.659C64.6673 17.9805 64.8364 17.3115 65.1605 16.7051C65.4845 16.0988 65.9545 15.5718 66.533 15.1661C66.3179 14.8903 66.037 14.6657 65.7128 14.5105C65.3886 14.3553 65.0302 14.2737 64.6663 14.2723C63.4287 14.2723 62.2417 13.8101 61.3665 12.9875C60.4913 12.1648 59.9997 11.049 59.9997 9.88559H55.333C55.3358 12.2116 56.32 14.4417 58.0697 16.0864C59.8195 17.7312 62.1918 18.6564 64.6663 18.659Z" fill="#6919A9"/>
<path d="M33.1668 5.49884C34.4045 5.49884 35.5915 5.96101 36.4667 6.78368C37.3418 7.60634 37.8335 8.72212 37.8335 9.88555H42.5002C42.5002 8.15033 41.9528 6.45408 40.9272 5.0113C39.9017 3.56852 38.444 2.44401 36.7386 1.77998C35.0331 1.11594 33.1565 0.942196 31.346 1.28072C29.5355 1.61924 27.8725 2.45483 26.5672 3.68181C25.2619 4.90879 24.373 6.47207 24.0128 8.17394C23.6527 9.87581 23.8375 11.6399 24.544 13.243C25.2504 14.8461 26.4467 16.2163 27.9815 17.1804C29.5164 18.1444 31.3209 18.6589 33.1668 18.6589C33.7857 18.6589 34.3792 18.4279 34.8168 18.0165C35.2543 17.6052 35.5002 17.0473 35.5002 16.4656C35.5002 15.8839 35.2543 15.326 34.8168 14.9147C34.3792 14.5033 33.7857 14.2722 33.1668 14.2722C31.9292 14.2722 30.7422 13.8101 29.867 12.9874C28.9918 12.1647 28.5002 11.049 28.5002 9.88555C28.5002 8.72212 28.9918 7.60634 29.867 6.78368C30.7422 5.96101 31.9292 5.49884 33.1668 5.49884V5.49884Z" fill="#AAE1F9"/>
<path d="M26.1667 34.0125H35.5001V42.7859H26.1667V34.0125Z" fill="#E29C5B"/>
<path d="M41.3335 34.0125H50.6668V42.7859H41.3335V34.0125Z" fill="#E29C5B"/>
<path d="M25.8477 48.4123H35.181V57.1857H25.8477V48.4123Z" fill="#D32E5E"/>
<path d="M41.3335 48.2692H50.6668V57.0426H41.3335V48.2692Z" fill="#E29C5B"/>
<path d="M56.5 34.0125H65.8333V42.7859H56.5V34.0125Z" fill="#E29C5B"/>
<path d="M68.1671 5.49884C69.4048 5.49884 70.5917 5.96101 71.4669 6.78368C72.3421 7.60634 72.8338 8.72212 72.8338 9.88555H77.5004C77.5004 8.15033 76.953 6.45408 75.9275 5.0113C74.9019 3.56852 73.4442 2.44401 71.7388 1.77998C70.0334 1.11594 68.1567 0.942196 66.3462 1.28072C64.5357 1.61924 62.8727 2.45483 61.5674 3.68181C60.2621 4.90879 59.3732 6.47207 59.0131 8.17394C58.653 9.87581 58.8378 11.6399 59.5442 13.243C60.2506 14.8461 61.4469 16.2163 62.9818 17.1804C64.5166 18.1444 66.3211 18.6589 68.1671 18.6589C68.7859 18.6589 69.3794 18.4279 69.817 18.0165C70.2546 17.6052 70.5004 17.0473 70.5004 16.4656C70.5004 15.8839 70.2546 15.326 69.817 14.9147C69.3794 14.5033 68.7859 14.2722 68.1671 14.2722C66.9294 14.2722 65.7424 13.8101 64.8673 12.9874C63.9921 12.1647 63.5004 11.049 63.5004 9.88555C63.5004 8.72212 63.9921 7.60634 64.8673 6.78368C65.7424 5.96101 66.9294 5.49884 68.1671 5.49884V5.49884Z" fill="#AAE1F9"/>
<path d="M22.6667 13.1756V9.88559H19.1667V27.4324H84.5001V24.1424H34.3334C31.2392 24.1424 28.2718 22.9869 26.0838 20.9303C23.8959 18.8736 22.6667 16.0842 22.6667 13.1756V13.1756Z" fill="#56158A"/>
<path d="M61.1665 7.69221C61.1656 5.90211 61.7514 4.1552 62.8442 2.68918C61.2113 3.7541 59.983 5.28149 59.3384 7.04864C58.6938 8.8158 58.6666 10.7303 59.2607 12.513C59.8549 14.2957 61.0393 15.8534 62.6413 16.959C64.2433 18.0646 66.1791 18.6602 68.1665 18.659C68.7853 18.659 69.3788 18.4279 69.8164 18.0165C70.254 17.6052 70.4998 17.0473 70.4998 16.4656C68.0253 16.463 65.653 15.5378 63.9032 13.8931C62.1535 12.2483 61.1693 10.0183 61.1665 7.69221V7.69221Z" fill="#57B7EB"/>
<path d="M26.1665 7.69221C26.1656 5.90211 26.7514 4.1552 27.8442 2.68918C26.2113 3.7541 24.983 5.28149 24.3384 7.04864C23.6938 8.8158 23.6666 10.7303 24.2607 12.513C24.8549 14.2957 26.0393 15.8534 27.6413 16.959C29.2433 18.0646 31.1791 18.6602 33.1665 18.659C33.7853 18.659 34.3788 18.4279 34.8164 18.0165C35.254 17.6052 35.4998 17.0473 35.4998 16.4656C33.0253 16.463 30.653 15.5378 28.9032 13.8931C27.1535 12.2483 26.1693 10.0183 26.1665 7.69221V7.69221Z" fill="#57B7EB"/>
<path d="M65.8334 38.5845C62.5555 39.0603 59.5353 40.5367 57.2385 42.7858H65.8334V38.5845Z" fill="#FCBC04"/>
<path d="M43.6668 36.2058V34.0125H41.3335V42.7859H50.6668V40.5925H48.3335C47.0958 40.5925 45.9088 40.1303 45.0337 39.3077C44.1585 38.485 43.6668 37.3692 43.6668 36.2058Z" fill="#FCBC04"/>
<path d="M28.5011 36.2058V34.0124H26.1677V42.7858H35.5011V40.5925H33.1677C31.9301 40.5925 30.7431 40.1303 29.8679 39.3077C28.9927 38.485 28.5011 37.3692 28.5011 36.2058Z" fill="#FCBC04"/>
<path d="M28.4947 50.6056V48.4123H26.1614V57.1857H35.4947V54.9923H33.1614C31.9237 54.9923 30.7367 54.5302 29.8615 53.7075C28.9864 52.8848 28.4947 51.7691 28.4947 50.6056Z" fill="#D32E5E"/>
<path d="M58.8333 36.2058V34.0125H56.5V42.7859H65.8333V40.5925H63.5C62.2623 40.5925 61.0753 40.1303 60.2002 39.3077C59.325 38.485 58.8333 37.3692 58.8333 36.2058Z" fill="#FCBC04"/>
<path d="M43.6668 50.4626V48.2692H41.3335V57.0426H50.6668V54.8493H48.3335C47.0958 54.8493 45.9088 54.3871 45.0337 53.5645C44.1585 52.7418 43.6668 51.626 43.6668 50.4626Z" fill="#FCBC04"/>
<path d="M61.2075 40.0047C59.7309 40.7204 58.3899 41.66 57.2385 42.7858H65.8334V40.5925H63.5C62.6944 40.5882 61.9039 40.3855 61.2075 40.0047V40.0047Z" fill="#E59730"/>
<path d="M71.6679 64.7193C80.0442 64.7193 86.8346 58.3363 86.8346 50.4625C86.8346 42.5887 80.0442 36.2057 71.6679 36.2057C63.2916 36.2057 56.5012 42.5887 56.5012 50.4625C56.5012 58.3363 63.2916 64.7193 71.6679 64.7193Z" fill="#C4F236"/>
<path d="M75.1666 61.4293C72.3781 61.4324 69.6429 60.7119 67.2621 59.3473C64.8813 57.9827 62.9474 56.0269 61.6734 53.6953C60.3994 51.3637 59.8346 48.7469 60.0414 46.1329C60.2482 43.519 61.2185 41.0094 62.8454 38.8806C61.0542 40.0832 59.5632 41.6381 58.476 43.4373C57.3888 45.2364 56.7315 47.2366 56.55 49.2987C56.3684 51.3608 56.6668 53.4353 57.4245 55.378C58.1822 57.3207 59.381 59.0849 60.9374 60.5481C62.4939 62.0112 64.3708 63.138 66.4374 63.8502C68.5041 64.5625 70.7111 64.843 72.9047 64.6723C75.0984 64.5016 77.2263 63.8838 79.1402 62.8618C81.0542 61.8399 82.7084 60.4383 83.9878 58.7545C81.419 60.4945 78.3328 61.4304 75.1666 61.4293V61.4293Z" fill="#A1D51C"/>
<path d="M71.6671 62.526C78.7547 62.526 84.5004 57.125 84.5004 50.4626C84.5004 43.8001 78.7547 38.3991 71.6671 38.3991C64.5794 38.3991 58.8337 43.8001 58.8337 50.4626C58.8337 57.125 64.5794 62.526 71.6671 62.526Z" fill="#AAE611"/>
<path d="M71.6668 38.3991C69.7029 38.3992 67.7654 38.8239 66.0042 39.6405C64.2429 40.4571 62.7051 41.6436 61.5098 43.1083C63.9764 41.3162 67.0533 40.4306 70.1644 40.6172C73.2756 40.8038 76.2078 42.0497 78.4121 44.1219C80.6165 46.194 81.942 48.9503 82.1405 51.8748C82.339 54.7993 81.3968 57.6916 79.4904 60.0102C81.615 58.4756 83.1747 56.3539 83.9506 53.9432C84.7265 51.5325 84.6796 48.9539 83.8164 46.5695C82.9532 44.1852 81.3171 42.1149 79.138 40.6495C76.9589 39.1841 74.3461 38.3971 71.6668 38.3991V38.3991Z" fill="#7AB92D"/>
<path d="M80.7412 58.9925C78.329 61.2298 75.0733 62.4794 71.6846 62.4688C68.2959 62.4581 65.0493 61.188 62.6531 58.9355C60.2569 56.6831 58.9057 53.6312 58.8944 50.4458C58.883 47.2604 60.2124 44.2001 62.5925 41.9326L80.7412 58.9925Z" fill="#7AB92D"/>
<path d="M71.6666 52.6559C72.9553 52.6559 73.9999 51.6739 73.9999 50.4626C73.9999 49.2512 72.9553 48.2692 71.6666 48.2692C70.3779 48.2692 69.3333 49.2512 69.3333 50.4626C69.3333 51.6739 70.3779 52.6559 71.6666 52.6559Z" fill="#FCBC04"/>
<path d="M73.3164 52.0133L70.017 48.9119C69.7942 49.1142 69.6164 49.3562 69.4941 49.6238C69.3718 49.8914 69.3075 50.1792 69.3048 50.4705C69.3021 50.7617 69.3611 51.0505 69.4784 51.3201C69.5958 51.5896 69.769 51.8345 69.9881 52.0405C70.2072 52.2464 70.4677 52.4093 70.7545 52.5196C71.0412 52.6298 71.3485 52.6853 71.6583 52.6828C71.9681 52.6803 72.2743 52.6198 72.559 52.5048C72.8436 52.3899 73.1011 52.2228 73.3164 52.0133Z" fill="#E59730"/>
<path d="M56.6097 61.4293H20.3333V10.9823H22.7355C22.9337 12.6219 23.5656 14.1888 24.5736 15.5399C25.5815 16.891 26.9334 17.9833 28.5058 18.7171C28.5611 20.1408 29.2037 21.4885 30.2976 22.4746C31.3914 23.4607 32.8506 24.008 34.3662 24.0004C35.8818 23.9929 37.3348 23.4311 38.4174 22.4341C39.5001 21.4371 40.1275 20.0832 40.1667 18.659C40.1667 18.3681 40.0438 18.0892 39.825 17.8835C39.6062 17.6779 39.3094 17.5623 39 17.5623C38.6906 17.5623 38.3938 17.6779 38.1751 17.8835C37.9563 18.0892 37.8333 18.3681 37.8333 18.659C37.8364 19.4546 37.5318 20.2241 36.9763 20.8244C36.4207 21.4247 35.6521 21.8147 34.8134 21.922C33.9748 22.0293 33.1232 21.8465 32.4172 21.4077C31.7113 20.9688 31.199 20.3038 30.9757 19.5363C31.6958 19.6814 32.4302 19.7549 33.1667 19.7557C34.0949 19.7557 34.9852 19.409 35.6416 18.792C36.2979 18.175 36.6667 17.3382 36.6667 16.4656C36.6667 15.5931 36.2979 14.7562 35.6416 14.1392C34.9852 13.5222 34.0949 13.1756 33.1667 13.1756C32.5244 13.1781 31.8938 13.0144 31.3439 12.7025C30.794 12.3906 30.346 11.9424 30.0489 11.4071C29.7519 10.8718 29.6173 10.27 29.6599 9.66757C29.7024 9.06516 29.9205 8.48537 30.2903 7.99169C30.66 7.49801 31.1671 7.10949 31.7561 6.86866C32.345 6.62783 32.9931 6.54399 33.6294 6.62631C34.2657 6.70863 34.8656 6.95395 35.3635 7.33539C35.8613 7.71683 36.2379 8.21969 36.452 8.78891H33.1667C32.8573 8.78891 32.5605 8.90445 32.3417 9.11012C32.1229 9.31578 32 9.59472 32 9.88558C32 10.1764 32.1229 10.4554 32.3417 10.661C32.5605 10.8667 32.8573 10.9823 33.1667 10.9823H54.1667C54.4761 10.9823 54.7729 10.8667 54.9917 10.661C55.2104 10.4554 55.3334 10.1764 55.3334 9.88558C55.3334 9.59472 55.2104 9.31578 54.9917 9.11012C54.7729 8.90445 54.4761 8.78891 54.1667 8.78891H43.5979C43.3033 6.38245 42.0775 4.16186 40.1541 2.54989C38.2306 0.937915 35.7436 0.0471344 33.1667 0.0471344C30.5897 0.0471344 28.1028 0.937915 26.1793 2.54989C24.2558 4.16186 23.0301 6.38245 22.7355 8.78891H19.1667C18.8572 8.78891 18.5605 8.90445 18.3417 9.11012C18.1229 9.31578 18 9.59472 18 9.88558V62.526C18 62.8169 18.1229 63.0958 18.3417 63.3015C18.5605 63.5071 18.8572 63.6227 19.1667 63.6227H56.6097C56.9191 63.6227 57.2159 63.5071 57.4347 63.3015C57.6534 63.0958 57.7764 62.8169 57.7764 62.526C57.7764 62.2351 57.6534 61.9562 57.4347 61.7505C57.2159 61.5449 56.9191 61.4293 56.6097 61.4293ZM33.1667 2.20885C35.1299 2.21115 37.0268 2.87712 38.5109 4.08517C39.995 5.29322 40.9674 6.96275 41.2505 8.78891H38.8833C38.6626 7.77238 38.1396 6.83558 37.3751 6.0873C36.6106 5.33903 35.6359 4.80999 34.5643 4.56163C33.4927 4.31328 32.3681 4.35579 31.3212 4.68424C30.2742 5.01268 29.3479 5.61359 28.6498 6.41716C27.9516 7.22072 27.5103 8.19398 27.3772 9.22389C27.244 10.2538 27.4243 11.2981 27.8973 12.2355C28.3703 13.1729 29.1165 13.9649 30.0493 14.5195C30.982 15.0742 32.063 15.3687 33.1667 15.369C33.4761 15.369 33.7728 15.4845 33.9916 15.6902C34.2104 15.8958 34.3333 16.1748 34.3333 16.4656C34.3333 16.7565 34.2104 17.0354 33.9916 17.2411C33.7728 17.4468 33.4761 17.5623 33.1667 17.5623C31.0007 17.5623 28.9235 16.7535 27.392 15.3138C25.8604 13.8742 25 11.9216 25 9.88558C25 7.84959 25.8604 5.89698 27.392 4.45731C28.9235 3.01765 31.0007 2.20885 33.1667 2.20885Z" fill="#39519D"/>
<path d="M63.5057 18.7171C63.561 20.1408 64.2036 21.4885 65.2974 22.4746C66.3913 23.4607 67.8505 24.008 69.3661 24.0004C70.8817 23.9929 72.3346 23.4311 73.4173 22.4341C74.5 21.4371 75.1273 20.0832 75.1665 18.659C75.1665 18.3681 75.0436 18.0892 74.8248 17.8835C74.606 17.6778 74.3093 17.5623 73.9999 17.5623C73.6904 17.5623 73.3937 17.6778 73.1749 17.8835C72.9561 18.0892 72.8332 18.3681 72.8332 18.659C72.8362 19.4546 72.5316 20.2241 71.9761 20.8244C71.4206 21.4247 70.652 21.8147 69.8133 21.922C68.9746 22.0293 68.1231 21.8465 67.4171 21.4077C66.7111 20.9688 66.1988 20.3038 65.9755 19.5363C66.6957 19.6814 67.43 19.7549 68.1665 19.7557C69.0948 19.7557 69.985 19.409 70.6414 18.792C71.2978 18.175 71.6665 17.3382 71.6665 16.4656C71.6665 15.5931 71.2978 14.7562 70.6414 14.1392C69.985 13.5222 69.0948 13.1756 68.1665 13.1756C67.5243 13.1781 66.8936 13.0144 66.3437 12.7025C65.7938 12.3906 65.3458 11.9424 65.0488 11.4071C64.7518 10.8718 64.6172 10.27 64.6597 9.66757C64.7023 9.06516 64.9204 8.48537 65.2901 7.99169C65.6598 7.49801 66.167 7.10949 66.7559 6.86866C67.3449 6.62783 67.993 6.54399 68.6293 6.62631C69.2656 6.70863 69.8655 6.95395 70.3633 7.33539C70.8612 7.71683 71.2378 8.21969 71.4519 8.78891H68.1665C67.8571 8.78891 67.5604 8.90445 67.3416 9.11011C67.1228 9.31578 66.9999 9.59472 66.9999 9.88558C66.9999 10.1764 67.1228 10.4554 67.3416 10.661C67.5604 10.8667 67.8571 10.9823 68.1665 10.9823H83.3332V26.3357H23.8332C23.5238 26.3357 23.227 26.4513 23.0082 26.6569C22.7894 26.8626 22.6665 27.1415 22.6665 27.4324C22.6665 27.7232 22.7894 28.0022 23.0082 28.2079C23.227 28.4135 23.5238 28.5291 23.8332 28.5291H83.3332V36.3089C83.3332 36.5997 83.4561 36.8787 83.6749 37.0843C83.8937 37.29 84.1905 37.4056 84.4999 37.4056C84.8093 37.4056 85.106 37.29 85.3248 37.0843C85.5436 36.8787 85.6665 36.5997 85.6665 36.3089V9.88558C85.6665 9.59472 85.5436 9.31578 85.3248 9.11011C85.106 8.90445 84.8093 8.78891 84.4999 8.78891H78.5977C78.398 7.08569 77.7301 5.46068 76.6596 4.07375C75.589 2.68683 74.1528 1.58577 72.4923 0.87892C70.8317 0.172066 69.004 -0.116236 67.1889 0.0423812C65.3739 0.200998 63.634 0.801068 62.1405 1.78355C60.647 2.76604 59.4514 4.09709 58.6712 5.64574C57.891 7.1944 57.5531 8.9073 57.6909 10.6159C57.8286 12.3246 58.4372 13.97 59.4568 15.3905C60.4764 16.8109 61.8718 17.9574 63.5057 18.7171V18.7171ZM68.1665 2.20885C70.1298 2.21115 72.0266 2.87712 73.5107 4.08517C74.9949 5.29322 75.9673 6.96275 76.2504 8.78891H73.8832C73.6625 7.77238 73.1395 6.83558 72.3749 6.0873C71.6104 5.33903 70.6357 4.80999 69.5641 4.56163C68.4925 4.31328 67.3679 4.35579 66.321 4.68424C65.2741 5.01268 64.3477 5.61359 63.6496 6.41716C62.9515 7.22072 62.5102 8.19398 62.377 9.22388C62.2438 10.2538 62.4242 11.2981 62.8972 12.2355C63.3702 13.1729 64.1164 13.9649 65.0491 14.5195C65.9818 15.0742 67.0628 15.3687 68.1665 15.369C68.4759 15.369 68.7727 15.4845 68.9915 15.6902C69.2103 15.8958 69.3332 16.1748 69.3332 16.4656C69.3332 16.7565 69.2103 17.0354 68.9915 17.2411C68.7727 17.4468 68.4759 17.5623 68.1665 17.5623C66.0006 17.5623 63.9234 16.7535 62.3918 15.3138C60.8603 13.8742 59.9999 11.9216 59.9999 9.88558C59.9999 7.84959 60.8603 5.89698 62.3918 4.45731C63.9234 3.01765 66.0006 2.20885 68.1665 2.20885Z" fill="#39519D"/>
<path d="M36.6669 34.0124C36.6669 33.7216 36.544 33.4426 36.3252 33.2369C36.1064 33.0313 35.8097 32.9157 35.5003 32.9157H26.1669C25.8575 32.9157 25.5607 33.0313 25.342 33.2369C25.1232 33.4426 25.0002 33.7216 25.0002 34.0124V42.7858C25.0002 43.0767 25.1232 43.3556 25.342 43.5613C25.5607 43.767 25.8575 43.8825 26.1669 43.8825H35.5003C35.8097 43.8825 36.1064 43.767 36.3252 43.5613C36.544 43.3556 36.6669 43.0767 36.6669 42.7858V34.0124ZM34.3336 41.6891H27.3336V35.1091H34.3336V41.6891Z" fill="#39519D"/>
<path d="M51.8332 34.0124C51.8332 33.7216 51.7103 33.4426 51.4915 33.2369C51.2727 33.0313 50.9759 32.9157 50.6665 32.9157H41.3332C41.0238 32.9157 40.727 33.0313 40.5082 33.2369C40.2894 33.4426 40.1665 33.7216 40.1665 34.0124V42.7858C40.1665 43.0767 40.2894 43.3556 40.5082 43.5613C40.727 43.767 41.0238 43.8825 41.3332 43.8825H50.6665C50.9759 43.8825 51.2727 43.767 51.4915 43.5613C51.7103 43.3556 51.8332 43.0767 51.8332 42.7858V34.0124ZM49.4998 41.6891H42.4998V35.1091H49.4998V41.6891Z" fill="#39519D"/>
<path d="M35.5003 47.1725H26.1669C25.8575 47.1725 25.5607 47.2881 25.342 47.4938C25.1232 47.6994 25.0002 47.9784 25.0002 48.2692V57.0426C25.0002 57.3335 25.1232 57.6124 25.342 57.8181C25.5607 58.0238 25.8575 58.1393 26.1669 58.1393H35.5003C35.8097 58.1393 36.1064 58.0238 36.3252 57.8181C36.544 57.6124 36.6669 57.3335 36.6669 57.0426V48.2692C36.6669 47.9784 36.544 47.6994 36.3252 47.4938C36.1064 47.2881 35.8097 47.1725 35.5003 47.1725ZM34.3336 55.9459H27.3336V49.3659H34.3336V55.9459Z" fill="#39519D"/>
<path d="M50.6665 47.1725H41.3332C41.0238 47.1725 40.727 47.2881 40.5082 47.4938C40.2894 47.6994 40.1665 47.9784 40.1665 48.2692V57.0426C40.1665 57.3335 40.2894 57.6124 40.5082 57.8181C40.727 58.0238 41.0238 58.1393 41.3332 58.1393H50.6665C50.9759 58.1393 51.2727 58.0238 51.4915 57.8181C51.7103 57.6124 51.8332 57.3335 51.8332 57.0426V48.2692C51.8332 47.9784 51.7103 47.6994 51.4915 47.4938C51.2727 47.2881 50.9759 47.1725 50.6665 47.1725ZM49.4998 55.9459H42.4998V49.3659H49.4998V55.9459Z" fill="#39519D"/>
<path d="M56.4997 32.9157C56.1903 32.9157 55.8935 33.0313 55.6747 33.2369C55.4559 33.4426 55.333 33.7216 55.333 34.0124V38.3991C55.333 38.69 55.4559 38.9689 55.6747 39.1746C55.8935 39.3803 56.1903 39.4958 56.4997 39.4958C56.8091 39.4958 57.1058 39.3803 57.3246 39.1746C57.5434 38.9689 57.6663 38.69 57.6663 38.3991V35.1091H63.4997C63.8091 35.1091 64.1058 34.9936 64.3246 34.7879C64.5434 34.5822 64.6663 34.3033 64.6663 34.0124C64.6663 33.7216 64.5434 33.4426 64.3246 33.2369C64.1058 33.0313 63.8091 32.9157 63.4997 32.9157H56.4997Z" fill="#39519D"/>
<path d="M79.0914 43.4833C78.8726 43.2777 78.5759 43.1622 78.2665 43.1622C77.9572 43.1622 77.6605 43.2777 77.4417 43.4833L73.1659 47.5016C72.6999 47.2844 72.1868 47.1714 71.6667 47.1714C71.1466 47.1714 70.6335 47.2844 70.1675 47.5016L67.5414 45.034C67.3213 44.8343 67.0266 44.7237 66.7207 44.7262C66.4148 44.7287 66.1222 44.8441 65.9059 45.0474C65.6896 45.2507 65.5669 45.5258 65.5643 45.8133C65.5616 46.1009 65.6792 46.3779 65.8917 46.5847L68.5167 49.0534C68.2884 49.4922 68.1687 49.974 68.1667 50.4626C68.1667 51.3352 68.5355 52.172 69.1918 52.789C69.8482 53.406 70.7385 53.7526 71.6667 53.7526C72.595 53.7526 73.4852 53.406 74.1416 52.789C74.798 52.172 75.1667 51.3352 75.1667 50.4626C75.1647 49.974 75.045 49.4922 74.8167 49.0534L79.0925 45.034C79.3111 44.8282 79.4338 44.5493 79.4335 44.2585C79.4333 43.9677 79.3102 43.6889 79.0914 43.4833V43.4833ZM71.6667 51.5593C71.436 51.5593 71.2104 51.4949 71.0185 51.3744C70.8267 51.2539 70.6772 51.0827 70.5889 50.8823C70.5005 50.6819 70.4774 50.4614 70.5225 50.2486C70.5675 50.0359 70.6786 49.8405 70.8418 49.6871C71.0049 49.5337 71.2128 49.4293 71.4391 49.387C71.6654 49.3447 71.9 49.3664 72.1132 49.4494C72.3264 49.5324 72.5086 49.673 72.6368 49.8533C72.765 50.0337 72.8334 50.2457 72.8334 50.4626C72.8334 50.7534 72.7105 51.0324 72.4917 51.238C72.2729 51.4437 71.9761 51.5593 71.6667 51.5593Z" fill="#39519D"/>
<path d="M85.8509 58.0296C87.2609 55.7212 88.0019 53.1054 87.9999 50.4436C87.9978 47.7817 87.2528 45.1669 85.8392 42.8604C85.8264 42.8363 85.8264 42.8089 85.8124 42.7847C85.7984 42.7606 85.7622 42.7376 85.7412 42.7102C84.3248 40.4456 82.317 38.5582 79.9079 37.2268C79.8787 37.2071 79.8601 37.1774 79.8286 37.1599C79.7971 37.1423 79.7737 37.1467 79.7481 37.1347C77.2881 35.8045 74.4998 35.1044 71.6619 35.1044C68.8239 35.1044 66.0357 35.8045 63.5757 37.1347C63.5501 37.1467 63.5209 37.1467 63.4952 37.1599C63.4696 37.1731 63.4451 37.2071 63.4159 37.2268C61.0079 38.5572 59.0003 40.4425 57.5826 42.7047C57.5616 42.7332 57.5301 42.7496 57.5114 42.7804C57.4927 42.8111 57.4974 42.8319 57.4846 42.856C56.0695 45.1684 55.3247 47.7894 55.3247 50.4571C55.3247 53.1248 56.0695 55.7458 57.4846 58.0581C57.4974 58.0823 57.4974 58.1097 57.5114 58.1338C57.5424 58.1774 57.5767 58.2188 57.6141 58.2577C59.0281 60.4984 61.0224 62.3663 63.4112 63.6874C63.4404 63.7071 63.4591 63.7367 63.4906 63.7543C63.5221 63.7718 63.5652 63.7817 63.6072 63.797C66.049 65.1122 68.8134 65.8062 71.6276 65.8104C74.4418 65.8147 77.2085 65.129 79.6547 63.8212C79.7158 63.805 79.7755 63.7845 79.8332 63.7598C79.8671 63.7411 79.8857 63.7104 79.9172 63.6896C80.3839 63.4297 80.8506 63.1555 81.2916 62.8495C81.5386 62.6768 81.703 62.4193 81.7489 62.1332C81.7949 61.8471 81.7186 61.5555 81.5368 61.3219C81.3551 61.0884 81.0824 60.9319 80.7784 60.8865C80.4744 60.841 80.1636 60.9104 79.9137 61.0795C79.8251 61.1409 79.7306 61.1892 79.6407 61.2517L79.0936 60.3612C78.9378 60.1113 78.6831 59.9296 78.3853 59.8555C78.0875 59.7815 77.7706 59.8213 77.5038 59.9661C77.237 60.1109 77.0419 60.349 76.9612 60.6285C76.8805 60.9079 76.9206 61.2061 77.0729 61.4578L77.6224 62.3538C76.1177 63.0299 74.4951 63.4439 72.8332 63.5755V62.526C72.8332 62.2351 72.7103 61.9562 72.4915 61.7505C72.2727 61.5449 71.976 61.4293 71.6666 61.4293C71.3571 61.4293 71.0604 61.5449 70.8416 61.7505C70.6228 61.9562 70.4999 62.2351 70.4999 62.526V63.5667C68.839 63.4383 67.2163 63.0296 65.7096 62.3604L66.2602 61.4633C66.338 61.3385 66.3888 61.2005 66.4097 61.0572C66.4305 60.9139 66.421 60.7682 66.3817 60.6284C66.3423 60.4885 66.274 60.3574 66.1805 60.2425C66.0871 60.1276 65.9704 60.0313 65.8371 59.9589C65.7039 59.8866 65.5567 59.8398 65.4041 59.8212C65.2516 59.8025 65.0966 59.8124 64.9481 59.8503C64.7996 59.8882 64.6606 59.9533 64.539 60.042C64.4174 60.1306 64.3156 60.2409 64.2396 60.3666L63.6866 61.267C62.3198 60.3705 61.1322 59.2541 60.1784 57.9693L61.1362 57.4495C61.27 57.378 61.3874 57.2824 61.4816 57.168C61.5759 57.0537 61.6452 56.923 61.6855 56.7835C61.7258 56.6439 61.7364 56.4982 61.7165 56.3548C61.6967 56.2113 61.6469 56.073 61.5699 55.9478C61.493 55.8225 61.3905 55.7128 61.2683 55.625C61.146 55.5371 61.0065 55.4728 60.8578 55.4359C60.709 55.3989 60.554 55.39 60.4015 55.4096C60.2491 55.4292 60.1023 55.4769 59.9696 55.55L59.0152 56.0677C58.3006 54.65 57.8639 53.1227 57.7261 51.5592H58.8332C59.1426 51.5592 59.4394 51.4437 59.6582 51.238C59.877 51.0324 59.9999 50.7534 59.9999 50.4626C59.9999 50.1717 59.877 49.8928 59.6582 49.6871C59.4394 49.4814 59.1426 49.3659 58.8332 49.3659H57.7261C57.8627 47.8046 58.2974 46.2793 59.0094 44.8629L59.9637 45.3806C60.2315 45.5237 60.5487 45.5615 60.846 45.4856C61.1433 45.4097 61.3967 45.2264 61.5507 44.9756C61.7048 44.7248 61.747 44.4269 61.6683 44.1469C61.5895 43.8669 61.3962 43.6276 61.1304 43.4811L60.1726 42.9613C61.1263 41.6765 62.314 40.5602 63.6807 39.6636L64.2337 40.564C64.3098 40.6897 64.4115 40.8001 64.5331 40.8887C64.6547 40.9773 64.7938 41.0424 64.9423 41.0803C65.0907 41.1182 65.2457 41.1281 65.3983 41.1095C65.5509 41.0908 65.698 41.044 65.8313 40.9717C65.9645 40.8994 66.0812 40.803 66.1747 40.6881C66.2682 40.5732 66.3365 40.4421 66.3758 40.3023C66.4152 40.1624 66.4247 40.0167 66.4038 39.8734C66.383 39.7301 66.3322 39.5921 66.2544 39.4673L65.7037 38.5702C67.2119 37.8984 68.8367 37.4879 70.4999 37.3584V38.3991C70.4999 38.69 70.6228 38.9689 70.8416 39.1746C71.0604 39.3803 71.3571 39.4958 71.6666 39.4958C71.976 39.4958 72.2727 39.3803 72.4915 39.1746C72.7103 38.9689 72.8332 38.69 72.8332 38.3991V37.3584C74.4941 37.4868 76.1168 37.8955 77.6236 38.5647L77.0729 39.4618C76.9951 39.5866 76.9443 39.7246 76.9234 39.8679C76.9026 40.0112 76.9121 40.1569 76.9514 40.2968C76.9908 40.4366 77.0591 40.5677 77.1526 40.6826C77.2461 40.7975 77.3628 40.8939 77.496 40.9662C77.6293 41.0385 77.7764 41.0853 77.929 41.104C78.0816 41.1226 78.2366 41.1127 78.385 41.0748C78.5335 41.0369 78.6726 40.9718 78.7942 40.8832C78.9158 40.7946 79.0175 40.6842 79.0936 40.5585L79.6466 39.6581C81.0133 40.5547 82.201 41.6711 83.1547 42.9558L82.1969 43.4756C82.0631 43.5471 81.9458 43.6428 81.8515 43.7571C81.7572 43.8714 81.6879 44.0021 81.6476 44.1417C81.6073 44.2812 81.5968 44.4269 81.6166 44.5704C81.6364 44.7138 81.6862 44.8521 81.7632 44.9774C81.8401 45.1026 81.9426 45.2123 82.0649 45.3002C82.1871 45.388 82.3266 45.4523 82.4753 45.4893C82.6241 45.5262 82.7791 45.5352 82.9316 45.5156C83.084 45.496 83.2308 45.4482 83.3636 45.3751L84.3179 44.8575C85.0326 46.2752 85.4693 47.8024 85.6071 49.3659H84.4999C84.1905 49.3659 83.8937 49.4814 83.6749 49.6871C83.4561 49.8928 83.3332 50.1717 83.3332 50.4626C83.3332 50.7534 83.4561 51.0324 83.6749 51.238C83.8937 51.4437 84.1905 51.5592 84.4999 51.5592H85.6164C85.4756 53.1195 85.0353 54.6429 84.3167 56.0556L83.3636 55.5391C83.0958 55.3959 82.7786 55.3582 82.4813 55.4341C82.1839 55.51 81.9306 55.6933 81.7766 55.9441C81.6225 56.1949 81.5803 56.4928 81.659 56.7727C81.7378 57.0527 81.9311 57.2921 82.1969 57.4385L83.1442 57.9529C83.0812 58.0373 83.0276 58.1261 82.9611 58.2095C82.7776 58.4449 82.7011 58.7393 82.7485 59.0277C82.7958 59.3161 82.9632 59.5751 83.2136 59.7476C83.4641 59.92 83.7772 59.9919 84.0841 59.9474C84.3909 59.9029 84.6664 59.7456 84.8499 59.5101C85.1649 59.1044 85.4496 58.6854 85.7191 58.2588C85.7529 58.221 85.7841 58.181 85.8124 58.1393C85.8334 58.1042 85.8334 58.0658 85.8509 58.0296V58.0296Z" fill="#39519D"/>
</svg>
