<svg width="46" height="46" viewBox="0 0 46 46" fill="none" xmlns="http://www.w3.org/2000/svg">
<path opacity="0.5" d="M42.1668 19.1667H3.8335V36.4167C3.8335 37.9417 4.4393 39.4042 5.51763 40.4825C6.59597 41.5609 8.0585 42.1667 9.5835 42.1667H36.4168C37.9418 42.1667 39.4044 41.5609 40.4827 40.4825C41.561 39.4042 42.1668 37.9417 42.1668 36.4167V19.1667ZM13.4168 15.3333C12.9085 15.3333 12.421 15.1314 12.0615 14.7719C11.7021 14.4125 11.5002 13.925 11.5002 13.4167V5.74999C11.5002 5.24166 11.7021 4.75415 12.0615 4.39471C12.421 4.03526 12.9085 3.83333 13.4168 3.83333C13.9252 3.83333 14.4127 4.03526 14.7721 4.39471C15.1316 4.75415 15.3335 5.24166 15.3335 5.74999V13.4167C15.3335 13.925 15.1316 14.4125 14.7721 14.7719C14.4127 15.1314 13.9252 15.3333 13.4168 15.3333ZM32.5835 15.3333C32.0752 15.3333 31.5877 15.1314 31.2282 14.7719C30.8688 14.4125 30.6668 13.925 30.6668 13.4167V5.74999C30.6668 5.24166 30.8688 4.75415 31.2282 4.39471C31.5877 4.03526 32.0752 3.83333 32.5835 3.83333C33.0918 3.83333 33.5793 4.03526 33.9388 4.39471C34.2982 4.75415 34.5002 5.24166 34.5002 5.74999V13.4167C34.5002 13.925 34.2982 14.4125 33.9388 14.7719C33.5793 15.1314 33.0918 15.3333 32.5835 15.3333Z" fill="#FFC793" fill-opacity="0.99"/>
<path d="M36.4168 7.66667H34.5002V13.4167C34.5002 13.925 34.2982 14.4125 33.9388 14.772C33.5793 15.1314 33.0918 15.3333 32.5835 15.3333C32.0752 15.3333 31.5877 15.1314 31.2282 14.772C30.8688 14.4125 30.6668 13.925 30.6668 13.4167V7.66667H15.3335V13.4167C15.3335 13.925 15.1316 14.4125 14.7721 14.772C14.4127 15.1314 13.9252 15.3333 13.4168 15.3333C12.9085 15.3333 12.421 15.1314 12.0615 14.772C11.7021 14.4125 11.5002 13.925 11.5002 13.4167V7.66667H9.5835C8.0585 7.66667 6.59597 8.27247 5.51763 9.35081C4.4393 10.4291 3.8335 11.8917 3.8335 13.4167V19.1667H42.1668V13.4167C42.1668 11.8917 41.561 10.4291 40.4827 9.35081C39.4044 8.27247 37.9418 7.66667 36.4168 7.66667Z" fill="#FFC793" fill-opacity="0.99"/>
</svg>
