<svg width="16" height="10" viewBox="0 0 16 10" fill="none" xmlns="http://www.w3.org/2000/svg">
<path d="M8 2.4375C6.89719 2.4375 6 3.53095 6 4.875C6 6.21905 6.89719 7.3125 8 7.3125C9.10281 7.3125 10 6.21905 10 4.875C10 3.53095 9.10281 2.4375 8 2.4375ZM8 6.09375C7.44859 6.09375 7 5.54703 7 4.875C7 4.20297 7.44859 3.65625 8 3.65625C8.55141 3.65625 9 4.20297 9 4.875C9 5.54703 8.55141 6.09375 8 6.09375Z" fill="#FDAB60" fill-opacity="0.99"/>
<path d="M15.3127 3.40884L13.148 1.76692C11.6242 0.610975 9.84397 0 8 0C6.15603 0 4.37584 0.610975 2.85197 1.76692L0.687281 3.40884C0.256938 3.73528 0 4.28337 0 4.875C0 5.46663 0.256938 6.01472 0.687281 6.34116L2.85197 7.98308C4.37584 9.13902 6.15603 9.75 8 9.75C9.84397 9.75 11.6242 9.13902 13.148 7.98308L15.3127 6.34116C15.7431 6.01472 16 5.46663 16 4.875C16 4.28337 15.7431 3.73528 15.3127 3.40884ZM8 8.53125C6.34578 8.53125 5 6.89108 5 4.875C5 2.85892 6.34578 1.21875 8 1.21875C9.65422 1.21875 11 2.85892 11 4.875C11 6.89108 9.65422 8.53125 8 8.53125Z" fill="#FDAB60" fill-opacity="0.99"/>
</svg>
