<svg width="35" height="35" viewBox="0 0 35 35" fill="none" xmlns="http://www.w3.org/2000/svg">
<path d="M24.2308 23.9063V28.4375C24.2308 29.8294 23.0987 30.9615 21.7068 30.9615H6.56252C5.17059 30.9615 4.03847 29.8294 4.03847 28.4375V13.2932C4.03847 11.9013 5.17059 10.7692 6.56252 10.7692H11.1785L15.2183 6.73071H6.56252C2.93732 6.73071 0 9.66802 0 13.2932V28.4375C0 32.0627 2.93732 35 6.56252 35H21.7068C25.332 35 28.2693 32.0627 28.2693 28.4375V19.8665L24.2308 23.9063Z" fill="white"/>
<path d="M30.3975 -2.11608e-05H16.5872C14.0484 0.00267115 14.2247 0.686518 15.5642 2.0246L19.8988 6.35921L12.468 13.7886C10.9267 15.3286 10.928 17.8244 12.468 19.3631L15.7122 22.6087C17.2523 24.1446 19.7453 24.146 21.2853 22.6073L28.7161 15.1765L32.97 19.4304C34.4521 20.9111 34.9986 20.9502 34.9986 18.4113L35 4.60248C34.9986 -0.0242522 35.0323 -0.00136732 30.3975 -2.11608e-05Z" fill="white"/>
</svg>
